# Low-poly cozy office asset generated by scripts/generate-cozy-office-assets.mjs
mtllib cozy-palette.mtl
o soft_chunky_desktop
usemtl terracotta
v -1.3500 0.6700 -0.5900
v 1.3500 0.6700 -0.5900
v 1.3500 0.8500 -0.5900
v -1.3500 0.8500 -0.5900
v -1.3500 0.6700 0.5900
v 1.3500 0.6700 0.5900
v 1.3500 0.8500 0.5900
v -1.3500 0.8500 0.5900
f 1 2 3 4
f 5 8 7 6
f 1 5 6 2
f 2 6 7 3
f 3 7 8 4
f 4 8 5 1
o warm_front_apron
usemtl teal
v -1.2750 0.5200 0.4800
v 1.2750 0.5200 0.4800
v 1.2750 0.7200 0.4800
v -1.2750 0.7200 0.4800
v -1.2750 0.5200 0.6000
v 1.2750 0.5200 0.6000
v 1.2750 0.7200 0.6000
v -1.2750 0.7200 0.6000
f 9 10 11 12
f 13 16 15 14
f 9 13 14 10
f 10 14 15 11
f 11 15 16 12
f 12 16 13 9
o left_drawer_block
usemtl terracotta
v -1.2300 0.0400 -0.1100
v -0.6100 0.0400 -0.1100
v -0.6100 0.7000 -0.1100
v -1.2300 0.7000 -0.1100
v -1.2300 0.0400 0.6100
v -0.6100 0.0400 0.6100
v -0.6100 0.7000 0.6100
v -1.2300 0.7000 0.6100
f 17 18 19 20
f 21 24 23 22
f 17 21 22 18
f 18 22 23 19
f 19 23 24 20
f 20 24 21 17
o right_trestle_panel
usemtl terracotta
v 0.9300 0.0400 -0.3300
v 1.1100 0.0400 -0.3300
v 1.1100 0.6600 -0.3300
v 0.9300 0.6600 -0.3300
v 0.9300 0.0400 0.4900
v 1.1100 0.0400 0.4900
v 1.1100 0.6600 0.4900
v 0.9300 0.6600 0.4900
f 25 26 27 28
f 29 32 31 30
f 25 29 30 26
f 26 30 31 27
f 27 31 32 28
f 28 32 29 25
o rear_cozy_shelf
usemtl terracotta
v -1.1250 0.9700 -0.5600
v 1.1250 0.9700 -0.5600
v 1.1250 1.0700 -0.5600
v -1.1250 1.0700 -0.5600
v -1.1250 0.9700 -0.4000
v 1.1250 0.9700 -0.4000
v 1.1250 1.0700 -0.4000
v -1.1250 1.0700 -0.4000
f 33 34 35 36
f 37 40 39 38
f 33 37 38 34
f 34 38 39 35
f 35 39 40 36
f 36 40 37 33
o left_shelf_post
usemtl terracotta
v -1.0700 0.7400 -0.5400
v -0.9700 0.7400 -0.5400
v -0.9700 1.0800 -0.5400
v -1.0700 1.0800 -0.5400
v -1.0700 0.7400 -0.4200
v -0.9700 0.7400 -0.4200
v -0.9700 1.0800 -0.4200
v -1.0700 1.0800 -0.4200
f 41 42 43 44
f 45 48 47 46
f 41 45 46 42
f 42 46 47 43
f 43 47 48 44
f 44 48 45 41
o right_shelf_post
usemtl terracotta
v 0.9700 0.7400 -0.5400
v 1.0700 0.7400 -0.5400
v 1.0700 1.0800 -0.5400
v 0.9700 1.0800 -0.5400
v 0.9700 0.7400 -0.4200
v 1.0700 0.7400 -0.4200
v 1.0700 1.0800 -0.4200
v 0.9700 1.0800 -0.4200
f 49 50 51 52
f 53 56 55 54
f 49 53 54 50
f 50 54 55 51
f 51 55 56 52
f 52 56 53 49
o drawer_line_top
usemtl terracotta
v -1.1600 0.4575 0.6100
v -0.6800 0.4575 0.6100
v -0.6800 0.5025 0.6100
v -1.1600 0.5025 0.6100
v -1.1600 0.4575 0.6500
v -0.6800 0.4575 0.6500
v -0.6800 0.5025 0.6500
v -1.1600 0.5025 0.6500
f 57 58 59 60
f 61 64 63 62
f 57 61 62 58
f 58 62 63 59
f 59 63 64 60
f 60 64 61 57
o drawer_line_bottom
usemtl terracotta
v -1.1600 0.2575 0.6100
v -0.6800 0.2575 0.6100
v -0.6800 0.3025 0.6100
v -1.1600 0.3025 0.6100
v -1.1600 0.2575 0.6500
v -0.6800 0.2575 0.6500
v -0.6800 0.3025 0.6500
v -1.1600 0.3025 0.6500
f 65 66 67 68
f 69 72 71 70
f 65 69 70 66
f 66 70 71 67
f 67 71 72 68
f 68 72 69 65
o book_stack_big
usemtl pear
v -0.6300 0.8600 -0.3200
v -0.2100 0.8600 -0.3200
v -0.2100 0.9400 -0.3200
v -0.6300 0.9400 -0.3200
v -0.6300 0.8600 -0.0400
v -0.2100 0.8600 -0.0400
v -0.2100 0.9400 -0.0400
v -0.6300 0.9400 -0.0400
f 73 74 75 76
f 77 80 79 78
f 73 77 78 74
f 74 78 79 75
f 75 79 80 76
f 76 80 77 73
o book_stack_small
usemtl pear
v -0.5400 0.9500 -0.3000
v -0.2000 0.9500 -0.3000
v -0.2000 1.0300 -0.3000
v -0.5400 1.0300 -0.3000
v -0.5400 0.9500 -0.0600
v -0.2000 0.9500 -0.0600
v -0.2000 1.0300 -0.0600
v -0.5400 1.0300 -0.0600
f 81 82 83 84
f 85 88 87 86
f 81 85 86 82
f 82 86 87 83
f 83 87 88 84
f 84 88 85 81
o mug_body
usemtl coral
v 0.4616 0.8400 0.3021
v 0.4515 1.0200 0.2979
v 0.4021 0.8400 0.3616
v 0.3979 1.0200 0.3515
v 0.3179 0.8400 0.3616
v 0.3221 1.0200 0.3515
v 0.2584 0.8400 0.3021
v 0.2685 1.0200 0.2979
v 0.2584 0.8400 0.2179
v 0.2685 1.0200 0.2221
v 0.3179 0.8400 0.1584
v 0.3221 1.0200 0.1685
v 0.4021 0.8400 0.1584
v 0.3979 1.0200 0.1685
v 0.4616 0.8400 0.2179
v 0.4515 1.0200 0.2221
f 89 91 92 90
f 91 93 94 92
f 93 95 96 94
f 95 97 98 96
f 97 99 100 98
f 99 101 102 100
f 101 103 104 102
f 103 89 90 104
f 103 101 99 97 95 93 91 89
f 90 92 94 96 98 100 102 104
o mug_handle
usemtl coral
v 0.4600 0.8750 0.1850
v 0.5200 0.8750 0.1850
v 0.5200 1.0050 0.1850
v 0.4600 1.0050 0.1850
v 0.4600 0.8750 0.3350
v 0.5200 0.8750 0.3350
v 0.5200 1.0050 0.3350
v 0.4600 1.0050 0.3350
f 105 106 107 108
f 109 112 111 110
f 105 109 110 106
f 106 110 111 107
f 107 111 112 108
f 108 112 109 105
o lamp_base
usemtl charcoal
v 0.9801 0.8500 -0.1903
v 0.9801 0.9100 -0.1903
v 0.9097 0.8500 -0.1199
v 0.9097 0.9100 -0.1199
v 0.8103 0.8500 -0.1199
v 0.8103 0.9100 -0.1199
v 0.7399 0.8500 -0.1903
v 0.7399 0.9100 -0.1903
v 0.7399 0.8500 -0.2897
v 0.7399 0.9100 -0.2897
v 0.8103 0.8500 -0.3601
v 0.8103 0.9100 -0.3601
v 0.9097 0.8500 -0.3601
v 0.9097 0.9100 -0.3601
v 0.9801 0.8500 -0.2897
v 0.9801 0.9100 -0.2897
f 113 115 116 114
f 115 117 118 116
f 117 119 120 118
f 119 121 122 120
f 121 123 124 122
f 123 125 126 124
f 125 127 128 126
f 127 113 114 128
f 127 125 123 121 119 117 115 113
f 114 116 118 120 122 124 126 128
o lamp_neck
usemtl charcoal
v 0.8903 0.8900 -0.2225
v 0.8903 1.2700 -0.2225
v 0.8600 0.8900 -0.2050
v 0.8600 1.2700 -0.2050
v 0.8297 0.8900 -0.2225
v 0.8297 1.2700 -0.2225
v 0.8297 0.8900 -0.2575
v 0.8297 1.2700 -0.2575
v 0.8600 0.8900 -0.2750
v 0.8600 1.2700 -0.2750
v 0.8903 0.8900 -0.2575
v 0.8903 1.2700 -0.2575
f 129 131 132 130
f 131 133 134 132
f 133 135 136 134
f 135 137 138 136
f 137 139 140 138
f 139 129 130 140
f 139 137 135 133 131 129
f 130 132 134 136 138 140
o lamp_shade
usemtl blush
v 1.0171 1.1700 -0.1749
v 0.9637 1.3900 -0.1971
v 0.9251 1.1700 -0.0829
v 0.9029 1.3900 -0.1363
v 0.7949 1.1700 -0.0829
v 0.8171 1.3900 -0.1363
v 0.7029 1.1700 -0.1749
v 0.7563 1.3900 -0.1971
v 0.7029 1.1700 -0.3051
v 0.7563 1.3900 -0.2829
v 0.7949 1.1700 -0.3971
v 0.8171 1.3900 -0.3437
v 0.9251 1.1700 -0.3971
v 0.9029 1.3900 -0.3437
v 1.0171 1.1700 -0.3051
v 0.9637 1.3900 -0.2829
f 141 143 144 142
f 143 145 146 144
f 145 147 148 146
f 147 149 150 148
f 149 151 152 150
f 151 153 154 152
f 153 155 156 154
f 155 141 142 156
f 155 153 151 149 147 145 143 141
f 142 144 146 148 150 152 154 156
