# Low-poly cozy office asset generated by scripts/generate-cozy-office-assets.mjs
mtllib cozy-palette.mtl
o thick_cozy_door_slab
usemtl terracotta
v -0.5400 0.0000 -0.0800
v 0.5400 0.0000 -0.0800
v 0.5400 2.1000 -0.0800
v -0.5400 2.1000 -0.0800
v -0.5400 0.0000 0.0800
v 0.5400 0.0000 0.0800
v 0.5400 2.1000 0.0800
v -0.5400 2.1000 0.0800
f 1 2 3 4
f 5 8 7 6
f 1 5 6 2
f 2 6 7 3
f 3 7 8 4
f 4 8 5 1
o left_frame
usemtl terracotta
v -0.7500 -0.0600 -0.0700
v -0.5900 -0.0600 -0.0700
v -0.5900 2.2200 -0.0700
v -0.7500 2.2200 -0.0700
v -0.7500 -0.0600 0.1500
v -0.5900 -0.0600 0.1500
v -0.5900 2.2200 0.1500
v -0.7500 2.2200 0.1500
f 9 10 11 12
f 13 16 15 14
f 9 13 14 10
f 10 14 15 11
f 11 15 16 12
f 12 16 13 9
o right_frame
usemtl terracotta
v 0.5900 -0.0600 -0.0700
v 0.7500 -0.0600 -0.0700
v 0.7500 2.2200 -0.0700
v 0.5900 2.2200 -0.0700
v 0.5900 -0.0600 0.1500
v 0.7500 -0.0600 0.1500
v 0.7500 2.2200 0.1500
v 0.5900 2.2200 0.1500
f 17 18 19 20
f 21 24 23 22
f 17 21 22 18
f 18 22 23 19
f 19 23 24 20
f 20 24 21 17
o top_frame
usemtl terracotta
v -0.7500 2.1300 -0.0700
v 0.7500 2.1300 -0.0700
v 0.7500 2.2900 -0.0700
v -0.7500 2.2900 -0.0700
v -0.7500 2.1300 0.1500
v 0.7500 2.1300 0.1500
v 0.7500 2.2900 0.1500
v -0.7500 2.2900 0.1500
f 25 26 27 28
f 29 32 31 30
f 25 29 30 26
f 26 30 31 27
f 27 31 32 28
f 28 32 29 25
o upper_panel
usemtl terracotta
v -0.3400 1.2100 0.0600
v 0.3400 1.2100 0.0600
v 0.3400 1.8300 0.0600
v -0.3400 1.8300 0.0600
v -0.3400 1.2100 0.1400
v 0.3400 1.2100 0.1400
v 0.3400 1.8300 0.1400
v -0.3400 1.8300 0.1400
f 33 34 35 36
f 37 40 39 38
f 33 37 38 34
f 34 38 39 35
f 35 39 40 36
f 36 40 37 33
o lower_panel
usemtl terracotta
v -0.3400 0.3000 0.0600
v 0.3400 0.3000 0.0600
v 0.3400 1.0200 0.0600
v -0.3400 1.0200 0.0600
v -0.3400 0.3000 0.1400
v 0.3400 0.3000 0.1400
v 0.3400 1.0200 0.1400
v -0.3400 1.0200 0.1400
f 41 42 43 44
f 45 48 47 46
f 41 45 46 42
f 42 46 47 43
f 43 47 48 44
f 44 48 45 41
o tiny_welcome_mat
usemtl blush
v -0.6250 0.0000 0.1300
v 0.6250 0.0000 0.1300
v 0.6250 0.0400 0.1300
v -0.6250 0.0400 0.1300
v -0.6250 0.0000 0.7500
v 0.6250 0.0000 0.7500
v 0.6250 0.0400 0.7500
v -0.6250 0.0400 0.7500
f 49 50 51 52
f 53 56 55 54
f 49 53 54 50
f 50 54 55 51
f 51 55 56 52
f 52 56 53 49
o round_door_knob
usemtl terracotta
v 0.4939 1.0606 0.1100
v 0.4939 1.0606 0.2100
v 0.4506 1.1039 0.1100
v 0.4506 1.1039 0.2100
v 0.3894 1.1039 0.1100
v 0.3894 1.1039 0.2100
v 0.3461 1.0606 0.1100
v 0.3461 1.0606 0.2100
v 0.3461 0.9994 0.1100
v 0.3461 0.9994 0.2100
v 0.3894 0.9561 0.1100
v 0.3894 0.9561 0.2100
v 0.4506 0.9561 0.1100
v 0.4506 0.9561 0.2100
v 0.4939 0.9994 0.1100
v 0.4939 0.9994 0.2100
f 57 59 60 58
f 59 61 62 60
f 61 63 64 62
f 63 65 66 64
f 65 67 68 66
f 67 69 70 68
f 69 71 72 70
f 71 57 58 72
f 71 69 67 65 63 61 59 57
f 58 60 62 64 66 68 70 72
o knob_backplate
usemtl teal
v 0.5309 1.0759 0.0825
v 0.5309 1.0759 0.1175
v 0.4659 1.1409 0.0825
v 0.4659 1.1409 0.1175
v 0.3741 1.1409 0.0825
v 0.3741 1.1409 0.1175
v 0.3091 1.0759 0.0825
v 0.3091 1.0759 0.1175
v 0.3091 0.9841 0.0825
v 0.3091 0.9841 0.1175
v 0.3741 0.9191 0.0825
v 0.3741 0.9191 0.1175
v 0.4659 0.9191 0.0825
v 0.4659 0.9191 0.1175
v 0.5309 0.9841 0.0825
v 0.5309 0.9841 0.1175
f 73 75 76 74
f 75 77 78 76
f 77 79 80 78
f 79 81 82 80
f 81 83 84 82
f 83 85 86 84
f 85 87 88 86
f 87 73 74 88
f 87 85 83 81 79 77 75 73
f 74 76 78 80 82 84 86 88
