# Low-poly cozy office asset generated by scripts/generate-cozy-office-assets.mjs
mtllib cozy-palette.mtl
o faceted_saucer
usemtl coral
v 0.3994 0.0000 0.1298
v 0.3994 0.1200 0.1298
v 0.2469 0.0000 0.3398
v 0.2469 0.1200 0.3398
v 0.0000 0.0000 0.4200
v 0.0000 0.1200 0.4200
v -0.2469 0.0000 0.3398
v -0.2469 0.1200 0.3398
v -0.3994 0.0000 0.1298
v -0.3994 0.1200 0.1298
v -0.3994 0.0000 -0.1298
v -0.3994 0.1200 -0.1298
v -0.2469 0.0000 -0.3398
v -0.2469 0.1200 -0.3398
v -0.0000 0.0000 -0.4200
v -0.0000 0.1200 -0.4200
v 0.2469 0.0000 -0.3398
v 0.2469 0.1200 -0.3398
v 0.3994 0.0000 -0.1298
v 0.3994 0.1200 -0.1298
f 1 3 4 2
f 3 5 6 4
f 5 7 8 6
f 7 9 10 8
f 9 11 12 10
f 11 13 14 12
f 13 15 16 14
f 15 17 18 16
f 17 19 20 18
f 19 1 2 20
f 19 17 15 13 11 9 7 5 3 1
f 2 4 6 8 10 12 14 16 18 20
o tapered_clay_pot
usemtl coral
v 0.3234 0.0800 0.1051
v 0.3816 0.6000 0.1240
v 0.1998 0.0800 0.2751
v 0.2358 0.6000 0.3246
v 0.0000 0.0800 0.3400
v 0.0000 0.6000 0.4012
v -0.1998 0.0800 0.2751
v -0.2358 0.6000 0.3246
v -0.3234 0.0800 0.1051
v -0.3816 0.6000 0.1240
v -0.3234 0.0800 -0.1051
v -0.3816 0.6000 -0.1240
v -0.1998 0.0800 -0.2751
v -0.2358 0.6000 -0.3246
v -0.0000 0.0800 -0.3400
v -0.0000 0.6000 -0.4012
v 0.1998 0.0800 -0.2751
v 0.2358 0.6000 -0.3246
v 0.3234 0.0800 -0.1051
v 0.3816 0.6000 -0.1240
f 21 23 24 22
f 23 25 26 24
f 25 27 28 26
f 27 29 30 28
f 29 31 32 30
f 31 33 34 32
f 33 35 36 34
f 35 37 38 36
f 37 39 40 38
f 39 21 22 40
f 39 37 35 33 31 29 27 25 23 21
f 22 24 26 28 30 32 34 36 38 40
o soil_disk
usemtl charcoal
v 0.3424 0.5925 0.1112
v 0.3424 0.6475 0.1112
v 0.2116 0.5925 0.2912
v 0.2116 0.6475 0.2912
v 0.0000 0.5925 0.3600
v 0.0000 0.6475 0.3600
v -0.2116 0.5925 0.2912
v -0.2116 0.6475 0.2912
v -0.3424 0.5925 0.1112
v -0.3424 0.6475 0.1112
v -0.3424 0.5925 -0.1112
v -0.3424 0.6475 -0.1112
v -0.2116 0.5925 -0.2912
v -0.2116 0.6475 -0.2912
v -0.0000 0.5925 -0.3600
v -0.0000 0.6475 -0.3600
v 0.2116 0.5925 -0.2912
v 0.2116 0.6475 -0.2912
v 0.3424 0.5925 -0.1112
v 0.3424 0.6475 -0.1112
f 41 43 44 42
f 43 45 46 44
f 45 47 48 46
f 47 49 50 48
f 49 51 52 50
f 51 53 54 52
f 53 55 56 54
f 55 57 58 56
f 57 59 60 58
f 59 41 42 60
f 59 57 55 53 51 49 47 45 43 41
f 42 44 46 48 50 52 54 56 58 60
o main_stem
usemtl pear
v 0.0303 0.6100 0.0175
v 0.0303 1.1900 0.0175
v 0.0000 0.6100 0.0350
v 0.0000 1.1900 0.0350
v -0.0303 0.6100 0.0175
v -0.0303 1.1900 0.0175
v -0.0303 0.6100 -0.0175
v -0.0303 1.1900 -0.0175
v -0.0000 0.6100 -0.0350
v -0.0000 1.1900 -0.0350
v 0.0303 0.6100 -0.0175
v 0.0303 1.1900 -0.0175
f 61 63 64 62
f 63 65 66 64
f 65 67 68 66
f 67 69 70 68
f 69 71 72 70
f 71 61 62 72
f 71 69 67 65 63 61
f 62 64 66 68 70 72
o side_stem_left
usemtl pear
v -0.0992 0.5950 0.0320
v -0.1034 1.0450 0.0296
v -0.1200 0.5950 0.0440
v -0.1200 1.0450 0.0392
v -0.1408 0.5950 0.0320
v -0.1366 1.0450 0.0296
v -0.1408 0.5950 0.0080
v -0.1366 1.0450 0.0104
v -0.1200 0.5950 -0.0040
v -0.1200 1.0450 0.0008
v -0.0992 0.5950 0.0080
v -0.1034 1.0450 0.0104
f 73 75 76 74
f 75 77 78 76
f 77 79 80 78
f 79 81 82 80
f 81 83 84 82
f 83 73 74 84
f 83 81 79 77 75 73
f 74 76 78 80 82 84
o side_stem_right
usemtl pear
v 0.1808 0.6100 -0.0080
v 0.1766 1.1100 -0.0104
v 0.1600 0.6100 0.0040
v 0.1600 1.1100 -0.0008
v 0.1392 0.6100 -0.0080
v 0.1434 1.1100 -0.0104
v 0.1392 0.6100 -0.0320
v 0.1434 1.1100 -0.0296
v 0.1600 0.6100 -0.0440
v 0.1600 1.1100 -0.0392
v 0.1808 0.6100 -0.0320
v 0.1766 1.1100 -0.0296
f 85 87 88 86
f 87 89 90 88
f 89 91 92 90
f 91 93 94 92
f 93 95 96 94
f 95 85 86 96
f 95 93 91 89 87 85
f 86 88 90 92 94 96
o leaf_front
usemtl pear
v 0.0000 0.9000 0.1200
v 0.0400 1.3800 0.4000
v -0.2400 1.1400 0.0400
v 0.2400 1.1400 0.2000
v 0.0168 1.1784 0.2376
f 97 99 101
f 99 98 101
f 98 100 101
f 100 97 101
o leaf_back
usemtl pear
v 0.0400 0.8900 -0.1200
v 0.0000 1.3500 -0.4000
v -0.1800 1.1200 -0.2000
v 0.2600 1.1200 -0.0400
v 0.0232 1.1568 -0.2376
f 102 104 106
f 104 103 106
f 103 105 106
f 105 102 106
o leaf_left_low
usemtl pear
v -0.2400 0.7400 0.0200
v -0.5600 1.1400 0.0700
v -0.4400 0.9400 -0.0800
v -0.0400 0.9400 0.1200
v -0.3744 0.9720 0.0410
f 107 109 111
f 109 108 111
f 108 110 111
f 110 107 111
o leaf_right_low
usemtl pear
v 0.2600 0.7500 0.0400
v 0.5800 1.1700 0.1200
v 0.0600 0.9600 -0.0600
v 0.4600 0.9600 0.1400
v 0.3944 0.9936 0.0736
f 112 114 116
f 114 113 116
f 113 115 116
f 115 112 116
o leaf_left_high
usemtl pear
v -0.1600 1.0500 -0.0400
v -0.4000 1.4300 -0.1600
v -0.3400 1.2400 -0.1200
v 0.0200 1.2400 0.0400
v -0.2608 1.2704 -0.0904
f 117 119 121
f 119 118 121
f 118 120 121
f 120 117 121
o leaf_right_high
usemtl pear
v 0.1800 1.1000 0.0000
v 0.4400 1.4600 0.1200
v 0.0000 1.2800 -0.0800
v 0.3600 1.2800 0.0800
v 0.2892 1.3088 0.0504
f 122 124 126
f 124 123 126
f 123 125 126
f 125 122 126
