# Low-poly cozy office asset generated by scripts/generate-cozy-office-assets.mjs
mtllib cozy-palette.mtl
o center_lift
usemtl sky
v 0.0739 0.0700 0.0306
v 0.0739 0.6500 0.0306
v 0.0306 0.0700 0.0739
v 0.0306 0.6500 0.0739
v -0.0306 0.0700 0.0739
v -0.0306 0.6500 0.0739
v -0.0739 0.0700 0.0306
v -0.0739 0.6500 0.0306
v -0.0739 0.0700 -0.0306
v -0.0739 0.6500 -0.0306
v -0.0306 0.0700 -0.0739
v -0.0306 0.6500 -0.0739
v 0.0306 0.0700 -0.0739
v 0.0306 0.6500 -0.0739
v 0.0739 0.0700 -0.0306
v 0.0739 0.6500 -0.0306
f 1 3 4 2
f 3 5 6 4
f 5 7 8 6
f 7 9 10 8
f 9 11 12 10
f 11 13 14 12
f 13 15 16 14
f 15 1 2 16
f 15 13 11 9 7 5 3 1
f 2 4 6 8 10 12 14 16
o rounded_seat_cushion
usemtl teal
v -0.4600 0.6100 -0.3900
v 0.4600 0.6100 -0.3900
v 0.4600 0.8300 -0.3900
v -0.4600 0.8300 -0.3900
v -0.4600 0.6100 0.4300
v 0.4600 0.6100 0.4300
v 0.4600 0.8300 0.4300
v -0.4600 0.8300 0.4300
f 17 18 19 20
f 21 24 23 22
f 17 21 22 18
f 18 22 23 19
f 19 23 24 20
f 20 24 21 17
o soft_back_cushion
usemtl teal
v -0.4900 0.7600 -0.4300
v 0.4900 0.7600 -0.4300
v 0.4900 1.5400 -0.4300
v -0.4900 1.5400 -0.4300
v -0.4900 0.7600 -0.2500
v 0.4900 0.7600 -0.2500
v 0.4900 1.5400 -0.2500
v -0.4900 1.5400 -0.2500
f 25 26 27 28
f 29 32 31 30
f 25 29 30 26
f 26 30 31 27
f 27 31 32 28
f 28 32 29 25
o left_arm
usemtl teal
v -0.6350 0.6900 -0.3000
v -0.5250 0.6900 -0.3000
v -0.5250 1.1100 -0.3000
v -0.6350 1.1100 -0.3000
v -0.6350 0.6900 0.3600
v -0.5250 0.6900 0.3600
v -0.5250 1.1100 0.3600
v -0.6350 1.1100 0.3600
f 33 34 35 36
f 37 40 39 38
f 33 37 38 34
f 34 38 39 35
f 35 39 40 36
f 36 40 37 33
o right_arm
usemtl teal
v 0.5250 0.6900 -0.3000
v 0.6350 0.6900 -0.3000
v 0.6350 1.1100 -0.3000
v 0.5250 1.1100 -0.3000
v 0.5250 0.6900 0.3600
v 0.6350 0.6900 0.3600
v 0.6350 1.1100 0.3600
v 0.5250 1.1100 0.3600
f 41 42 43 44
f 45 48 47 46
f 41 45 46 42
f 42 46 47 43
f 43 47 48 44
f 44 48 45 41
o left_arm_pad
usemtl teal
v -0.6600 1.0850 -0.2100
v -0.5000 1.0850 -0.2100
v -0.5000 1.1550 -0.2100
v -0.6600 1.1550 -0.2100
v -0.6600 1.0850 0.3700
v -0.5000 1.0850 0.3700
v -0.5000 1.1550 0.3700
v -0.6600 1.1550 0.3700
f 49 50 51 52
f 53 56 55 54
f 49 53 54 50
f 50 54 55 51
f 51 55 56 52
f 52 56 53 49
o right_arm_pad
usemtl teal
v 0.5000 1.0850 -0.2100
v 0.6600 1.0850 -0.2100
v 0.6600 1.1550 -0.2100
v 0.5000 1.1550 -0.2100
v 0.5000 1.0850 0.3700
v 0.6600 1.0850 0.3700
v 0.6600 1.1550 0.3700
v 0.5000 1.1550 0.3700
f 57 58 59 60
f 61 64 63 62
f 57 61 62 58
f 58 62 63 59
f 59 63 64 60
f 60 64 61 57
o hub
usemtl sky
v 0.1109 0.0800 0.0459
v 0.1109 0.1600 0.0459
v 0.0459 0.0800 0.1109
v 0.0459 0.1600 0.1109
v -0.0459 0.0800 0.1109
v -0.0459 0.1600 0.1109
v -0.1109 0.0800 0.0459
v -0.1109 0.1600 0.0459
v -0.1109 0.0800 -0.0459
v -0.1109 0.1600 -0.0459
v -0.0459 0.0800 -0.1109
v -0.0459 0.1600 -0.1109
v 0.0459 0.0800 -0.1109
v 0.0459 0.1600 -0.1109
v 0.1109 0.0800 -0.0459
v 0.1109 0.1600 -0.0459
f 65 67 68 66
f 67 69 70 68
f 69 71 72 70
f 71 73 74 72
f 73 75 76 74
f 75 77 78 76
f 77 79 80 78
f 79 65 66 80
f 79 77 75 73 71 69 67 65
f 66 68 70 72 74 76 78 80
o star_base_spoke_1
usemtl sky
v -0.0100 0.0900 -0.0700
v 0.5700 0.0900 -0.0700
v 0.5700 0.1700 -0.0700
v -0.0100 0.1700 -0.0700
v -0.0100 0.0900 0.0700
v 0.5700 0.0900 0.0700
v 0.5700 0.1700 0.0700
v -0.0100 0.1700 0.0700
f 81 82 83 84
f 85 88 87 86
f 81 85 86 82
f 82 86 87 83
f 83 87 88 84
f 84 88 85 81
o tiny_castor_1
usemtl sky
v 0.7031 0.1144 -0.0400
v 0.7031 0.1144 0.0400
v 0.6544 0.1631 -0.0400
v 0.6544 0.1631 0.0400
v 0.5856 0.1631 -0.0400
v 0.5856 0.1631 0.0400
v 0.5369 0.1144 -0.0400
v 0.5369 0.1144 0.0400
v 0.5369 0.0456 -0.0400
v 0.5369 0.0456 0.0400
v 0.5856 -0.0031 -0.0400
v 0.5856 -0.0031 0.0400
v 0.6544 -0.0031 -0.0400
v 0.6544 -0.0031 0.0400
v 0.7031 0.0456 -0.0400
v 0.7031 0.0456 0.0400
f 89 91 92 90
f 91 93 94 92
f 93 95 96 94
f 95 97 98 96
f 97 99 100 98
f 99 101 102 100
f 101 103 104 102
f 103 89 90 104
f 103 101 99 97 95 93 91 89
f 90 92 94 96 98 100 102 104
o star_base_spoke_2
usemtl sky
v 0.0165 0.0900 -0.0237
v 0.1565 0.0900 -0.0237
v 0.1565 0.1700 -0.0237
v 0.0165 0.1700 -0.0237
v 0.0165 0.0900 0.5563
v 0.1565 0.0900 0.5563
v 0.1565 0.1700 0.5563
v 0.0165 0.1700 0.5563
f 105 106 107 108
f 109 112 111 110
f 105 109 110 106
f 106 110 111 107
f 107 111 112 108
f 108 112 109 105
o tiny_castor_2
usemtl sky
v 0.1516 0.1631 0.6241
v 0.2316 0.1631 0.6241
v 0.1516 0.1144 0.6728
v 0.2316 0.1144 0.6728
v 0.1516 0.0456 0.6728
v 0.2316 0.0456 0.6728
v 0.1516 -0.0031 0.6241
v 0.2316 -0.0031 0.6241
v 0.1516 -0.0031 0.5552
v 0.2316 -0.0031 0.5552
v 0.1516 0.0456 0.5065
v 0.2316 0.0456 0.5065
v 0.1516 0.1144 0.5065
v 0.2316 0.1144 0.5065
v 0.1516 0.1631 0.5552
v 0.2316 0.1631 0.5552
f 113 115 116 114
f 115 117 118 116
f 117 119 120 118
f 119 121 122 120
f 121 123 124 122
f 123 125 126 124
f 125 127 128 126
f 127 113 114 128
f 127 125 123 121 119 117 115 113
f 114 116 118 120 122 124 126 128
o star_base_spoke_3
usemtl sky
v -0.5165 0.0900 0.0946
v 0.0635 0.0900 0.0946
v 0.0635 0.1700 0.0946
v -0.5165 0.1700 0.0946
v -0.5165 0.0900 0.2346
v 0.0635 0.0900 0.2346
v 0.0635 0.1700 0.2346
v -0.5165 0.1700 0.2346
f 129 130 131 132
f 133 136 135 134
f 129 133 134 130
f 130 134 135 131
f 131 135 136 132
f 132 136 133 129
o tiny_castor_3
usemtl sky
v -0.4184 0.1144 0.3244
v -0.4184 0.1144 0.4044
v -0.4671 0.1631 0.3244
v -0.4671 0.1631 0.4044
v -0.5360 0.1631 0.3244
v -0.5360 0.1631 0.4044
v -0.5847 0.1144 0.3244
v -0.5847 0.1144 0.4044
v -0.5847 0.0456 0.3244
v -0.5847 0.0456 0.4044
v -0.5360 -0.0031 0.3244
v -0.5360 -0.0031 0.4044
v -0.4671 -0.0031 0.3244
v -0.4671 -0.0031 0.4044
v -0.4184 0.0456 0.3244
v -0.4184 0.0456 0.4044
f 137 139 140 138
f 139 141 142 140
f 141 143 144 142
f 143 145 146 144
f 145 147 148 146
f 147 149 150 148
f 149 151 152 150
f 151 137 138 152
f 151 149 147 145 143 141 139 137
f 138 140 142 144 146 148 150 152
o star_base_spoke_4
usemtl sky
v -0.5165 0.0900 -0.2346
v 0.0635 0.0900 -0.2346
v 0.0635 0.1700 -0.2346
v -0.5165 0.1700 -0.2346
v -0.5165 0.0900 -0.0946
v 0.0635 0.0900 -0.0946
v 0.0635 0.1700 -0.0946
v -0.5165 0.1700 -0.0946
f 153 154 155 156
f 157 160 159 158
f 153 157 158 154
f 154 158 159 155
f 155 159 160 156
f 156 160 157 153
o tiny_castor_4
usemtl sky
v -0.4184 0.1144 -0.4044
v -0.4184 0.1144 -0.3244
v -0.4671 0.1631 -0.4044
v -0.4671 0.1631 -0.3244
v -0.5360 0.1631 -0.4044
v -0.5360 0.1631 -0.3244
v -0.5847 0.1144 -0.4044
v -0.5847 0.1144 -0.3244
v -0.5847 0.0456 -0.4044
v -0.5847 0.0456 -0.3244
v -0.5360 -0.0031 -0.4044
v -0.5360 -0.0031 -0.3244
v -0.4671 -0.0031 -0.4044
v -0.4671 -0.0031 -0.3244
v -0.4184 0.0456 -0.4044
v -0.4184 0.0456 -0.3244
f 161 163 164 162
f 163 165 166 164
f 165 167 168 166
f 167 169 170 168
f 169 171 172 170
f 171 173 174 172
f 173 175 176 174
f 175 161 162 176
f 175 173 171 169 167 165 163 161
f 162 164 166 168 170 172 174 176
o star_base_spoke_5
usemtl sky
v 0.0165 0.0900 -0.5563
v 0.1565 0.0900 -0.5563
v 0.1565 0.1700 -0.5563
v 0.0165 0.1700 -0.5563
v 0.0165 0.0900 0.0237
v 0.1565 0.0900 0.0237
v 0.1565 0.1700 0.0237
v 0.0165 0.1700 0.0237
f 177 178 179 180
f 181 184 183 182
f 177 181 182 178
f 178 182 183 179
f 179 183 184 180
f 180 184 181 177
o tiny_castor_5
usemtl sky
v 0.1516 0.1631 -0.5552
v 0.2316 0.1631 -0.5552
v 0.1516 0.1144 -0.5065
v 0.2316 0.1144 -0.5065
v 0.1516 0.0456 -0.5065
v 0.2316 0.0456 -0.5065
v 0.1516 -0.0031 -0.5552
v 0.2316 -0.0031 -0.5552
v 0.1516 -0.0031 -0.6241
v 0.2316 -0.0031 -0.6241
v 0.1516 0.0456 -0.6728
v 0.2316 0.0456 -0.6728
v 0.1516 0.1144 -0.6728
v 0.2316 0.1144 -0.6728
v 0.1516 0.1631 -0.6241
v 0.2316 0.1631 -0.6241
f 185 187 188 186
f 187 189 190 188
f 189 191 192 190
f 191 193 194 192
f 193 195 196 194
f 195 197 198 196
f 197 199 200 198
f 199 185 186 200
f 199 197 195 193 191 189 187 185
f 186 188 190 192 194 196 198 200
