# Low-poly cozy office asset generated by scripts/generate-cozy-office-assets.mjs
mtllib cozy-palette.mtl
o soft_whiteboard_surface
usemtl softGray
v -1.3250 0.4050 -0.0400
v 1.3250 0.4050 -0.0400
v 1.3250 1.7550 -0.0400
v -1.3250 1.7550 -0.0400
v -1.3250 0.4050 0.0400
v 1.3250 0.4050 0.0400
v 1.3250 1.7550 0.0400
v -1.3250 1.7550 0.0400
f 1 2 3 4
f 5 8 7 6
f 1 5 6 2
f 2 6 7 3
f 3 7 8 4
f 4 8 5 1
o top_wood_frame
usemtl terracotta
v -1.4100 1.7200 -0.0400
v 1.4100 1.7200 -0.0400
v 1.4100 1.8400 -0.0400
v -1.4100 1.8400 -0.0400
v -1.4100 1.7200 0.0800
v 1.4100 1.7200 0.0800
v 1.4100 1.8400 0.0800
v -1.4100 1.8400 0.0800
f 9 10 11 12
f 13 16 15 14
f 9 13 14 10
f 10 14 15 11
f 11 15 16 12
f 12 16 13 9
o bottom_wood_tray
usemtl sky
v -1.4500 0.3100 -0.0600
v 1.4500 0.3100 -0.0600
v 1.4500 0.4300 -0.0600
v -1.4500 0.4300 -0.0600
v -1.4500 0.3100 0.2200
v 1.4500 0.3100 0.2200
v 1.4500 0.4300 0.2200
v -1.4500 0.4300 0.2200
f 17 18 19 20
f 21 24 23 22
f 17 21 22 18
f 18 22 23 19
f 19 23 24 20
f 20 24 21 17
o left_wood_frame
usemtl terracotta
v -1.4900 0.3300 -0.0400
v -1.3700 0.3300 -0.0400
v -1.3700 1.8300 -0.0400
v -1.4900 1.8300 -0.0400
v -1.4900 0.3300 0.0800
v -1.3700 0.3300 0.0800
v -1.3700 1.8300 0.0800
v -1.4900 1.8300 0.0800
f 25 26 27 28
f 29 32 31 30
f 25 29 30 26
f 26 30 31 27
f 27 31 32 28
f 28 32 29 25
o right_wood_frame
usemtl terracotta
v 1.3700 0.3300 -0.0400
v 1.4900 0.3300 -0.0400
v 1.4900 1.8300 -0.0400
v 1.3700 1.8300 -0.0400
v 1.3700 0.3300 0.0800
v 1.4900 0.3300 0.0800
v 1.4900 1.8300 0.0800
v 1.3700 1.8300 0.0800
f 33 34 35 36
f 37 40 39 38
f 33 37 38 34
f 34 38 39 35
f 35 39 40 36
f 36 40 37 33
o eraser
usemtl plum
v -1.0400 0.4400 0.1800
v -0.6800 0.4400 0.1800
v -0.6800 0.5200 0.1800
v -1.0400 0.5200 0.1800
v -1.0400 0.4400 0.3000
v -0.6800 0.4400 0.3000
v -0.6800 0.5200 0.3000
v -1.0400 0.5200 0.3000
f 41 42 43 44
f 45 48 47 46
f 41 45 46 42
f 42 46 47 43
f 43 47 48 44
f 44 48 45 41
o marker_one
usemtl softGray
v -0.1100 0.5159 0.2507
v 0.3500 0.5159 0.2507
v -0.1100 0.5007 0.2659
v 0.3500 0.5007 0.2659
v -0.1100 0.4793 0.2659
v 0.3500 0.4793 0.2659
v -0.1100 0.4641 0.2507
v 0.3500 0.4641 0.2507
v -0.1100 0.4641 0.2293
v 0.3500 0.4641 0.2293
v -0.1100 0.4793 0.2141
v 0.3500 0.4793 0.2141
v -0.1100 0.5007 0.2141
v 0.3500 0.5007 0.2141
v -0.1100 0.5159 0.2293
v 0.3500 0.5159 0.2293
f 49 51 52 50
f 51 53 54 52
f 53 55 56 54
f 55 57 58 56
f 57 59 60 58
f 59 61 62 60
f 61 63 64 62
f 63 49 50 64
f 63 61 59 57 55 53 51 49
f 50 52 54 56 58 60 62 64
o marker_two
usemtl softGray
v 0.4500 0.5159 0.2507
v 0.8700 0.5159 0.2507
v 0.4500 0.5007 0.2659
v 0.8700 0.5007 0.2659
v 0.4500 0.4793 0.2659
v 0.8700 0.4793 0.2659
v 0.4500 0.4641 0.2507
v 0.8700 0.4641 0.2507
v 0.4500 0.4641 0.2293
v 0.8700 0.4641 0.2293
v 0.4500 0.4793 0.2141
v 0.8700 0.4793 0.2141
v 0.4500 0.5007 0.2141
v 0.8700 0.5007 0.2141
v 0.4500 0.5159 0.2293
v 0.8700 0.5159 0.2293
f 65 67 68 66
f 67 69 70 68
f 69 71 72 70
f 71 73 74 72
f 73 75 76 74
f 75 77 78 76
f 77 79 80 78
f 79 65 66 80
f 79 77 75 73 71 69 67 65
f 66 68 70 72 74 76 78 80
o sticky_note_left
usemtl pear
v -0.9600 1.2000 0.0675
v -0.6800 1.2000 0.0675
v -0.6800 1.4400 0.0675
v -0.9600 1.4400 0.0675
v -0.9600 1.2000 0.0925
v -0.6800 1.2000 0.0925
v -0.6800 1.4400 0.0925
v -0.9600 1.4400 0.0925
f 81 82 83 84
f 85 88 87 86
f 81 85 86 82
f 82 86 87 83
f 83 87 88 84
f 84 88 85 81
o sticky_note_right
usemtl pear
v 0.6400 1.3600 0.0675
v 0.8800 1.3600 0.0675
v 0.8800 1.6000 0.0675
v 0.6400 1.6000 0.0675
v 0.6400 1.3600 0.0925
v 0.8800 1.3600 0.0925
v 0.8800 1.6000 0.0925
v 0.6400 1.6000 0.0925
f 89 90 91 92
f 93 96 95 94
f 89 93 94 90
f 90 94 95 91
f 91 95 96 92
f 92 96 93 89
o doodle_line_one
usemtl softGray
v -0.5700 1.1625 0.0775
v 0.3300 1.1625 0.0775
v 0.3300 1.1975 0.0775
v -0.5700 1.1975 0.0775
v -0.5700 1.1625 0.1025
v 0.3300 1.1625 0.1025
v 0.3300 1.1975 0.1025
v -0.5700 1.1975 0.1025
f 97 98 99 100
f 101 104 103 102
f 97 101 102 98
f 98 102 103 99
f 99 103 104 100
f 100 104 101 97
o doodle_line_two
usemtl softGray
v -0.1600 1.0025 0.0775
v 0.5200 1.0025 0.0775
v 0.5200 1.0375 0.0775
v -0.1600 1.0375 0.0775
v -0.1600 1.0025 0.1025
v 0.5200 1.0025 0.1025
v 0.5200 1.0375 0.1025
v -0.1600 1.0375 0.1025
f 105 106 107 108
f 109 112 111 110
f 105 109 110 106
f 106 110 111 107
f 107 111 112 108
f 108 112 109 105
