# Cozy low-poly interpretation of Office Pack object: Air Vent
# Generated by scripts/generate-cozy-office-pack-assets.mjs
mtllib cozy-palette.mtl
o vent-frame
usemtl terracotta
v -0.5800 0.1800 -0.0400
v 0.5800 0.1800 -0.0400
v 0.5800 0.6600 -0.0400
v -0.5800 0.6600 -0.0400
v -0.5800 0.1800 0.0400
v 0.5800 0.1800 0.0400
v 0.5800 0.6600 0.0400
v -0.5800 0.6600 0.0400
f 1 2 3 4
f 5 8 7 6
f 1 5 6 2
f 2 6 7 3
f 3 7 8 4
f 4 8 5 1
o vent-slat-1
usemtl sky
v -0.4800 0.2425 0.0500
v 0.4800 0.2425 0.0500
v 0.4800 0.2775 0.0500
v -0.4800 0.2775 0.0500
v -0.4800 0.2425 0.0900
v 0.4800 0.2425 0.0900
v 0.4800 0.2775 0.0900
v -0.4800 0.2775 0.0900
f 9 10 11 12
f 13 16 15 14
f 9 13 14 10
f 10 14 15 11
f 11 15 16 12
f 12 16 13 9
o vent-slat-2
usemtl sky
v -0.4800 0.3225 0.0500
v 0.4800 0.3225 0.0500
v 0.4800 0.3575 0.0500
v -0.4800 0.3575 0.0500
v -0.4800 0.3225 0.0900
v 0.4800 0.3225 0.0900
v 0.4800 0.3575 0.0900
v -0.4800 0.3575 0.0900
f 17 18 19 20
f 21 24 23 22
f 17 21 22 18
f 18 22 23 19
f 19 23 24 20
f 20 24 21 17
o vent-slat-3
usemtl sky
v -0.4800 0.4025 0.0500
v 0.4800 0.4025 0.0500
v 0.4800 0.4375 0.0500
v -0.4800 0.4375 0.0500
v -0.4800 0.4025 0.0900
v 0.4800 0.4025 0.0900
v 0.4800 0.4375 0.0900
v -0.4800 0.4375 0.0900
f 25 26 27 28
f 29 32 31 30
f 25 29 30 26
f 26 30 31 27
f 27 31 32 28
f 28 32 29 25
o vent-slat-4
usemtl sky
v -0.4800 0.4825 0.0500
v 0.4800 0.4825 0.0500
v 0.4800 0.5175 0.0500
v -0.4800 0.5175 0.0500
v -0.4800 0.4825 0.0900
v 0.4800 0.4825 0.0900
v 0.4800 0.5175 0.0900
v -0.4800 0.5175 0.0900
f 33 34 35 36
f 37 40 39 38
f 33 37 38 34
f 34 38 39 35
f 35 39 40 36
f 36 40 37 33
o vent-slat-5
usemtl sky
v -0.4800 0.5625 0.0500
v 0.4800 0.5625 0.0500
v 0.4800 0.5975 0.0500
v -0.4800 0.5975 0.0500
v -0.4800 0.5625 0.0900
v 0.4800 0.5625 0.0900
v 0.4800 0.5975 0.0900
v -0.4800 0.5975 0.0900
f 41 42 43 44
f 45 48 47 46
f 41 45 46 42
f 42 46 47 43
f 43 47 48 44
f 44 48 45 41
