# Cozy low-poly interpretation of Office Pack object: Analog clock
# Generated by scripts/generate-cozy-office-pack-assets.mjs
mtllib cozy-palette.mtl
o faceted-clock-face
usemtl plum
v 0.5313 1.1424 -0.0400
v 0.5313 1.1424 0.0400
v 0.3889 1.3889 -0.0400
v 0.3889 1.3889 0.0400
v 0.1424 1.5313 -0.0400
v 0.1424 1.5313 0.0400
v -0.1424 1.5313 -0.0400
v -0.1424 1.5313 0.0400
v -0.3889 1.3889 -0.0400
v -0.3889 1.3889 0.0400
v -0.5313 1.1424 -0.0400
v -0.5313 1.1424 0.0400
v -0.5313 0.8576 -0.0400
v -0.5313 0.8576 0.0400
v -0.3889 0.6111 -0.0400
v -0.3889 0.6111 0.0400
v -0.1424 0.4687 -0.0400
v -0.1424 0.4687 0.0400
v 0.1424 0.4687 -0.0400
v 0.1424 0.4687 0.0400
v 0.3889 0.6111 -0.0400
v 0.3889 0.6111 0.0400
v 0.5313 0.8576 -0.0400
v 0.5313 0.8576 0.0400
f 1 3 4 2
f 3 5 6 4
f 5 7 8 6
f 7 9 10 8
f 9 11 12 10
f 11 13 14 12
f 13 15 16 14
f 15 17 18 16
f 17 19 20 18
f 19 21 22 20
f 21 23 24 22
f 23 1 2 24
f 23 21 19 17 15 13 11 9 7 5 3 1
f 2 4 6 8 10 12 14 16 18 20 22 24
o clock-center-pin
usemtl plum
v 0.0462 1.0191 0.0500
v 0.0462 1.0191 0.0900
v 0.0191 1.0462 0.0500
v 0.0191 1.0462 0.0900
v -0.0191 1.0462 0.0500
v -0.0191 1.0462 0.0900
v -0.0462 1.0191 0.0500
v -0.0462 1.0191 0.0900
v -0.0462 0.9809 0.0500
v -0.0462 0.9809 0.0900
v -0.0191 0.9538 0.0500
v -0.0191 0.9538 0.0900
v 0.0191 0.9538 0.0500
v 0.0191 0.9538 0.0900
v 0.0462 0.9809 0.0500
v 0.0462 0.9809 0.0900
f 25 27 28 26
f 27 29 30 28
f 29 31 32 30
f 31 33 34 32
f 33 35 36 34
f 35 37 38 36
f 37 39 40 38
f 39 25 26 40
f 39 37 35 33 31 29 27 25
f 26 28 30 32 34 36 38 40
o hour-hand
usemtl plum
v -0.0200 1.0825 0.0875
v 0.2600 1.0825 0.0875
v 0.2600 1.1175 0.0875
v -0.0200 1.1175 0.0875
v -0.0200 1.0825 0.1125
v 0.2600 1.0825 0.1125
v 0.2600 1.1175 0.1125
v -0.0200 1.1175 0.1125
f 41 42 43 44
f 45 48 47 46
f 41 45 46 42
f 42 46 47 43
f 43 47 48 44
f 44 48 45 41
o minute-hand
usemtl plum
v -0.0375 0.6800 0.0875
v -0.0025 0.6800 0.0875
v -0.0025 1.0400 0.0875
v -0.0375 1.0400 0.0875
v -0.0375 0.6800 0.1125
v -0.0025 0.6800 0.1125
v -0.0025 1.0400 0.1125
v -0.0375 1.0400 0.1125
f 49 50 51 52
f 53 56 55 54
f 49 53 54 50
f 50 54 55 51
f 51 55 56 52
f 52 56 53 49
