# Cozy low-poly interpretation of Office Pack object: Bathroom Sink
# Generated by scripts/generate-cozy-office-pack-assets.mjs
mtllib cozy-palette.mtl
o sink-vanity
usemtl plum
v -0.4600 0.0600 -0.3100
v 0.4600 0.0600 -0.3100
v 0.4600 0.7000 -0.3100
v -0.4600 0.7000 -0.3100
v -0.4600 0.0600 0.3100
v 0.4600 0.0600 0.3100
v 0.4600 0.7000 0.3100
v -0.4600 0.7000 0.3100
f 1 2 3 4
f 5 8 7 6
f 1 5 6 2
f 2 6 7 3
f 3 7 8 4
f 4 8 5 1
o soft-basin
usemtl plum
v 0.3614 0.6800 0.1174
v 0.3614 0.8400 0.1174
v 0.2234 0.6800 0.3074
v 0.2234 0.8400 0.3074
v 0.0000 0.6800 0.3800
v 0.0000 0.8400 0.3800
v -0.2234 0.6800 0.3074
v -0.2234 0.8400 0.3074
v -0.3614 0.6800 0.1174
v -0.3614 0.8400 0.1174
v -0.3614 0.6800 -0.1174
v -0.3614 0.8400 -0.1174
v -0.2234 0.6800 -0.3074
v -0.2234 0.8400 -0.3074
v -0.0000 0.6800 -0.3800
v -0.0000 0.8400 -0.3800
v 0.2234 0.6800 -0.3074
v 0.2234 0.8400 -0.3074
v 0.3614 0.6800 -0.1174
v 0.3614 0.8400 -0.1174
f 9 11 12 10
f 11 13 14 12
f 13 15 16 14
f 15 17 18 16
f 17 19 20 18
f 19 21 22 20
f 21 23 24 22
f 23 25 26 24
f 25 27 28 26
f 27 9 10 28
f 27 25 23 21 19 17 15 13 11 9
f 10 12 14 16 18 20 22 24 26 28
o curved-faucet
usemtl plum
v 0.0416 0.8400 -0.1028
v 0.0416 1.1200 -0.1028
v 0.0172 0.8400 -0.0784
v 0.0172 1.1200 -0.0784
v -0.0172 0.8400 -0.0784
v -0.0172 1.1200 -0.0784
v -0.0416 0.8400 -0.1028
v -0.0416 1.1200 -0.1028
v -0.0416 0.8400 -0.1372
v -0.0416 1.1200 -0.1372
v -0.0172 0.8400 -0.1616
v -0.0172 1.1200 -0.1616
v 0.0172 0.8400 -0.1616
v 0.0172 1.1200 -0.1616
v 0.0416 0.8400 -0.1372
v 0.0416 1.1200 -0.1372
f 29 31 32 30
f 31 33 34 32
f 33 35 36 34
f 35 37 38 36
f 37 39 40 38
f 39 41 42 40
f 41 43 44 42
f 43 29 30 44
f 43 41 39 37 35 33 31 29
f 30 32 34 36 38 40 42 44
