# Cozy low-poly interpretation of Office Pack object: Binder
# Generated by scripts/generate-cozy-office-pack-assets.mjs
mtllib cozy-palette.mtl
o faceted-bin-body
usemtl indigo
v 0.3994 0.0000 0.1298
v 0.4554 0.9600 0.1480
v 0.2469 0.0000 0.3398
v 0.2814 0.9600 0.3874
v 0.0000 0.0000 0.4200
v 0.0000 0.9600 0.4788
v -0.2469 0.0000 0.3398
v -0.2814 0.9600 0.3874
v -0.3994 0.0000 0.1298
v -0.4554 0.9600 0.1480
v -0.3994 0.0000 -0.1298
v -0.4554 0.9600 -0.1480
v -0.2469 0.0000 -0.3398
v -0.2814 0.9600 -0.3874
v -0.0000 0.0000 -0.4200
v -0.0000 0.9600 -0.4788
v 0.2469 0.0000 -0.3398
v 0.2814 0.9600 -0.3874
v 0.3994 0.0000 -0.1298
v 0.4554 0.9600 -0.1480
f 1 3 4 2
f 3 5 6 4
f 5 7 8 6
f 7 9 10 8
f 9 11 12 10
f 11 13 14 12
f 13 15 16 14
f 15 17 18 16
f 17 19 20 18
f 19 1 2 20
f 19 17 15 13 11 9 7 5 3 1
f 2 4 6 8 10 12 14 16 18 20
o open-bin-rim
usemtl indigo
v 0.4565 0.9400 0.1483
v 0.4565 1.0200 0.1483
v 0.2821 0.9400 0.3883
v 0.2821 1.0200 0.3883
v 0.0000 0.9400 0.4800
v 0.0000 1.0200 0.4800
v -0.2821 0.9400 0.3883
v -0.2821 1.0200 0.3883
v -0.4565 0.9400 0.1483
v -0.4565 1.0200 0.1483
v -0.4565 0.9400 -0.1483
v -0.4565 1.0200 -0.1483
v -0.2821 0.9400 -0.3883
v -0.2821 1.0200 -0.3883
v -0.0000 0.9400 -0.4800
v -0.0000 1.0200 -0.4800
v 0.2821 0.9400 -0.3883
v 0.2821 1.0200 -0.3883
v 0.4565 0.9400 -0.1483
v 0.4565 1.0200 -0.1483
f 21 23 24 22
f 23 25 26 24
f 25 27 28 26
f 27 29 30 28
f 29 31 32 30
f 31 33 34 32
f 33 35 36 34
f 35 37 38 36
f 37 39 40 38
f 39 21 22 40
f 39 37 35 33 31 29 27 25 23 21
f 22 24 26 28 30 32 34 36 38 40
