# Cozy low-poly interpretation of Office Pack object: Blank Picture Frame
# Generated by scripts/generate-cozy-office-pack-assets.mjs
mtllib cozy-palette.mtl
o warm-picture-frame
usemtl terracotta
v -0.5600 0.5700 -0.0400
v 0.5600 0.5700 -0.0400
v 0.5600 1.4300 -0.0400
v -0.5600 1.4300 -0.0400
v -0.5600 0.5700 0.0400
v 0.5600 0.5700 0.0400
v 0.5600 1.4300 0.0400
v -0.5600 1.4300 0.0400
f 1 2 3 4
f 5 8 7 6
f 1 5 6 2
f 2 6 7 3
f 3 7 8 4
f 4 8 5 1
o inset-print
usemtl softGray
v -0.4200 0.7100 0.0425
v 0.4200 0.7100 0.0425
v 0.4200 1.2900 0.0425
v -0.4200 1.2900 0.0425
v -0.4200 0.7100 0.0775
v 0.4200 0.7100 0.0775
v 0.4200 1.2900 0.0775
v -0.4200 1.2900 0.0775
f 9 10 11 12
f 13 16 15 14
f 9 13 14 10
f 10 14 15 11
f 11 15 16 12
f 12 16 13 9
o tiny-mountain-print
usemtl softGray
v -0.3500 0.8000 0.0700
v 0.0300 0.8000 0.0700
v 0.0300 0.8000 0.1100
v -0.3500 0.8000 0.1100
v -0.1600 1.1000 0.0900
f 17 18 19 20
f 17 21 18
f 18 21 19
f 19 21 20
f 20 21 17
o little-sun-print
usemtl softGray
v 0.3539 1.1706 0.0775
v 0.3539 1.1706 0.1025
v 0.3106 1.2139 0.0775
v 0.3106 1.2139 0.1025
v 0.2494 1.2139 0.0775
v 0.2494 1.2139 0.1025
v 0.2061 1.1706 0.0775
v 0.2061 1.1706 0.1025
v 0.2061 1.1094 0.0775
v 0.2061 1.1094 0.1025
v 0.2494 1.0661 0.0775
v 0.2494 1.0661 0.1025
v 0.3106 1.0661 0.0775
v 0.3106 1.0661 0.1025
v 0.3539 1.1094 0.0775
v 0.3539 1.1094 0.1025
f 22 24 25 23
f 24 26 27 25
f 26 28 29 27
f 28 30 31 29
f 30 32 33 31
f 32 34 35 33
f 34 36 37 35
f 36 22 23 37
f 36 34 32 30 28 26 24 22
f 23 25 27 29 31 33 35 37
