# Cozy low-poly interpretation of Office Pack object: Book Stack
# Generated by scripts/generate-cozy-office-pack-assets.mjs
mtllib cozy-palette.mtl
o cozy-generic-base
usemtl plum
v -0.3600 0.0000 -0.3600
v 0.3600 0.0000 -0.3600
v 0.3600 0.6000 -0.3600
v -0.3600 0.6000 -0.3600
v -0.3600 0.0000 0.3600
v 0.3600 0.0000 0.3600
v 0.3600 0.6000 0.3600
v -0.3600 0.6000 0.3600
f 1 2 3 4
f 5 8 7 6
f 1 5 6 2
f 2 6 7 3
f 3 7 8 4
f 4 8 5 1
o cozy-generic-top
usemtl plum
v -0.2900 0.5800 -0.2900
v 0.2900 0.5800 -0.2900
v 0.2900 0.5800 0.2900
v -0.2900 0.5800 0.2900
v 0.0000 1.1400 0.0000
f 9 10 11 12
f 9 13 10
f 10 13 11
f 11 13 12
f 12 13 9
