# Cozy low-poly interpretation of Office Pack object: Briefcase
# Generated by scripts/generate-cozy-office-pack-assets.mjs
mtllib cozy-palette.mtl
o soft-briefcase-body
usemtl coral
v -0.4600 0.0800 -0.1100
v 0.4600 0.0800 -0.1100
v 0.4600 0.6200 -0.1100
v -0.4600 0.6200 -0.1100
v -0.4600 0.0800 0.1100
v 0.4600 0.0800 0.1100
v 0.4600 0.6200 0.1100
v -0.4600 0.6200 0.1100
f 1 2 3 4
f 5 8 7 6
f 1 5 6 2
f 2 6 7 3
f 3 7 8 4
f 4 8 5 1
o briefcase-handle
usemtl coral
v -0.2200 0.7939 0.0306
v 0.2200 0.7939 0.0306
v -0.2200 0.7506 0.0739
v 0.2200 0.7506 0.0739
v -0.2200 0.6894 0.0739
v 0.2200 0.6894 0.0739
v -0.2200 0.6461 0.0306
v 0.2200 0.6461 0.0306
v -0.2200 0.6461 -0.0306
v 0.2200 0.6461 -0.0306
v -0.2200 0.6894 -0.0739
v 0.2200 0.6894 -0.0739
v -0.2200 0.7506 -0.0739
v 0.2200 0.7506 -0.0739
v -0.2200 0.7939 -0.0306
v 0.2200 0.7939 -0.0306
f 9 11 12 10
f 11 13 14 12
f 13 15 16 14
f 15 17 18 16
f 17 19 20 18
f 19 21 22 20
f 21 23 24 22
f 23 9 10 24
f 23 21 19 17 15 13 11 9
f 10 12 14 16 18 20 22 24
