# Cozy low-poly interpretation of Office Pack object: Cabinet
# Generated by scripts/generate-cozy-office-pack-assets.mjs
mtllib cozy-palette.mtl
o storage-body
usemtl plum
v -0.5900 0.0000 -0.2400
v 0.5900 0.0000 -0.2400
v 0.5900 1.7000 -0.2400
v -0.5900 1.7000 -0.2400
v -0.5900 0.0000 0.2400
v 0.5900 0.0000 0.2400
v 0.5900 1.7000 0.2400
v -0.5900 1.7000 0.2400
f 1 2 3 4
f 5 8 7 6
f 1 5 6 2
f 2 6 7 3
f 3 7 8 4
f 4 8 5 1
o soft-drawer-0-42
usemtl terracotta
v -0.4600 0.3000 0.2300
v 0.4600 0.3000 0.2300
v 0.4600 0.5400 0.2300
v -0.4600 0.5400 0.2300
v -0.4600 0.3000 0.3100
v 0.4600 0.3000 0.3100
v 0.4600 0.5400 0.3100
v -0.4600 0.5400 0.3100
f 9 10 11 12
f 13 16 15 14
f 9 13 14 10
f 10 14 15 11
f 11 15 16 12
f 12 16 13 9
o drawer-pull-0-42
usemtl terracotta
v -0.2100 0.4000 0.3200
v 0.2100 0.4000 0.3200
v 0.2100 0.4400 0.3200
v -0.2100 0.4400 0.3200
v -0.2100 0.4000 0.3600
v 0.2100 0.4000 0.3600
v 0.2100 0.4400 0.3600
v -0.2100 0.4400 0.3600
f 17 18 19 20
f 21 24 23 22
f 17 21 22 18
f 18 22 23 19
f 19 23 24 20
f 20 24 21 17
o soft-drawer-0-78
usemtl terracotta
v -0.4600 0.6600 0.2300
v 0.4600 0.6600 0.2300
v 0.4600 0.9000 0.2300
v -0.4600 0.9000 0.2300
v -0.4600 0.6600 0.3100
v 0.4600 0.6600 0.3100
v 0.4600 0.9000 0.3100
v -0.4600 0.9000 0.3100
f 25 26 27 28
f 29 32 31 30
f 25 29 30 26
f 26 30 31 27
f 27 31 32 28
f 28 32 29 25
o drawer-pull-0-78
usemtl terracotta
v -0.2100 0.7600 0.3200
v 0.2100 0.7600 0.3200
v 0.2100 0.8000 0.3200
v -0.2100 0.8000 0.3200
v -0.2100 0.7600 0.3600
v 0.2100 0.7600 0.3600
v 0.2100 0.8000 0.3600
v -0.2100 0.8000 0.3600
f 33 34 35 36
f 37 40 39 38
f 33 37 38 34
f 34 38 39 35
f 35 39 40 36
f 36 40 37 33
o soft-drawer-1-14
usemtl terracotta
v -0.4600 1.0200 0.2300
v 0.4600 1.0200 0.2300
v 0.4600 1.2600 0.2300
v -0.4600 1.2600 0.2300
v -0.4600 1.0200 0.3100
v 0.4600 1.0200 0.3100
v 0.4600 1.2600 0.3100
v -0.4600 1.2600 0.3100
f 41 42 43 44
f 45 48 47 46
f 41 45 46 42
f 42 46 47 43
f 43 47 48 44
f 44 48 45 41
o drawer-pull-1-14
usemtl terracotta
v -0.2100 1.1200 0.3200
v 0.2100 1.1200 0.3200
v 0.2100 1.1600 0.3200
v -0.2100 1.1600 0.3200
v -0.2100 1.1200 0.3600
v 0.2100 1.1200 0.3600
v 0.2100 1.1600 0.3600
v -0.2100 1.1600 0.3600
f 49 50 51 52
f 53 56 55 54
f 49 53 54 50
f 50 54 55 51
f 51 55 56 52
f 52 56 53 49
