# Cozy low-poly interpretation of Office Pack object: Calendar
# Generated by scripts/generate-cozy-office-pack-assets.mjs
mtllib cozy-palette.mtl
o calendar-back
usemtl softGray
v -0.4400 0.0950 -0.0300
v 0.4400 0.0950 -0.0300
v 0.4400 1.1450 -0.0300
v -0.4400 1.1450 -0.0300
v -0.4400 0.0950 0.0300
v 0.4400 0.0950 0.0300
v 0.4400 1.1450 0.0300
v -0.4400 1.1450 0.0300
f 1 2 3 4
f 5 8 7 6
f 1 5 6 2
f 2 6 7 3
f 3 7 8 4
f 4 8 5 1
o calendar-header
usemtl pear
v -0.4400 0.9300 0.0300
v 0.4400 0.9300 0.0300
v 0.4400 1.1500 0.0300
v -0.4400 1.1500 0.0300
v -0.4400 0.9300 0.0700
v 0.4400 0.9300 0.0700
v 0.4400 1.1500 0.0700
v -0.4400 1.1500 0.0700
f 9 10 11 12
f 13 16 15 14
f 9 13 14 10
f 10 14 15 11
f 11 15 16 12
f 12 16 13 9
o date-square-0-0
usemtl plum
v -0.3600 0.3925 0.0675
v -0.2800 0.3925 0.0675
v -0.2800 0.4475 0.0675
v -0.3600 0.4475 0.0675
v -0.3600 0.3925 0.0925
v -0.2800 0.3925 0.0925
v -0.2800 0.4475 0.0925
v -0.3600 0.4475 0.0925
f 17 18 19 20
f 21 24 23 22
f 17 21 22 18
f 18 22 23 19
f 19 23 24 20
f 20 24 21 17
o date-square-0-1
usemtl plum
v -0.2000 0.3925 0.0675
v -0.1200 0.3925 0.0675
v -0.1200 0.4475 0.0675
v -0.2000 0.4475 0.0675
v -0.2000 0.3925 0.0925
v -0.1200 0.3925 0.0925
v -0.1200 0.4475 0.0925
v -0.2000 0.4475 0.0925
f 25 26 27 28
f 29 32 31 30
f 25 29 30 26
f 26 30 31 27
f 27 31 32 28
f 28 32 29 25
o date-square-0-2
usemtl plum
v -0.0400 0.3925 0.0675
v 0.0400 0.3925 0.0675
v 0.0400 0.4475 0.0675
v -0.0400 0.4475 0.0675
v -0.0400 0.3925 0.0925
v 0.0400 0.3925 0.0925
v 0.0400 0.4475 0.0925
v -0.0400 0.4475 0.0925
f 33 34 35 36
f 37 40 39 38
f 33 37 38 34
f 34 38 39 35
f 35 39 40 36
f 36 40 37 33
o date-square-0-3
usemtl plum
v 0.1200 0.3925 0.0675
v 0.2000 0.3925 0.0675
v 0.2000 0.4475 0.0675
v 0.1200 0.4475 0.0675
v 0.1200 0.3925 0.0925
v 0.2000 0.3925 0.0925
v 0.2000 0.4475 0.0925
v 0.1200 0.4475 0.0925
f 41 42 43 44
f 45 48 47 46
f 41 45 46 42
f 42 46 47 43
f 43 47 48 44
f 44 48 45 41
o date-square-0-4
usemtl plum
v 0.2800 0.3925 0.0675
v 0.3600 0.3925 0.0675
v 0.3600 0.4475 0.0675
v 0.2800 0.4475 0.0675
v 0.2800 0.3925 0.0925
v 0.3600 0.3925 0.0925
v 0.3600 0.4475 0.0925
v 0.2800 0.4475 0.0925
f 49 50 51 52
f 53 56 55 54
f 49 53 54 50
f 50 54 55 51
f 51 55 56 52
f 52 56 53 49
o date-square-1-0
usemtl plum
v -0.3600 0.5225 0.0675
v -0.2800 0.5225 0.0675
v -0.2800 0.5775 0.0675
v -0.3600 0.5775 0.0675
v -0.3600 0.5225 0.0925
v -0.2800 0.5225 0.0925
v -0.2800 0.5775 0.0925
v -0.3600 0.5775 0.0925
f 57 58 59 60
f 61 64 63 62
f 57 61 62 58
f 58 62 63 59
f 59 63 64 60
f 60 64 61 57
o date-square-1-1
usemtl plum
v -0.2000 0.5225 0.0675
v -0.1200 0.5225 0.0675
v -0.1200 0.5775 0.0675
v -0.2000 0.5775 0.0675
v -0.2000 0.5225 0.0925
v -0.1200 0.5225 0.0925
v -0.1200 0.5775 0.0925
v -0.2000 0.5775 0.0925
f 65 66 67 68
f 69 72 71 70
f 65 69 70 66
f 66 70 71 67
f 67 71 72 68
f 68 72 69 65
o date-square-1-2
usemtl plum
v -0.0400 0.5225 0.0675
v 0.0400 0.5225 0.0675
v 0.0400 0.5775 0.0675
v -0.0400 0.5775 0.0675
v -0.0400 0.5225 0.0925
v 0.0400 0.5225 0.0925
v 0.0400 0.5775 0.0925
v -0.0400 0.5775 0.0925
f 73 74 75 76
f 77 80 79 78
f 73 77 78 74
f 74 78 79 75
f 75 79 80 76
f 76 80 77 73
o date-square-1-3
usemtl plum
v 0.1200 0.5225 0.0675
v 0.2000 0.5225 0.0675
v 0.2000 0.5775 0.0675
v 0.1200 0.5775 0.0675
v 0.1200 0.5225 0.0925
v 0.2000 0.5225 0.0925
v 0.2000 0.5775 0.0925
v 0.1200 0.5775 0.0925
f 81 82 83 84
f 85 88 87 86
f 81 85 86 82
f 82 86 87 83
f 83 87 88 84
f 84 88 85 81
o date-square-1-4
usemtl plum
v 0.2800 0.5225 0.0675
v 0.3600 0.5225 0.0675
v 0.3600 0.5775 0.0675
v 0.2800 0.5775 0.0675
v 0.2800 0.5225 0.0925
v 0.3600 0.5225 0.0925
v 0.3600 0.5775 0.0925
v 0.2800 0.5775 0.0925
f 89 90 91 92
f 93 96 95 94
f 89 93 94 90
f 90 94 95 91
f 91 95 96 92
f 92 96 93 89
o date-square-2-0
usemtl plum
v -0.3600 0.6525 0.0675
v -0.2800 0.6525 0.0675
v -0.2800 0.7075 0.0675
v -0.3600 0.7075 0.0675
v -0.3600 0.6525 0.0925
v -0.2800 0.6525 0.0925
v -0.2800 0.7075 0.0925
v -0.3600 0.7075 0.0925
f 97 98 99 100
f 101 104 103 102
f 97 101 102 98
f 98 102 103 99
f 99 103 104 100
f 100 104 101 97
o date-square-2-1
usemtl plum
v -0.2000 0.6525 0.0675
v -0.1200 0.6525 0.0675
v -0.1200 0.7075 0.0675
v -0.2000 0.7075 0.0675
v -0.2000 0.6525 0.0925
v -0.1200 0.6525 0.0925
v -0.1200 0.7075 0.0925
v -0.2000 0.7075 0.0925
f 105 106 107 108
f 109 112 111 110
f 105 109 110 106
f 106 110 111 107
f 107 111 112 108
f 108 112 109 105
o date-square-2-2
usemtl plum
v -0.0400 0.6525 0.0675
v 0.0400 0.6525 0.0675
v 0.0400 0.7075 0.0675
v -0.0400 0.7075 0.0675
v -0.0400 0.6525 0.0925
v 0.0400 0.6525 0.0925
v 0.0400 0.7075 0.0925
v -0.0400 0.7075 0.0925
f 113 114 115 116
f 117 120 119 118
f 113 117 118 114
f 114 118 119 115
f 115 119 120 116
f 116 120 117 113
o date-square-2-3
usemtl plum
v 0.1200 0.6525 0.0675
v 0.2000 0.6525 0.0675
v 0.2000 0.7075 0.0675
v 0.1200 0.7075 0.0675
v 0.1200 0.6525 0.0925
v 0.2000 0.6525 0.0925
v 0.2000 0.7075 0.0925
v 0.1200 0.7075 0.0925
f 121 122 123 124
f 125 128 127 126
f 121 125 126 122
f 122 126 127 123
f 123 127 128 124
f 124 128 125 121
o date-square-2-4
usemtl plum
v 0.2800 0.6525 0.0675
v 0.3600 0.6525 0.0675
v 0.3600 0.7075 0.0675
v 0.2800 0.7075 0.0675
v 0.2800 0.6525 0.0925
v 0.3600 0.6525 0.0925
v 0.3600 0.7075 0.0925
v 0.2800 0.7075 0.0925
f 129 130 131 132
f 133 136 135 134
f 129 133 134 130
f 130 134 135 131
f 131 135 136 132
f 132 136 133 129
o date-square-3-0
usemtl plum
v -0.3600 0.7825 0.0675
v -0.2800 0.7825 0.0675
v -0.2800 0.8375 0.0675
v -0.3600 0.8375 0.0675
v -0.3600 0.7825 0.0925
v -0.2800 0.7825 0.0925
v -0.2800 0.8375 0.0925
v -0.3600 0.8375 0.0925
f 137 138 139 140
f 141 144 143 142
f 137 141 142 138
f 138 142 143 139
f 139 143 144 140
f 140 144 141 137
o date-square-3-1
usemtl plum
v -0.2000 0.7825 0.0675
v -0.1200 0.7825 0.0675
v -0.1200 0.8375 0.0675
v -0.2000 0.8375 0.0675
v -0.2000 0.7825 0.0925
v -0.1200 0.7825 0.0925
v -0.1200 0.8375 0.0925
v -0.2000 0.8375 0.0925
f 145 146 147 148
f 149 152 151 150
f 145 149 150 146
f 146 150 151 147
f 147 151 152 148
f 148 152 149 145
o date-square-3-2
usemtl plum
v -0.0400 0.7825 0.0675
v 0.0400 0.7825 0.0675
v 0.0400 0.8375 0.0675
v -0.0400 0.8375 0.0675
v -0.0400 0.7825 0.0925
v 0.0400 0.7825 0.0925
v 0.0400 0.8375 0.0925
v -0.0400 0.8375 0.0925
f 153 154 155 156
f 157 160 159 158
f 153 157 158 154
f 154 158 159 155
f 155 159 160 156
f 156 160 157 153
o date-square-3-3
usemtl plum
v 0.1200 0.7825 0.0675
v 0.2000 0.7825 0.0675
v 0.2000 0.8375 0.0675
v 0.1200 0.8375 0.0675
v 0.1200 0.7825 0.0925
v 0.2000 0.7825 0.0925
v 0.2000 0.8375 0.0925
v 0.1200 0.8375 0.0925
f 161 162 163 164
f 165 168 167 166
f 161 165 166 162
f 162 166 167 163
f 163 167 168 164
f 164 168 165 161
o date-square-3-4
usemtl plum
v 0.2800 0.7825 0.0675
v 0.3600 0.7825 0.0675
v 0.3600 0.8375 0.0675
v 0.2800 0.8375 0.0675
v 0.2800 0.7825 0.0925
v 0.3600 0.7825 0.0925
v 0.3600 0.8375 0.0925
v 0.2800 0.8375 0.0925
f 169 170 171 172
f 173 176 175 174
f 169 173 174 170
f 170 174 175 171
f 171 175 176 172
f 172 176 173 169
