# Cozy low-poly interpretation of Office Pack object: CCTV Camera
# Generated by scripts/generate-cozy-office-pack-assets.mjs
mtllib cozy-palette.mtl
o wall-camera-body
usemtl charcoal
v -0.2600 0.5700 -0.1400
v 0.2600 0.5700 -0.1400
v 0.2600 0.8700 -0.1400
v -0.2600 0.8700 -0.1400
v -0.2600 0.5700 0.1400
v 0.2600 0.5700 0.1400
v 0.2600 0.8700 0.1400
v -0.2600 0.8700 0.1400
f 1 2 3 4
f 5 8 7 6
f 1 5 6 2
f 2 6 7 3
f 3 7 8 4
f 4 8 5 1
o camera-lens
usemtl midnight
v 0.1046 0.7540 0.1500
v 0.1046 0.7540 0.2100
v 0.0647 0.8090 0.1500
v 0.0647 0.8090 0.2100
v 0.0000 0.8300 0.1500
v 0.0000 0.8300 0.2100
v -0.0647 0.8090 0.1500
v -0.0647 0.8090 0.2100
v -0.1046 0.7540 0.1500
v -0.1046 0.7540 0.2100
v -0.1046 0.6860 0.1500
v -0.1046 0.6860 0.2100
v -0.0647 0.6310 0.1500
v -0.0647 0.6310 0.2100
v -0.0000 0.6100 0.1500
v -0.0000 0.6100 0.2100
v 0.0647 0.6310 0.1500
v 0.0647 0.6310 0.2100
v 0.1046 0.6860 0.1500
v 0.1046 0.6860 0.2100
f 9 11 12 10
f 11 13 14 12
f 13 15 16 14
f 15 17 18 16
f 17 19 20 18
f 19 21 22 20
f 21 23 24 22
f 23 25 26 24
f 25 27 28 26
f 27 9 10 28
f 27 25 23 21 19 17 15 13 11 9
f 10 12 14 16 18 20 22 24 26 28
o wall-mount-plate
usemtl plum
v -0.1900 0.5300 -0.2800
v 0.1900 0.5300 -0.2800
v 0.1900 0.9100 -0.2800
v -0.1900 0.9100 -0.2800
v -0.1900 0.5300 -0.2000
v 0.1900 0.5300 -0.2000
v 0.1900 0.9100 -0.2000
v -0.1900 0.9100 -0.2000
f 29 30 31 32
f 33 36 35 34
f 29 33 34 30
f 30 34 35 31
f 31 35 36 32
f 32 36 33 29
o stubby-mount-arm
usemtl plum
v 0.0416 0.7372 -0.2400
v 0.0416 0.7372 0.0400
v 0.0172 0.7616 -0.2400
v 0.0172 0.7616 0.0400
v -0.0172 0.7616 -0.2400
v -0.0172 0.7616 0.0400
v -0.0416 0.7372 -0.2400
v -0.0416 0.7372 0.0400
v -0.0416 0.7028 -0.2400
v -0.0416 0.7028 0.0400
v -0.0172 0.6784 -0.2400
v -0.0172 0.6784 0.0400
v 0.0172 0.6784 -0.2400
v 0.0172 0.6784 0.0400
v 0.0416 0.7028 -0.2400
v 0.0416 0.7028 0.0400
f 37 39 40 38
f 39 41 42 40
f 41 43 44 42
f 43 45 46 44
f 45 47 48 46
f 47 49 50 48
f 49 51 52 50
f 51 37 38 52
f 51 49 47 45 43 41 39 37
f 38 40 42 44 46 48 50 52
