# Cozy low-poly interpretation of Office Pack object: Ceiling Light
# Generated by scripts/generate-cozy-office-pack-assets.mjs
mtllib cozy-palette.mtl
o ceiling-cap
usemtl plum
v 0.2663 1.7000 0.0865
v 0.2663 1.8000 0.0865
v 0.1646 1.7000 0.2265
v 0.1646 1.8000 0.2265
v 0.0000 1.7000 0.2800
v 0.0000 1.8000 0.2800
v -0.1646 1.7000 0.2265
v -0.1646 1.8000 0.2265
v -0.2663 1.7000 0.0865
v -0.2663 1.8000 0.0865
v -0.2663 1.7000 -0.0865
v -0.2663 1.8000 -0.0865
v -0.1646 1.7000 -0.2265
v -0.1646 1.8000 -0.2265
v -0.0000 1.7000 -0.2800
v -0.0000 1.8000 -0.2800
v 0.1646 1.7000 -0.2265
v 0.1646 1.8000 -0.2265
v 0.2663 1.7000 -0.0865
v 0.2663 1.8000 -0.0865
f 1 3 4 2
f 3 5 6 4
f 5 7 8 6
f 7 9 10 8
f 9 11 12 10
f 11 13 14 12
f 13 15 16 14
f 15 17 18 16
f 17 19 20 18
f 19 1 2 20
f 19 17 15 13 11 9 7 5 3 1
f 2 4 6 8 10 12 14 16 18 20
o warm-hanging-shade
usemtl blush
v 0.3994 1.2100 0.1298
v 0.2876 1.6300 0.0934
v 0.2469 1.2100 0.3398
v 0.1777 1.6300 0.2446
v 0.0000 1.2100 0.4200
v 0.0000 1.6300 0.3024
v -0.2469 1.2100 0.3398
v -0.1777 1.6300 0.2446
v -0.3994 1.2100 0.1298
v -0.2876 1.6300 0.0934
v -0.3994 1.2100 -0.1298
v -0.2876 1.6300 -0.0934
v -0.2469 1.2100 -0.3398
v -0.1777 1.6300 -0.2446
v -0.0000 1.2100 -0.4200
v -0.0000 1.6300 -0.3024
v 0.2469 1.2100 -0.3398
v 0.1777 1.6300 -0.2446
v 0.3994 1.2100 -0.1298
v 0.2876 1.6300 -0.0934
f 21 23 24 22
f 23 25 26 24
f 25 27 28 26
f 27 29 30 28
f 29 31 32 30
f 31 33 34 32
f 33 35 36 34
f 35 37 38 36
f 37 39 40 38
f 39 21 22 40
f 39 37 35 33 31 29 27 25 23 21
f 22 24 26 28 30 32 34 36 38 40
