# Cozy low-poly interpretation of Office Pack object: Ceiling Fan
# Generated by scripts/generate-cozy-office-pack-assets.mjs
mtllib cozy-palette.mtl
o ceiling-fan-hub
usemtl plum
v 0.1522 1.1700 0.0494
v 0.1522 1.3300 0.0494
v 0.0940 1.1700 0.1294
v 0.0940 1.3300 0.1294
v 0.0000 1.1700 0.1600
v 0.0000 1.3300 0.1600
v -0.0940 1.1700 0.1294
v -0.0940 1.3300 0.1294
v -0.1522 1.1700 0.0494
v -0.1522 1.3300 0.0494
v -0.1522 1.1700 -0.0494
v -0.1522 1.3300 -0.0494
v -0.0940 1.1700 -0.1294
v -0.0940 1.3300 -0.1294
v -0.0000 1.1700 -0.1600
v -0.0000 1.3300 -0.1600
v 0.0940 1.1700 -0.1294
v 0.0940 1.3300 -0.1294
v 0.1522 1.1700 -0.0494
v 0.1522 1.3300 -0.0494
f 1 3 4 2
f 3 5 6 4
f 5 7 8 6
f 7 9 10 8
f 9 11 12 10
f 11 13 14 12
f 13 15 16 14
f 15 17 18 16
f 17 19 20 18
f 19 1 2 20
f 19 17 15 13 11 9 7 5 3 1
f 2 4 6 8 10 12 14 16 18 20
o soft-blade-1
usemtl plum
v 0.0200 1.2200 -0.0800
v 0.8600 1.2200 -0.0800
v 0.8600 1.2800 -0.0800
v 0.0200 1.2800 -0.0800
v 0.0200 1.2200 0.0800
v 0.8600 1.2200 0.0800
v 0.8600 1.2800 0.0800
v 0.0200 1.2800 0.0800
f 21 22 23 24
f 25 28 27 26
f 21 25 26 22
f 22 26 27 23
f 23 27 28 24
f 24 28 25 21
o soft-blade-2
usemtl plum
v -0.4200 1.2200 0.0200
v 0.4200 1.2200 0.0200
v 0.4200 1.2800 0.0200
v -0.4200 1.2800 0.0200
v -0.4200 1.2200 0.8600
v 0.4200 1.2200 0.8600
v 0.4200 1.2800 0.8600
v -0.4200 1.2800 0.8600
f 29 30 31 32
f 33 36 35 34
f 29 33 34 30
f 30 34 35 31
f 31 35 36 32
f 32 36 33 29
o soft-blade-3
usemtl plum
v -0.8600 1.2200 -0.4200
v -0.0200 1.2200 -0.4200
v -0.0200 1.2800 -0.4200
v -0.8600 1.2800 -0.4200
v -0.8600 1.2200 0.4200
v -0.0200 1.2200 0.4200
v -0.0200 1.2800 0.4200
v -0.8600 1.2800 0.4200
f 37 38 39 40
f 41 44 43 42
f 37 41 42 38
f 38 42 43 39
f 39 43 44 40
f 40 44 41 37
o soft-blade-4
usemtl plum
v -0.4200 1.2200 -0.8600
v 0.4200 1.2200 -0.8600
v 0.4200 1.2800 -0.8600
v -0.4200 1.2800 -0.8600
v -0.4200 1.2200 -0.0200
v 0.4200 1.2200 -0.0200
v 0.4200 1.2800 -0.0200
v -0.4200 1.2800 -0.0200
f 45 46 47 48
f 49 52 51 50
f 45 49 50 46
f 46 50 51 47
f 47 51 52 48
f 48 52 49 45
