# Cozy low-poly interpretation of Office Pack object: Chair
# Generated by scripts/generate-cozy-office-pack-assets.mjs
mtllib cozy-palette.mtl
o center-lift
usemtl plum
v 0.0739 0.0700 0.0306
v 0.0739 0.6500 0.0306
v 0.0306 0.0700 0.0739
v 0.0306 0.6500 0.0739
v -0.0306 0.0700 0.0739
v -0.0306 0.6500 0.0739
v -0.0739 0.0700 0.0306
v -0.0739 0.6500 0.0306
v -0.0739 0.0700 -0.0306
v -0.0739 0.6500 -0.0306
v -0.0306 0.0700 -0.0739
v -0.0306 0.6500 -0.0739
v 0.0306 0.0700 -0.0739
v 0.0306 0.6500 -0.0739
v 0.0739 0.0700 -0.0306
v 0.0739 0.6500 -0.0306
f 1 3 4 2
f 3 5 6 4
f 5 7 8 6
f 7 9 10 8
f 9 11 12 10
f 11 13 14 12
f 13 15 16 14
f 15 1 2 16
f 15 13 11 9 7 5 3 1
f 2 4 6 8 10 12 14 16
o rounded-seat-cushion
usemtl teal
v -0.4600 0.6100 -0.3900
v 0.4600 0.6100 -0.3900
v 0.4600 0.8300 -0.3900
v -0.4600 0.8300 -0.3900
v -0.4600 0.6100 0.4300
v 0.4600 0.6100 0.4300
v 0.4600 0.8300 0.4300
v -0.4600 0.8300 0.4300
f 17 18 19 20
f 21 24 23 22
f 17 21 22 18
f 18 22 23 19
f 19 23 24 20
f 20 24 21 17
o soft-back-cushion
usemtl teal
v -0.4900 0.7600 -0.4300
v 0.4900 0.7600 -0.4300
v 0.4900 1.5400 -0.4300
v -0.4900 1.5400 -0.4300
v -0.4900 0.7600 -0.2500
v 0.4900 0.7600 -0.2500
v 0.4900 1.5400 -0.2500
v -0.4900 1.5400 -0.2500
f 25 26 27 28
f 29 32 31 30
f 25 29 30 26
f 26 30 31 27
f 27 31 32 28
f 28 32 29 25
o left-arm
usemtl plum
v -0.6350 0.6900 -0.3000
v -0.5250 0.6900 -0.3000
v -0.5250 1.1100 -0.3000
v -0.6350 1.1100 -0.3000
v -0.6350 0.6900 0.3600
v -0.5250 0.6900 0.3600
v -0.5250 1.1100 0.3600
v -0.6350 1.1100 0.3600
f 33 34 35 36
f 37 40 39 38
f 33 37 38 34
f 34 38 39 35
f 35 39 40 36
f 36 40 37 33
o right-arm
usemtl plum
v 0.5250 0.6900 -0.3000
v 0.6350 0.6900 -0.3000
v 0.6350 1.1100 -0.3000
v 0.5250 1.1100 -0.3000
v 0.5250 0.6900 0.3600
v 0.6350 0.6900 0.3600
v 0.6350 1.1100 0.3600
v 0.5250 1.1100 0.3600
f 41 42 43 44
f 45 48 47 46
f 41 45 46 42
f 42 46 47 43
f 43 47 48 44
f 44 48 45 41
o star-base-spoke-1
usemtl plum
v -0.0100 0.0900 -0.0700
v 0.5700 0.0900 -0.0700
v 0.5700 0.1700 -0.0700
v -0.0100 0.1700 -0.0700
v -0.0100 0.0900 0.0700
v 0.5700 0.0900 0.0700
v 0.5700 0.1700 0.0700
v -0.0100 0.1700 0.0700
f 49 50 51 52
f 53 56 55 54
f 49 53 54 50
f 50 54 55 51
f 51 55 56 52
f 52 56 53 49
o tiny-castor-1
usemtl sky
v 0.7031 0.1144 -0.0400
v 0.7031 0.1144 0.0400
v 0.6544 0.1631 -0.0400
v 0.6544 0.1631 0.0400
v 0.5856 0.1631 -0.0400
v 0.5856 0.1631 0.0400
v 0.5369 0.1144 -0.0400
v 0.5369 0.1144 0.0400
v 0.5369 0.0456 -0.0400
v 0.5369 0.0456 0.0400
v 0.5856 -0.0031 -0.0400
v 0.5856 -0.0031 0.0400
v 0.6544 -0.0031 -0.0400
v 0.6544 -0.0031 0.0400
v 0.7031 0.0456 -0.0400
v 0.7031 0.0456 0.0400
f 57 59 60 58
f 59 61 62 60
f 61 63 64 62
f 63 65 66 64
f 65 67 68 66
f 67 69 70 68
f 69 71 72 70
f 71 57 58 72
f 71 69 67 65 63 61 59 57
f 58 60 62 64 66 68 70 72
o star-base-spoke-2
usemtl plum
v 0.0165 0.0900 -0.0237
v 0.1565 0.0900 -0.0237
v 0.1565 0.1700 -0.0237
v 0.0165 0.1700 -0.0237
v 0.0165 0.0900 0.5563
v 0.1565 0.0900 0.5563
v 0.1565 0.1700 0.5563
v 0.0165 0.1700 0.5563
f 73 74 75 76
f 77 80 79 78
f 73 77 78 74
f 74 78 79 75
f 75 79 80 76
f 76 80 77 73
o tiny-castor-2
usemtl sky
v 0.1516 0.1631 0.6241
v 0.2316 0.1631 0.6241
v 0.1516 0.1144 0.6728
v 0.2316 0.1144 0.6728
v 0.1516 0.0456 0.6728
v 0.2316 0.0456 0.6728
v 0.1516 -0.0031 0.6241
v 0.2316 -0.0031 0.6241
v 0.1516 -0.0031 0.5552
v 0.2316 -0.0031 0.5552
v 0.1516 0.0456 0.5065
v 0.2316 0.0456 0.5065
v 0.1516 0.1144 0.5065
v 0.2316 0.1144 0.5065
v 0.1516 0.1631 0.5552
v 0.2316 0.1631 0.5552
f 81 83 84 82
f 83 85 86 84
f 85 87 88 86
f 87 89 90 88
f 89 91 92 90
f 91 93 94 92
f 93 95 96 94
f 95 81 82 96
f 95 93 91 89 87 85 83 81
f 82 84 86 88 90 92 94 96
o star-base-spoke-3
usemtl plum
v -0.5165 0.0900 0.0946
v 0.0635 0.0900 0.0946
v 0.0635 0.1700 0.0946
v -0.5165 0.1700 0.0946
v -0.5165 0.0900 0.2346
v 0.0635 0.0900 0.2346
v 0.0635 0.1700 0.2346
v -0.5165 0.1700 0.2346
f 97 98 99 100
f 101 104 103 102
f 97 101 102 98
f 98 102 103 99
f 99 103 104 100
f 100 104 101 97
o tiny-castor-3
usemtl sky
v -0.4184 0.1144 0.3244
v -0.4184 0.1144 0.4044
v -0.4671 0.1631 0.3244
v -0.4671 0.1631 0.4044
v -0.5360 0.1631 0.3244
v -0.5360 0.1631 0.4044
v -0.5847 0.1144 0.3244
v -0.5847 0.1144 0.4044
v -0.5847 0.0456 0.3244
v -0.5847 0.0456 0.4044
v -0.5360 -0.0031 0.3244
v -0.5360 -0.0031 0.4044
v -0.4671 -0.0031 0.3244
v -0.4671 -0.0031 0.4044
v -0.4184 0.0456 0.3244
v -0.4184 0.0456 0.4044
f 105 107 108 106
f 107 109 110 108
f 109 111 112 110
f 111 113 114 112
f 113 115 116 114
f 115 117 118 116
f 117 119 120 118
f 119 105 106 120
f 119 117 115 113 111 109 107 105
f 106 108 110 112 114 116 118 120
o star-base-spoke-4
usemtl plum
v -0.5165 0.0900 -0.2346
v 0.0635 0.0900 -0.2346
v 0.0635 0.1700 -0.2346
v -0.5165 0.1700 -0.2346
v -0.5165 0.0900 -0.0946
v 0.0635 0.0900 -0.0946
v 0.0635 0.1700 -0.0946
v -0.5165 0.1700 -0.0946
f 121 122 123 124
f 125 128 127 126
f 121 125 126 122
f 122 126 127 123
f 123 127 128 124
f 124 128 125 121
o tiny-castor-4
usemtl sky
v -0.4184 0.1144 -0.4044
v -0.4184 0.1144 -0.3244
v -0.4671 0.1631 -0.4044
v -0.4671 0.1631 -0.3244
v -0.5360 0.1631 -0.4044
v -0.5360 0.1631 -0.3244
v -0.5847 0.1144 -0.4044
v -0.5847 0.1144 -0.3244
v -0.5847 0.0456 -0.4044
v -0.5847 0.0456 -0.3244
v -0.5360 -0.0031 -0.4044
v -0.5360 -0.0031 -0.3244
v -0.4671 -0.0031 -0.4044
v -0.4671 -0.0031 -0.3244
v -0.4184 0.0456 -0.4044
v -0.4184 0.0456 -0.3244
f 129 131 132 130
f 131 133 134 132
f 133 135 136 134
f 135 137 138 136
f 137 139 140 138
f 139 141 142 140
f 141 143 144 142
f 143 129 130 144
f 143 141 139 137 135 133 131 129
f 130 132 134 136 138 140 142 144
o star-base-spoke-5
usemtl plum
v 0.0165 0.0900 -0.5563
v 0.1565 0.0900 -0.5563
v 0.1565 0.1700 -0.5563
v 0.0165 0.1700 -0.5563
v 0.0165 0.0900 0.0237
v 0.1565 0.0900 0.0237
v 0.1565 0.1700 0.0237
v 0.0165 0.1700 0.0237
f 145 146 147 148
f 149 152 151 150
f 145 149 150 146
f 146 150 151 147
f 147 151 152 148
f 148 152 149 145
o tiny-castor-5
usemtl sky
v 0.1516 0.1631 -0.5552
v 0.2316 0.1631 -0.5552
v 0.1516 0.1144 -0.5065
v 0.2316 0.1144 -0.5065
v 0.1516 0.0456 -0.5065
v 0.2316 0.0456 -0.5065
v 0.1516 -0.0031 -0.5552
v 0.2316 -0.0031 -0.5552
v 0.1516 -0.0031 -0.6241
v 0.2316 -0.0031 -0.6241
v 0.1516 0.0456 -0.6728
v 0.2316 0.0456 -0.6728
v 0.1516 0.1144 -0.6728
v 0.2316 0.1144 -0.6728
v 0.1516 0.1631 -0.6241
v 0.2316 0.1631 -0.6241
f 153 155 156 154
f 155 157 158 156
f 157 159 160 158
f 159 161 162 160
f 161 163 164 162
f 163 165 166 164
f 165 167 168 166
f 167 153 154 168
f 167 165 163 161 159 157 155 153
f 154 156 158 160 162 164 166 168
