# Cozy low-poly interpretation of Office Pack object: Coat rack
# Generated by scripts/generate-cozy-office-pack-assets.mjs
mtllib cozy-palette.mtl
o coat-rack-pole
usemtl plum
v 0.0416 0.0500 0.0172
v 0.0416 1.6700 0.0172
v 0.0172 0.0500 0.0416
v 0.0172 1.6700 0.0416
v -0.0172 0.0500 0.0416
v -0.0172 1.6700 0.0416
v -0.0416 0.0500 0.0172
v -0.0416 1.6700 0.0172
v -0.0416 0.0500 -0.0172
v -0.0416 1.6700 -0.0172
v -0.0172 0.0500 -0.0416
v -0.0172 1.6700 -0.0416
v 0.0172 0.0500 -0.0416
v 0.0172 1.6700 -0.0416
v 0.0416 0.0500 -0.0172
v 0.0416 1.6700 -0.0172
f 1 3 4 2
f 3 5 6 4
f 5 7 8 6
f 7 9 10 8
f 9 11 12 10
f 11 13 14 12
f 13 15 16 14
f 15 1 2 16
f 15 13 11 9 7 5 3 1
f 2 4 6 8 10 12 14 16
o coat-rack-base
usemtl plum
v 0.3234 0.0000 0.1051
v 0.3234 0.1200 0.1051
v 0.1998 0.0000 0.2751
v 0.1998 0.1200 0.2751
v 0.0000 0.0000 0.3400
v 0.0000 0.1200 0.3400
v -0.1998 0.0000 0.2751
v -0.1998 0.1200 0.2751
v -0.3234 0.0000 0.1051
v -0.3234 0.1200 0.1051
v -0.3234 0.0000 -0.1051
v -0.3234 0.1200 -0.1051
v -0.1998 0.0000 -0.2751
v -0.1998 0.1200 -0.2751
v -0.0000 0.0000 -0.3400
v -0.0000 0.1200 -0.3400
v 0.1998 0.0000 -0.2751
v 0.1998 0.1200 -0.2751
v 0.3234 0.0000 -0.1051
v 0.3234 0.1200 -0.1051
f 17 19 20 18
f 19 21 22 20
f 21 23 24 22
f 23 25 26 24
f 25 27 28 26
f 27 29 30 28
f 29 31 32 30
f 31 33 34 32
f 33 35 36 34
f 35 17 18 36
f 35 33 31 29 27 25 23 21 19 17
f 18 20 22 24 26 28 30 32 34 36
o coat-hook-1
usemtl plum
v 0.0100 1.3850 -0.0400
v 0.4300 1.3850 -0.0400
v 0.4300 1.4550 -0.0400
v 0.0100 1.4550 -0.0400
v 0.0100 1.3850 0.0400
v 0.4300 1.3850 0.0400
v 0.4300 1.4550 0.0400
v 0.0100 1.4550 0.0400
f 37 38 39 40
f 41 44 43 42
f 37 41 42 38
f 38 42 43 39
f 39 43 44 40
f 40 44 41 37
o coat-hook-2
usemtl plum
v -0.3211 1.3850 0.1499
v 0.0989 1.3850 0.1499
v 0.0989 1.4550 0.1499
v -0.3211 1.4550 0.1499
v -0.3211 1.3850 0.2299
v 0.0989 1.3850 0.2299
v 0.0989 1.4550 0.2299
v -0.3211 1.4550 0.2299
f 45 46 47 48
f 49 52 51 50
f 45 49 50 46
f 46 50 51 47
f 47 51 52 48
f 48 52 49 45
o coat-hook-3
usemtl plum
v -0.3179 1.3850 -0.2317
v 0.1021 1.3850 -0.2317
v 0.1021 1.4550 -0.2317
v -0.3179 1.4550 -0.2317
v -0.3179 1.3850 -0.1517
v 0.1021 1.3850 -0.1517
v 0.1021 1.4550 -0.1517
v -0.3179 1.4550 -0.1517
f 53 54 55 56
f 57 60 59 58
f 53 57 58 54
f 54 58 59 55
f 55 59 60 56
f 56 60 57 53
