# Cozy low-poly interpretation of Office Pack object: Computer mouse
# Generated by scripts/generate-cozy-office-pack-assets.mjs
mtllib cozy-palette.mtl
o rounded-mouse-body
usemtl charcoal
v 0.2092 0.1780 -0.2100
v 0.1674 0.1644 0.2100
v 0.1293 0.2880 -0.2100
v 0.1035 0.2524 0.2100
v 0.0000 0.3300 -0.2100
v 0.0000 0.2860 0.2100
v -0.1293 0.2880 -0.2100
v -0.1035 0.2524 0.2100
v -0.2092 0.1780 -0.2100
v -0.1674 0.1644 0.2100
v -0.2092 0.0420 -0.2100
v -0.1674 0.0556 0.2100
v -0.1293 -0.0680 -0.2100
v -0.1035 -0.0324 0.2100
v -0.0000 -0.1100 -0.2100
v -0.0000 -0.0660 0.2100
v 0.1293 -0.0680 -0.2100
v 0.1035 -0.0324 0.2100
v 0.2092 0.0420 -0.2100
v 0.1674 0.0556 0.2100
f 1 3 4 2
f 3 5 6 4
f 5 7 8 6
f 7 9 10 8
f 9 11 12 10
f 11 13 14 12
f 13 15 16 14
f 15 17 18 16
f 17 19 20 18
f 19 1 2 20
f 19 17 15 13 11 9 7 5 3 1
f 2 4 6 8 10 12 14 16 18 20
o mouse-split-line
usemtl charcoal
v -0.0150 0.2150 -0.1800
v 0.0150 0.2150 -0.1800
v 0.0150 0.2450 -0.1800
v -0.0150 0.2450 -0.1800
v -0.0150 0.2150 0.0200
v 0.0150 0.2150 0.0200
v 0.0150 0.2450 0.0200
v -0.0150 0.2450 0.0200
f 21 22 23 24
f 25 28 27 26
f 21 25 26 22
f 22 26 27 23
f 23 27 28 24
f 24 28 25 21
