# Cozy low-poly interpretation of Office Pack object: Couch Small
# Generated by scripts/generate-cozy-office-pack-assets.mjs
mtllib cozy-palette.mtl
o soft-sofa-base
usemtl teal
v -0.8500 0.1400 -0.4750
v 0.8500 0.1400 -0.4750
v 0.8500 0.5600 -0.4750
v -0.8500 0.5600 -0.4750
v -0.8500 0.1400 0.4750
v 0.8500 0.1400 0.4750
v 0.8500 0.5600 0.4750
v -0.8500 0.5600 0.4750
f 1 2 3 4
f 5 8 7 6
f 1 5 6 2
f 2 6 7 3
f 3 7 8 4
f 4 8 5 1
o left-rounded-arm
usemtl plum
v -1.0400 0.2900 -0.5250
v -0.8200 0.2900 -0.5250
v -0.8200 1.0700 -0.5250
v -1.0400 1.0700 -0.5250
v -1.0400 0.2900 0.5250
v -0.8200 0.2900 0.5250
v -0.8200 1.0700 0.5250
v -1.0400 1.0700 0.5250
f 9 10 11 12
f 13 16 15 14
f 9 13 14 10
f 10 14 15 11
f 11 15 16 12
f 12 16 13 9
o right-rounded-arm
usemtl plum
v 0.8200 0.2900 -0.5250
v 1.0400 0.2900 -0.5250
v 1.0400 1.0700 -0.5250
v 0.8200 1.0700 -0.5250
v 0.8200 0.2900 0.5250
v 1.0400 0.2900 0.5250
v 1.0400 1.0700 0.5250
v 0.8200 1.0700 0.5250
f 17 18 19 20
f 21 24 23 22
f 17 21 22 18
f 18 22 23 19
f 19 23 24 20
f 20 24 21 17
o cozy-back
usemtl plum
v -0.9900 0.4100 -0.5200
v 0.9900 0.4100 -0.5200
v 0.9900 1.3100 -0.5200
v -0.9900 1.3100 -0.5200
v -0.9900 0.4100 -0.3200
v 0.9900 0.4100 -0.3200
v 0.9900 1.3100 -0.3200
v -0.9900 1.3100 -0.3200
f 25 26 27 28
f 29 32 31 30
f 25 29 30 26
f 26 30 31 27
f 27 31 32 28
f 28 32 29 25
o seat-cushion-1
usemtl teal
v -0.8100 0.5600 -0.2600
v 0.8100 0.5600 -0.2600
v 0.8100 0.7400 -0.2600
v -0.8100 0.7400 -0.2600
v -0.8100 0.5600 0.5200
v 0.8100 0.5600 0.5200
v 0.8100 0.7400 0.5200
v -0.8100 0.7400 0.5200
f 33 34 35 36
f 37 40 39 38
f 33 37 38 34
f 34 38 39 35
f 35 39 40 36
f 36 40 37 33
o pillow-1
usemtl blush
v -0.1600 0.7600 -0.3400
v 0.3200 0.7600 -0.3400
v 0.3200 1.2400 -0.3400
v -0.1600 1.2400 -0.3400
v -0.1600 0.7600 -0.2200
v 0.3200 0.7600 -0.2200
v 0.3200 1.2400 -0.2200
v -0.1600 1.2400 -0.2200
f 41 42 43 44
f 45 48 47 46
f 41 45 46 42
f 42 46 47 43
f 43 47 48 44
f 44 48 45 41
