# Cozy low-poly interpretation of Office Pack object: Cup
# Generated by scripts/generate-cozy-office-pack-assets.mjs
mtllib cozy-palette.mtl
o round-mug-body
usemtl coral
v 0.1201 0.0800 0.0497
v 0.1081 0.2800 0.0448
v 0.0497 0.0800 0.1201
v 0.0448 0.2800 0.1081
v -0.0497 0.0800 0.1201
v -0.0448 0.2800 0.1081
v -0.1201 0.0800 0.0497
v -0.1081 0.2800 0.0448
v -0.1201 0.0800 -0.0497
v -0.1081 0.2800 -0.0448
v -0.0497 0.0800 -0.1201
v -0.0448 0.2800 -0.1081
v 0.0497 0.0800 -0.1201
v 0.0448 0.2800 -0.1081
v 0.1201 0.0800 -0.0497
v 0.1081 0.2800 -0.0448
f 1 3 4 2
f 3 5 6 4
f 5 7 8 6
f 7 9 10 8
f 9 11 12 10
f 11 13 14 12
f 13 15 16 14
f 15 1 2 16
f 15 13 11 9 7 5 3 1
f 2 4 6 8 10 12 14 16
o chunky-mug-handle
usemtl coral
v 0.1200 0.1150 -0.0800
v 0.1800 0.1150 -0.0800
v 0.1800 0.2650 -0.0800
v 0.1200 0.2650 -0.0800
v 0.1200 0.1150 0.0800
v 0.1800 0.1150 0.0800
v 0.1800 0.2650 0.0800
v 0.1200 0.2650 0.0800
f 17 18 19 20
f 21 24 23 22
f 17 21 22 18
f 18 22 23 19
f 19 23 24 20
f 20 24 21 17
