# Cozy low-poly interpretation of Office Pack object: Desk Toy
# Generated by scripts/generate-cozy-office-pack-assets.mjs
mtllib cozy-palette.mtl
o soft-chunky-desktop
usemtl terracotta
v -1.3500 0.6700 -0.5900
v 1.3500 0.6700 -0.5900
v 1.3500 0.8500 -0.5900
v -1.3500 0.8500 -0.5900
v -1.3500 0.6700 0.5900
v 1.3500 0.6700 0.5900
v 1.3500 0.8500 0.5900
v -1.3500 0.8500 0.5900
f 1 2 3 4
f 5 8 7 6
f 1 5 6 2
f 2 6 7 3
f 3 7 8 4
f 4 8 5 1
o warm-front-apron
usemtl plum
v -1.2750 0.5200 0.4800
v 1.2750 0.5200 0.4800
v 1.2750 0.7200 0.4800
v -1.2750 0.7200 0.4800
v -1.2750 0.5200 0.6000
v 1.2750 0.5200 0.6000
v 1.2750 0.7200 0.6000
v -1.2750 0.7200 0.6000
f 9 10 11 12
f 13 16 15 14
f 9 13 14 10
f 10 14 15 11
f 11 15 16 12
f 12 16 13 9
o left-storage-block
usemtl plum
v -1.2300 0.0400 -0.1100
v -0.6100 0.0400 -0.1100
v -0.6100 0.7000 -0.1100
v -1.2300 0.7000 -0.1100
v -1.2300 0.0400 0.6100
v -0.6100 0.0400 0.6100
v -0.6100 0.7000 0.6100
v -1.2300 0.7000 0.6100
f 17 18 19 20
f 21 24 23 22
f 17 21 22 18
f 18 22 23 19
f 19 23 24 20
f 20 24 21 17
o right-trestle-panel
usemtl plum
v 0.9300 0.0400 -0.3300
v 1.1100 0.0400 -0.3300
v 1.1100 0.6600 -0.3300
v 0.9300 0.6600 -0.3300
v 0.9300 0.0400 0.4900
v 1.1100 0.0400 0.4900
v 1.1100 0.6600 0.4900
v 0.9300 0.6600 0.4900
f 25 26 27 28
f 29 32 31 30
f 25 29 30 26
f 26 30 31 27
f 27 31 32 28
f 28 32 29 25
o cozy-book-1
usemtl terracotta
v -0.6800 0.8700 -0.3500
v -0.1600 0.8700 -0.3500
v -0.1600 0.9300 -0.3500
v -0.6800 0.9300 -0.3500
v -0.6800 0.8700 -0.0100
v -0.1600 0.8700 -0.0100
v -0.1600 0.9300 -0.0100
v -0.6800 0.9300 -0.0100
f 33 34 35 36
f 37 40 39 38
f 33 37 38 34
f 34 38 39 35
f 35 39 40 36
f 36 40 37 33
o cozy-book-2
usemtl terracotta
v -0.6625 0.9450 -0.3410
v -0.1775 0.9450 -0.3410
v -0.1775 1.0050 -0.3410
v -0.6625 1.0050 -0.3410
v -0.6625 0.9450 -0.0190
v -0.1775 0.9450 -0.0190
v -0.1775 1.0050 -0.0190
v -0.6625 1.0050 -0.0190
f 41 42 43 44
f 45 48 47 46
f 41 45 46 42
f 42 46 47 43
f 43 47 48 44
f 44 48 45 41
o cozy-book-3
usemtl terracotta
v -0.6450 1.0200 -0.3320
v -0.1950 1.0200 -0.3320
v -0.1950 1.0800 -0.3320
v -0.6450 1.0800 -0.3320
v -0.6450 1.0200 -0.0280
v -0.1950 1.0200 -0.0280
v -0.1950 1.0800 -0.0280
v -0.6450 1.0800 -0.0280
f 49 50 51 52
f 53 56 55 54
f 49 53 54 50
f 50 54 55 51
f 51 55 56 52
f 52 56 53 49
o round-mug-body
usemtl coral
v 0.4801 0.8300 0.3097
v 0.4681 1.0300 0.3048
v 0.4097 0.8300 0.3801
v 0.4048 1.0300 0.3681
v 0.3103 0.8300 0.3801
v 0.3152 1.0300 0.3681
v 0.2399 0.8300 0.3097
v 0.2519 1.0300 0.3048
v 0.2399 0.8300 0.2103
v 0.2519 1.0300 0.2152
v 0.3103 0.8300 0.1399
v 0.3152 1.0300 0.1519
v 0.4097 0.8300 0.1399
v 0.4048 1.0300 0.1519
v 0.4801 0.8300 0.2103
v 0.4681 1.0300 0.2152
f 57 59 60 58
f 59 61 62 60
f 61 63 64 62
f 63 65 66 64
f 65 67 68 66
f 67 69 70 68
f 69 71 72 70
f 71 57 58 72
f 71 69 67 65 63 61 59 57
f 58 60 62 64 66 68 70 72
o chunky-mug-handle
usemtl coral
v 0.4800 0.8650 0.1800
v 0.5400 0.8650 0.1800
v 0.5400 1.0150 0.1800
v 0.4800 1.0150 0.1800
v 0.4800 0.8650 0.3400
v 0.5400 0.8650 0.3400
v 0.5400 1.0150 0.3400
v 0.4800 1.0150 0.3400
f 73 74 75 76
f 77 80 79 78
f 73 77 78 74
f 74 78 79 75
f 75 79 80 76
f 76 80 77 73
o soft-lamp-base
usemtl charcoal
v 1.0078 0.8450 -0.1788
v 1.0078 0.9150 -0.1788
v 0.9212 0.8450 -0.0922
v 0.9212 0.9150 -0.0922
v 0.7988 0.8450 -0.0922
v 0.7988 0.9150 -0.0922
v 0.7122 0.8450 -0.1788
v 0.7122 0.9150 -0.1788
v 0.7122 0.8450 -0.3012
v 0.7122 0.9150 -0.3012
v 0.7988 0.8450 -0.3878
v 0.7988 0.9150 -0.3878
v 0.9212 0.8450 -0.3878
v 0.9212 0.9150 -0.3878
v 1.0078 0.8450 -0.3012
v 1.0078 0.9150 -0.3012
f 81 83 84 82
f 83 85 86 84
f 85 87 88 86
f 87 89 90 88
f 89 91 92 90
f 91 93 94 92
f 93 95 96 94
f 95 81 82 96
f 95 93 91 89 87 85 83 81
f 82 84 86 88 90 92 94 96
o warm-lamp-neck
usemtl blush
v 0.8903 0.9100 -0.2225
v 0.8903 1.4100 -0.2225
v 0.8600 0.9100 -0.2050
v 0.8600 1.4100 -0.2050
v 0.8297 0.9100 -0.2225
v 0.8297 1.4100 -0.2225
v 0.8297 0.9100 -0.2575
v 0.8297 1.4100 -0.2575
v 0.8600 0.9100 -0.2750
v 0.8600 1.4100 -0.2750
v 0.8903 0.9100 -0.2575
v 0.8903 1.4100 -0.2575
f 97 99 100 98
f 99 101 102 100
f 101 103 104 102
f 103 105 106 104
f 105 107 108 106
f 107 97 98 108
f 107 105 103 101 99 97
f 98 100 102 104 106 108
o faceted-lamp-shade
usemtl blush
v 1.0633 1.3400 -0.1558
v 0.9860 1.5800 -0.1878
v 0.9442 1.3400 -0.0367
v 0.9122 1.5800 -0.1140
v 0.7758 1.3400 -0.0367
v 0.8078 1.5800 -0.1140
v 0.6567 1.3400 -0.1558
v 0.7340 1.5800 -0.1878
v 0.6567 1.3400 -0.3242
v 0.7340 1.5800 -0.2922
v 0.7758 1.3400 -0.4433
v 0.8078 1.5800 -0.3660
v 0.9442 1.3400 -0.4433
v 0.9122 1.5800 -0.3660
v 1.0633 1.3400 -0.3242
v 0.9860 1.5800 -0.2922
f 109 111 112 110
f 111 113 114 112
f 113 115 116 114
f 115 117 118 116
f 117 119 120 118
f 119 121 122 120
f 121 123 124 122
f 123 109 110 124
f 123 121 119 117 115 113 111 109
f 110 112 114 116 118 120 122 124
