# Cozy low-poly interpretation of Office Pack object: Doorway
# Generated by scripts/generate-cozy-office-pack-assets.mjs
mtllib cozy-palette.mtl
o cozy-door-slab
usemtl terracotta
v -0.5400 0.0000 -0.0800
v 0.5400 0.0000 -0.0800
v 0.5400 2.1000 -0.0800
v -0.5400 2.1000 -0.0800
v -0.5400 0.0000 0.0800
v 0.5400 0.0000 0.0800
v 0.5400 2.1000 0.0800
v -0.5400 2.1000 0.0800
f 1 2 3 4
f 5 8 7 6
f 1 5 6 2
f 2 6 7 3
f 3 7 8 4
f 4 8 5 1
o left-frame
usemtl terracotta
v -0.7500 -0.0600 -0.0700
v -0.5900 -0.0600 -0.0700
v -0.5900 2.2200 -0.0700
v -0.7500 2.2200 -0.0700
v -0.7500 -0.0600 0.1500
v -0.5900 -0.0600 0.1500
v -0.5900 2.2200 0.1500
v -0.7500 2.2200 0.1500
f 9 10 11 12
f 13 16 15 14
f 9 13 14 10
f 10 14 15 11
f 11 15 16 12
f 12 16 13 9
o right-frame
usemtl terracotta
v 0.5900 -0.0600 -0.0700
v 0.7500 -0.0600 -0.0700
v 0.7500 2.2200 -0.0700
v 0.5900 2.2200 -0.0700
v 0.5900 -0.0600 0.1500
v 0.7500 -0.0600 0.1500
v 0.7500 2.2200 0.1500
v 0.5900 2.2200 0.1500
f 17 18 19 20
f 21 24 23 22
f 17 21 22 18
f 18 22 23 19
f 19 23 24 20
f 20 24 21 17
o top-frame
usemtl terracotta
v -0.7500 2.1300 -0.0700
v 0.7500 2.1300 -0.0700
v 0.7500 2.2900 -0.0700
v -0.7500 2.2900 -0.0700
v -0.7500 2.1300 0.1500
v 0.7500 2.1300 0.1500
v 0.7500 2.2900 0.1500
v -0.7500 2.2900 0.1500
f 25 26 27 28
f 29 32 31 30
f 25 29 30 26
f 26 30 31 27
f 27 31 32 28
f 28 32 29 25
o upper-panel
usemtl plum
v -0.3400 1.2100 0.0600
v 0.3400 1.2100 0.0600
v 0.3400 1.8300 0.0600
v -0.3400 1.8300 0.0600
v -0.3400 1.2100 0.1400
v 0.3400 1.2100 0.1400
v 0.3400 1.8300 0.1400
v -0.3400 1.8300 0.1400
f 33 34 35 36
f 37 40 39 38
f 33 37 38 34
f 34 38 39 35
f 35 39 40 36
f 36 40 37 33
o lower-panel
usemtl plum
v -0.3400 0.3000 0.0600
v 0.3400 0.3000 0.0600
v 0.3400 1.0200 0.0600
v -0.3400 1.0200 0.0600
v -0.3400 0.3000 0.1400
v 0.3400 0.3000 0.1400
v 0.3400 1.0200 0.1400
v -0.3400 1.0200 0.1400
f 41 42 43 44
f 45 48 47 46
f 41 45 46 42
f 42 46 47 43
f 43 47 48 44
f 44 48 45 41
o round-knob
usemtl sky
v 0.4939 1.0606 0.1100
v 0.4939 1.0606 0.2100
v 0.4506 1.1039 0.1100
v 0.4506 1.1039 0.2100
v 0.3894 1.1039 0.1100
v 0.3894 1.1039 0.2100
v 0.3461 1.0606 0.1100
v 0.3461 1.0606 0.2100
v 0.3461 0.9994 0.1100
v 0.3461 0.9994 0.2100
v 0.3894 0.9561 0.1100
v 0.3894 0.9561 0.2100
v 0.4506 0.9561 0.1100
v 0.4506 0.9561 0.2100
v 0.4939 0.9994 0.1100
v 0.4939 0.9994 0.2100
f 49 51 52 50
f 51 53 54 52
f 53 55 56 54
f 55 57 58 56
f 57 59 60 58
f 59 61 62 60
f 61 63 64 62
f 63 49 50 64
f 63 61 59 57 55 53 51 49
f 50 52 54 56 58 60 62 64
