# Cozy low-poly interpretation of Office Pack object: Dual Monitors on sit-stand arm
# Generated by scripts/generate-cozy-office-pack-assets.mjs
mtllib cozy-palette.mtl
o monitor-arm-post
usemtl charcoal
v 0.0462 0.0400 0.0191
v 0.0462 1.1200 0.0191
v 0.0191 0.0400 0.0462
v 0.0191 1.1200 0.0462
v -0.0191 0.0400 0.0462
v -0.0191 1.1200 0.0462
v -0.0462 0.0400 0.0191
v -0.0462 1.1200 0.0191
v -0.0462 0.0400 -0.0191
v -0.0462 1.1200 -0.0191
v -0.0191 0.0400 -0.0462
v -0.0191 1.1200 -0.0462
v 0.0191 0.0400 -0.0462
v 0.0191 1.1200 -0.0462
v 0.0462 0.0400 -0.0191
v 0.0462 1.1200 -0.0191
f 1 3 4 2
f 3 5 6 4
f 5 7 8 6
f 7 9 10 8
f 9 11 12 10
f 11 13 14 12
f 13 15 16 14
f 15 1 2 16
f 15 13 11 9 7 5 3 1
f 2 4 6 8 10 12 14 16
o left-monitor
usemtl charcoal
v -1.0500 0.7100 -0.0400
v -0.1900 0.7100 -0.0400
v -0.1900 1.2900 -0.0400
v -1.0500 1.2900 -0.0400
v -1.0500 0.7100 0.0400
v -0.1900 0.7100 0.0400
v -0.1900 1.2900 0.0400
v -1.0500 1.2900 0.0400
f 17 18 19 20
f 21 24 23 22
f 17 21 22 18
f 18 22 23 19
f 19 23 24 20
f 20 24 21 17
o right-monitor
usemtl charcoal
v 0.1900 0.7100 -0.0400
v 1.0500 0.7100 -0.0400
v 1.0500 1.2900 -0.0400
v 0.1900 1.2900 -0.0400
v 0.1900 0.7100 0.0400
v 1.0500 0.7100 0.0400
v 1.0500 1.2900 0.0400
v 0.1900 1.2900 0.0400
f 25 26 27 28
f 29 32 31 30
f 25 29 30 26
f 26 30 31 27
f 27 31 32 28
f 28 32 29 25
o left-arm
usemtl plum
v -0.5400 0.8500 -0.0300
v -0.0200 0.8500 -0.0300
v -0.0200 0.9100 -0.0300
v -0.5400 0.9100 -0.0300
v -0.5400 0.8500 0.0300
v -0.0200 0.8500 0.0300
v -0.0200 0.9100 0.0300
v -0.5400 0.9100 0.0300
f 33 34 35 36
f 37 40 39 38
f 33 37 38 34
f 34 38 39 35
f 35 39 40 36
f 36 40 37 33
o right-arm
usemtl plum
v 0.0200 0.8500 -0.0300
v 0.5400 0.8500 -0.0300
v 0.5400 0.9100 -0.0300
v 0.0200 0.9100 -0.0300
v 0.0200 0.8500 0.0300
v 0.5400 0.8500 0.0300
v 0.5400 0.9100 0.0300
v 0.0200 0.9100 0.0300
f 41 42 43 44
f 45 48 47 46
f 41 45 46 42
f 42 46 47 43
f 43 47 48 44
f 44 48 45 41
