# Cozy low-poly interpretation of Office Pack object: Electrical outlet
# Generated by scripts/generate-cozy-office-pack-assets.mjs
mtllib cozy-palette.mtl
o wall-plate
usemtl plum
v -0.1800 0.1600 -0.0300
v 0.1800 0.1600 -0.0300
v 0.1800 0.6800 -0.0300
v -0.1800 0.6800 -0.0300
v -0.1800 0.1600 0.0300
v 0.1800 0.1600 0.0300
v 0.1800 0.6800 0.0300
v -0.1800 0.6800 0.0300
f 1 2 3 4
f 5 8 7 6
f 1 5 6 2
f 2 6 7 3
f 3 7 8 4
f 4 8 5 1
o toggle-or-socket
usemtl plum
v -0.0700 0.3100 0.0325
v 0.0700 0.3100 0.0325
v 0.0700 0.5300 0.0325
v -0.0700 0.5300 0.0325
v -0.0700 0.3100 0.0675
v 0.0700 0.3100 0.0675
v 0.0700 0.5300 0.0675
v -0.0700 0.5300 0.0675
f 9 10 11 12
f 13 16 15 14
f 9 13 14 10
f 10 14 15 11
f 11 15 16 12
f 12 16 13 9
