# Cozy low-poly interpretation of Office Pack object: Fire Extinguisher
# Generated by scripts/generate-cozy-office-pack-assets.mjs
mtllib cozy-palette.mtl
o extinguisher-body
usemtl poppy
v 0.1712 0.1400 0.0556
v 0.1712 0.9600 0.0556
v 0.1058 0.1400 0.1456
v 0.1058 0.9600 0.1456
v 0.0000 0.1400 0.1800
v 0.0000 0.9600 0.1800
v -0.1058 0.1400 0.1456
v -0.1058 0.9600 0.1456
v -0.1712 0.1400 0.0556
v -0.1712 0.9600 0.0556
v -0.1712 0.1400 -0.0556
v -0.1712 0.9600 -0.0556
v -0.1058 0.1400 -0.1456
v -0.1058 0.9600 -0.1456
v -0.0000 0.1400 -0.1800
v -0.0000 0.9600 -0.1800
v 0.1058 0.1400 -0.1456
v 0.1058 0.9600 -0.1456
v 0.1712 0.1400 -0.0556
v 0.1712 0.9600 -0.0556
f 1 3 4 2
f 3 5 6 4
f 5 7 8 6
f 7 9 10 8
f 9 11 12 10
f 11 13 14 12
f 13 15 16 14
f 15 17 18 16
f 17 19 20 18
f 19 1 2 20
f 19 17 15 13 11 9 7 5 3 1
f 2 4 6 8 10 12 14 16 18 20
o extinguisher-neck
usemtl poppy
v 0.0739 0.9200 0.0306
v 0.0739 1.0800 0.0306
v 0.0306 0.9200 0.0739
v 0.0306 1.0800 0.0739
v -0.0306 0.9200 0.0739
v -0.0306 1.0800 0.0739
v -0.0739 0.9200 0.0306
v -0.0739 1.0800 0.0306
v -0.0739 0.9200 -0.0306
v -0.0739 1.0800 -0.0306
v -0.0306 0.9200 -0.0739
v -0.0306 1.0800 -0.0739
v 0.0306 0.9200 -0.0739
v 0.0306 1.0800 -0.0739
v 0.0739 0.9200 -0.0306
v 0.0739 1.0800 -0.0306
f 21 23 24 22
f 23 25 26 24
f 25 27 28 26
f 27 29 30 28
f 29 31 32 30
f 31 33 34 32
f 33 35 36 34
f 35 21 22 36
f 35 33 31 29 27 25 23 21
f 22 24 26 28 30 32 34 36
o handle
usemtl sky
v -0.1800 1.0800 -0.0600
v 0.1800 1.0800 -0.0600
v 0.1800 1.1600 -0.0600
v -0.1800 1.1600 -0.0600
v -0.1800 1.0800 0.0600
v 0.1800 1.0800 0.0600
v 0.1800 1.1600 0.0600
v -0.1800 1.1600 0.0600
f 37 38 39 40
f 41 44 43 42
f 37 41 42 38
f 38 42 43 39
f 39 43 44 40
f 40 44 41 37
o hose
usemtl plum
v 0.2723 0.6300 0.0134
v 0.2723 1.0900 0.0134
v 0.2534 0.6300 0.0323
v 0.2534 1.0900 0.0323
v 0.2266 0.6300 0.0323
v 0.2266 1.0900 0.0323
v 0.2077 0.6300 0.0134
v 0.2077 1.0900 0.0134
v 0.2077 0.6300 -0.0134
v 0.2077 1.0900 -0.0134
v 0.2266 0.6300 -0.0323
v 0.2266 1.0900 -0.0323
v 0.2534 0.6300 -0.0323
v 0.2534 1.0900 -0.0323
v 0.2723 0.6300 -0.0134
v 0.2723 1.0900 -0.0134
f 45 47 48 46
f 47 49 50 48
f 49 51 52 50
f 51 53 54 52
f 53 55 56 54
f 55 57 58 56
f 57 59 60 58
f 59 45 46 60
f 59 57 55 53 51 49 47 45
f 46 48 50 52 54 56 58 60
