# Cozy low-poly interpretation of Office Pack object: Fire Exit Sign
# Generated by scripts/generate-cozy-office-pack-assets.mjs
mtllib cozy-palette.mtl
o soft-exit-sign
usemtl pear
v -0.5900 0.2500 -0.0400
v 0.5900 0.2500 -0.0400
v 0.5900 0.7100 -0.0400
v -0.5900 0.7100 -0.0400
v -0.5900 0.2500 0.0400
v 0.5900 0.2500 0.0400
v 0.5900 0.7100 0.0400
v -0.5900 0.7100 0.0400
f 1 2 3 4
f 5 8 7 6
f 1 5 6 2
f 2 6 7 3
f 3 7 8 4
f 4 8 5 1
o running-arrow
usemtl plum
v 0.0900 0.4400 0.0500
v 0.4300 0.4400 0.0500
v 0.4300 0.5200 0.0500
v 0.0900 0.5200 0.0500
v 0.0900 0.4400 0.0900
v 0.4300 0.4400 0.0900
v 0.4300 0.5200 0.0900
v 0.0900 0.5200 0.0900
f 9 10 11 12
f 13 16 15 14
f 9 13 14 10
f 10 14 15 11
f 11 15 16 12
f 12 16 13 9
o arrow-head
usemtl plum
v 0.3900 0.3900 0.0500
v 0.6100 0.3900 0.0500
v 0.6100 0.3900 0.0900
v 0.3900 0.3900 0.0900
v 0.5000 0.5700 0.0700
f 17 18 19 20
f 17 21 18
f 18 21 19
f 19 21 20
f 20 21 17
