# Cozy low-poly interpretation of Office Pack object: Houseplant-e9oRt-Ct6js
# Generated by scripts/generate-cozy-office-pack-assets.mjs
mtllib cozy-palette.mtl
o cozy-pot-saucer
usemtl coral
v 0.3994 0.0000 0.1298
v 0.3994 0.1000 0.1298
v 0.2469 0.0000 0.3398
v 0.2469 0.1000 0.3398
v 0.0000 0.0000 0.4200
v 0.0000 0.1000 0.4200
v -0.2469 0.0000 0.3398
v -0.2469 0.1000 0.3398
v -0.3994 0.0000 0.1298
v -0.3994 0.1000 0.1298
v -0.3994 0.0000 -0.1298
v -0.3994 0.1000 -0.1298
v -0.2469 0.0000 -0.3398
v -0.2469 0.1000 -0.3398
v -0.0000 0.0000 -0.4200
v -0.0000 0.1000 -0.4200
v 0.2469 0.0000 -0.3398
v 0.2469 0.1000 -0.3398
v 0.3994 0.0000 -0.1298
v 0.3994 0.1000 -0.1298
f 1 3 4 2
f 3 5 6 4
f 5 7 8 6
f 7 9 10 8
f 9 11 12 10
f 11 13 14 12
f 13 15 16 14
f 15 17 18 16
f 17 19 20 18
f 19 1 2 20
f 19 17 15 13 11 9 7 5 3 1
f 2 4 6 8 10 12 14 16 18 20
o tapered-planter
usemtl pear
v 0.3043 0.0700 0.0989
v 0.3652 0.6100 0.1187
v 0.1881 0.0700 0.2589
v 0.2257 0.6100 0.3107
v 0.0000 0.0700 0.3200
v 0.0000 0.6100 0.3840
v -0.1881 0.0700 0.2589
v -0.2257 0.6100 0.3107
v -0.3043 0.0700 0.0989
v -0.3652 0.6100 0.1187
v -0.3043 0.0700 -0.0989
v -0.3652 0.6100 -0.1187
v -0.1881 0.0700 -0.2589
v -0.2257 0.6100 -0.3107
v -0.0000 0.0700 -0.3200
v -0.0000 0.6100 -0.3840
v 0.1881 0.0700 -0.2589
v 0.2257 0.6100 -0.3107
v 0.3043 0.0700 -0.0989
v 0.3652 0.6100 -0.1187
f 21 23 24 22
f 23 25 26 24
f 25 27 28 26
f 27 29 30 28
f 29 31 32 30
f 31 33 34 32
f 33 35 36 34
f 35 37 38 36
f 37 39 40 38
f 39 21 22 40
f 39 37 35 33 31 29 27 25 23 21
f 22 24 26 28 30 32 34 36 38 40
o soft-soil
usemtl charcoal
v 0.3234 0.5950 0.1051
v 0.3234 0.6450 0.1051
v 0.1998 0.5950 0.2751
v 0.1998 0.6450 0.2751
v 0.0000 0.5950 0.3400
v 0.0000 0.6450 0.3400
v -0.1998 0.5950 0.2751
v -0.1998 0.6450 0.2751
v -0.3234 0.5950 0.1051
v -0.3234 0.6450 0.1051
v -0.3234 0.5950 -0.1051
v -0.3234 0.6450 -0.1051
v -0.1998 0.5950 -0.2751
v -0.1998 0.6450 -0.2751
v -0.0000 0.5950 -0.3400
v -0.0000 0.6450 -0.3400
v 0.1998 0.5950 -0.2751
v 0.1998 0.6450 -0.2751
v 0.3234 0.5950 -0.1051
v 0.3234 0.6450 -0.1051
f 41 43 44 42
f 43 45 46 44
f 45 47 48 46
f 47 49 50 48
f 49 51 52 50
f 51 53 54 52
f 53 55 56 54
f 55 57 58 56
f 57 59 60 58
f 59 41 42 60
f 59 57 55 53 51 49 47 45 43 41
f 42 44 46 48 50 52 54 56 58 60
o main-stem
usemtl pear
v 0.0303 0.6300 0.0175
v 0.0303 1.2500 0.0175
v 0.0000 0.6300 0.0350
v 0.0000 1.2500 0.0350
v -0.0303 0.6300 0.0175
v -0.0303 1.2500 0.0175
v -0.0303 0.6300 -0.0175
v -0.0303 1.2500 -0.0175
v -0.0000 0.6300 -0.0350
v -0.0000 1.2500 -0.0350
v 0.0303 0.6300 -0.0175
v 0.0303 1.2500 -0.0175
f 61 63 64 62
f 63 65 66 64
f 65 67 68 66
f 67 69 70 68
f 69 71 72 70
f 71 61 62 72
f 71 69 67 65 63 61
f 62 64 66 68 70 72
o leaf-1
usemtl pear
v 0.0000 0.9000 0.1400
v 0.0400 1.4000 0.4200
v -0.2400 1.1500 0.0600
v 0.2400 1.1500 0.2200
v 0.0168 1.1900 0.2576
f 73 75 77
f 75 74 77
f 74 76 77
f 76 73 77
o leaf-2
usemtl pear
v 0.0500 0.8900 -0.1600
v 0.0100 1.3700 -0.4600
v -0.1700 1.1300 -0.2400
v 0.2700 1.1300 -0.0800
v 0.0332 1.1684 -0.2860
f 78 80 82
f 80 79 82
f 79 81 82
f 81 78 82
o leaf-3
usemtl pear
v -0.2500 0.7700 0.0200
v -0.5700 1.1900 0.0700
v -0.4500 0.9800 -0.0800
v -0.0500 0.9800 0.1200
v -0.3844 1.0136 0.0410
f 83 85 87
f 85 84 87
f 84 86 87
f 86 83 87
o leaf-4
usemtl pear
v 0.2700 0.7900 0.0400
v 0.5900 1.2100 0.1200
v 0.0700 1.0000 -0.0600
v 0.4700 1.0000 0.1400
v 0.4044 1.0336 0.0736
f 88 90 92
f 90 89 92
f 89 91 92
f 91 88 92
o leaf-5
usemtl pear
v -0.1400 1.0900 -0.0400
v -0.3800 1.4700 -0.1600
v -0.3200 1.2800 -0.1200
v 0.0400 1.2800 0.0400
v -0.2408 1.3104 -0.0904
f 93 95 97
f 95 94 97
f 94 96 97
f 96 93 97
o leaf-6
usemtl pear
v 0.1800 1.1300 0.0000
v 0.4400 1.4900 0.1200
v 0.0000 1.3100 -0.0800
v 0.3600 1.3100 0.0800
v 0.2892 1.3388 0.0504
f 98 100 102
f 100 99 102
f 99 101 102
f 101 98 102
