# Cozy low-poly interpretation of Office Pack object: Lamp
# Generated by scripts/generate-cozy-office-pack-assets.mjs
mtllib cozy-palette.mtl
o soft-lamp-base
usemtl charcoal
v 0.1478 0.0450 0.0612
v 0.1478 0.1150 0.0612
v 0.0612 0.0450 0.1478
v 0.0612 0.1150 0.1478
v -0.0612 0.0450 0.1478
v -0.0612 0.1150 0.1478
v -0.1478 0.0450 0.0612
v -0.1478 0.1150 0.0612
v -0.1478 0.0450 -0.0612
v -0.1478 0.1150 -0.0612
v -0.0612 0.0450 -0.1478
v -0.0612 0.1150 -0.1478
v 0.0612 0.0450 -0.1478
v 0.0612 0.1150 -0.1478
v 0.1478 0.0450 -0.0612
v 0.1478 0.1150 -0.0612
f 1 3 4 2
f 3 5 6 4
f 5 7 8 6
f 7 9 10 8
f 9 11 12 10
f 11 13 14 12
f 13 15 16 14
f 15 1 2 16
f 15 13 11 9 7 5 3 1
f 2 4 6 8 10 12 14 16
o warm-lamp-neck
usemtl blush
v 0.0303 0.1100 0.0175
v 0.0303 0.6100 0.0175
v 0.0000 0.1100 0.0350
v 0.0000 0.6100 0.0350
v -0.0303 0.1100 0.0175
v -0.0303 0.6100 0.0175
v -0.0303 0.1100 -0.0175
v -0.0303 0.6100 -0.0175
v -0.0000 0.1100 -0.0350
v -0.0000 0.6100 -0.0350
v 0.0303 0.1100 -0.0175
v 0.0303 0.6100 -0.0175
f 17 19 20 18
f 19 21 22 20
f 21 23 24 22
f 23 25 26 24
f 25 27 28 26
f 27 17 18 28
f 27 25 23 21 19 17
f 18 20 22 24 26 28
o faceted-lamp-shade
usemtl blush
v 0.2033 0.5400 0.0842
v 0.1260 0.7800 0.0522
v 0.0842 0.5400 0.2033
v 0.0522 0.7800 0.1260
v -0.0842 0.5400 0.2033
v -0.0522 0.7800 0.1260
v -0.2033 0.5400 0.0842
v -0.1260 0.7800 0.0522
v -0.2033 0.5400 -0.0842
v -0.1260 0.7800 -0.0522
v -0.0842 0.5400 -0.2033
v -0.0522 0.7800 -0.1260
v 0.0842 0.5400 -0.2033
v 0.0522 0.7800 -0.1260
v 0.2033 0.5400 -0.0842
v 0.1260 0.7800 -0.0522
f 29 31 32 30
f 31 33 34 32
f 33 35 36 34
f 35 37 38 36
f 37 39 40 38
f 39 41 42 40
f 41 43 44 42
f 43 29 30 44
f 43 41 39 37 35 33 31 29
f 30 32 34 36 38 40 42 44
