# Cozy low-poly interpretation of Office Pack object: Laptop 
# Generated by scripts/generate-cozy-office-pack-assets.mjs
mtllib cozy-palette.mtl
o laptop-base
usemtl plum
v -0.6000 0.0200 -0.3800
v 0.6000 0.0200 -0.3800
v 0.6000 0.1400 -0.3800
v -0.6000 0.1400 -0.3800
v -0.6000 0.0200 0.3800
v 0.6000 0.0200 0.3800
v 0.6000 0.1400 0.3800
v -0.6000 0.1400 0.3800
f 1 2 3 4
f 5 8 7 6
f 1 5 6 2
f 2 6 7 3
f 3 7 8 4
f 4 8 5 1
o open-screen
usemtl midnight
v -0.5750 0.1500 -0.4000
v 0.5750 0.1500 -0.4000
v 0.5750 0.9300 -0.4000
v -0.5750 0.9300 -0.4000
v -0.5750 0.1500 -0.3200
v 0.5750 0.1500 -0.3200
v 0.5750 0.9300 -0.3200
v -0.5750 0.9300 -0.3200
f 9 10 11 12
f 13 16 15 14
f 9 13 14 10
f 10 14 15 11
f 11 15 16 12
f 12 16 13 9
o trackpad
usemtl plum
v -0.1700 0.1475 0.0400
v 0.1700 0.1475 0.0400
v 0.1700 0.1725 0.0400
v -0.1700 0.1725 0.0400
v -0.1700 0.1475 0.2400
v 0.1700 0.1475 0.2400
v 0.1700 0.1725 0.2400
v -0.1700 0.1725 0.2400
f 17 18 19 20
f 21 24 23 22
f 17 21 22 18
f 18 22 23 19
f 19 23 24 20
f 20 24 21 17
