# Cozy low-poly interpretation of Office Pack object: Light Floor
# Generated by scripts/generate-cozy-office-pack-assets.mjs
mtllib cozy-palette.mtl
o floor-lamp-base
usemtl charcoal
v 0.3329 0.0000 0.1082
v 0.3329 0.1000 0.1082
v 0.2057 0.0000 0.2832
v 0.2057 0.1000 0.2832
v 0.0000 0.0000 0.3500
v 0.0000 0.1000 0.3500
v -0.2057 0.0000 0.2832
v -0.2057 0.1000 0.2832
v -0.3329 0.0000 0.1082
v -0.3329 0.1000 0.1082
v -0.3329 0.0000 -0.1082
v -0.3329 0.1000 -0.1082
v -0.2057 0.0000 -0.2832
v -0.2057 0.1000 -0.2832
v -0.0000 0.0000 -0.3500
v -0.0000 0.1000 -0.3500
v 0.2057 0.0000 -0.2832
v 0.2057 0.1000 -0.2832
v 0.3329 0.0000 -0.1082
v 0.3329 0.1000 -0.1082
f 1 3 4 2
f 3 5 6 4
f 5 7 8 6
f 7 9 10 8
f 9 11 12 10
f 11 13 14 12
f 13 15 16 14
f 15 17 18 16
f 17 19 20 18
f 19 1 2 20
f 19 17 15 13 11 9 7 5 3 1
f 2 4 6 8 10 12 14 16 18 20
o tall-lamp-pole
usemtl charcoal
v 0.0323 0.0500 0.0134
v 0.0323 1.5500 0.0134
v 0.0134 0.0500 0.0323
v 0.0134 1.5500 0.0323
v -0.0134 0.0500 0.0323
v -0.0134 1.5500 0.0323
v -0.0323 0.0500 0.0134
v -0.0323 1.5500 0.0134
v -0.0323 0.0500 -0.0134
v -0.0323 1.5500 -0.0134
v -0.0134 0.0500 -0.0323
v -0.0134 1.5500 -0.0323
v 0.0134 0.0500 -0.0323
v 0.0134 1.5500 -0.0323
v 0.0323 0.0500 -0.0134
v 0.0323 1.5500 -0.0134
f 21 23 24 22
f 23 25 26 24
f 25 27 28 26
f 27 29 30 28
f 29 31 32 30
f 31 33 34 32
f 33 35 36 34
f 35 21 22 36
f 35 33 31 29 27 25 23 21
f 22 24 26 28 30 32 34 36
o soft-floor-shade
usemtl blush
v 0.3234 1.4300 0.1051
v 0.2264 1.8100 0.0735
v 0.1998 1.4300 0.2751
v 0.1399 1.8100 0.1925
v 0.0000 1.4300 0.3400
v 0.0000 1.8100 0.2380
v -0.1998 1.4300 0.2751
v -0.1399 1.8100 0.1925
v -0.3234 1.4300 0.1051
v -0.2264 1.8100 0.0735
v -0.3234 1.4300 -0.1051
v -0.2264 1.8100 -0.0735
v -0.1998 1.4300 -0.2751
v -0.1399 1.8100 -0.1925
v -0.0000 1.4300 -0.3400
v -0.0000 1.8100 -0.2380
v 0.1998 1.4300 -0.2751
v 0.1399 1.8100 -0.1925
v 0.3234 1.4300 -0.1051
v 0.2264 1.8100 -0.0735
f 37 39 40 38
f 39 41 42 40
f 41 43 44 42
f 43 45 46 44
f 45 47 48 46
f 47 49 50 48
f 49 51 52 50
f 51 53 54 52
f 53 55 56 54
f 55 37 38 56
f 55 53 51 49 47 45 43 41 39 37
f 38 40 42 44 46 48 50 52 54 56
