# Cozy low-poly interpretation of Office Pack object: Light Icosahedron
# Generated by scripts/generate-cozy-office-pack-assets.mjs
mtllib cozy-palette.mtl
o upper-glow-pyramid
usemtl blush
v -0.3900 0.1600 -0.3900
v 0.3900 0.1600 -0.3900
v 0.3900 0.1600 0.3900
v -0.3900 0.1600 0.3900
v 0.0000 0.8800 0.0000
f 1 2 3 4
f 1 5 2
f 2 5 3
f 3 5 4
f 4 5 1
o lower-glow-pyramid
usemtl blush
v -0.3900 -0.1800 -0.3900
v 0.3900 -0.1800 -0.3900
v 0.3900 -0.1800 0.3900
v -0.3900 -0.1800 0.3900
v 0.0000 0.5400 0.0000
f 6 7 8 9
f 6 10 7
f 7 10 8
f 8 10 9
f 9 10 6
