# Cozy low-poly interpretation of Office Pack object: Magazine
# Generated by scripts/generate-cozy-office-pack-assets.mjs
mtllib cozy-palette.mtl
o paper-pad
usemtl softGray
v -0.3600 0.0200 -0.4800
v 0.3600 0.0200 -0.4800
v 0.3600 0.1000 -0.4800
v -0.3600 0.1000 -0.4800
v -0.3600 0.0200 0.4800
v 0.3600 0.0200 0.4800
v 0.3600 0.1000 0.4800
v -0.3600 0.1000 0.4800
f 1 2 3 4
f 5 8 7 6
f 1 5 6 2
f 2 6 7 3
f 3 7 8 4
f 4 8 5 1
o soft-cover
usemtl plum
v -0.3900 0.1000 -0.5100
v 0.3900 0.1000 -0.5100
v 0.3900 0.1400 -0.5100
v -0.3900 0.1400 -0.5100
v -0.3900 0.1000 0.5100
v 0.3900 0.1000 0.5100
v 0.3900 0.1400 0.5100
v -0.3900 0.1400 0.5100
f 9 10 11 12
f 13 16 15 14
f 9 13 14 10
f 10 14 15 11
f 11 15 16 12
f 12 16 13 9
