# Cozy low-poly interpretation of Office Pack object: Manhole cover
# Generated by scripts/generate-cozy-office-pack-assets.mjs
mtllib cozy-palette.mtl
o faceted-manhole-cover
usemtl plum
v 0.5655 0.0000 0.1291
v 0.5655 0.0800 0.1291
v 0.4535 0.0000 0.3616
v 0.4535 0.0800 0.3616
v 0.2517 0.0000 0.5226
v 0.2517 0.0800 0.5226
v 0.0000 0.0000 0.5800
v 0.0000 0.0800 0.5800
v -0.2517 0.0000 0.5226
v -0.2517 0.0800 0.5226
v -0.4535 0.0000 0.3616
v -0.4535 0.0800 0.3616
v -0.5655 0.0000 0.1291
v -0.5655 0.0800 0.1291
v -0.5655 0.0000 -0.1291
v -0.5655 0.0800 -0.1291
v -0.4535 0.0000 -0.3616
v -0.4535 0.0800 -0.3616
v -0.2517 0.0000 -0.5226
v -0.2517 0.0800 -0.5226
v -0.0000 0.0000 -0.5800
v -0.0000 0.0800 -0.5800
v 0.2517 0.0000 -0.5226
v 0.2517 0.0800 -0.5226
v 0.4535 0.0000 -0.3616
v 0.4535 0.0800 -0.3616
v 0.5655 0.0000 -0.1291
v 0.5655 0.0800 -0.1291
f 1 3 4 2
f 3 5 6 4
f 5 7 8 6
f 7 9 10 8
f 9 11 12 10
f 11 13 14 12
f 13 15 16 14
f 15 17 18 16
f 17 19 20 18
f 19 21 22 20
f 21 23 24 22
f 23 25 26 24
f 25 27 28 26
f 27 1 2 28
f 27 25 23 21 19 17 15 13 11 9 7 5 3 1
f 2 4 6 8 10 12 14 16 18 20 22 24 26 28
o inner-ring
usemtl plum
v 0.3705 0.0725 0.0846
v 0.3705 0.1075 0.0846
v 0.2971 0.0725 0.2369
v 0.2971 0.1075 0.2369
v 0.1649 0.0725 0.3424
v 0.1649 0.1075 0.3424
v 0.0000 0.0725 0.3800
v 0.0000 0.1075 0.3800
v -0.1649 0.0725 0.3424
v -0.1649 0.1075 0.3424
v -0.2971 0.0725 0.2369
v -0.2971 0.1075 0.2369
v -0.3705 0.0725 0.0846
v -0.3705 0.1075 0.0846
v -0.3705 0.0725 -0.0846
v -0.3705 0.1075 -0.0846
v -0.2971 0.0725 -0.2369
v -0.2971 0.1075 -0.2369
v -0.1649 0.0725 -0.3424
v -0.1649 0.1075 -0.3424
v -0.0000 0.0725 -0.3800
v -0.0000 0.1075 -0.3800
v 0.1649 0.0725 -0.3424
v 0.1649 0.1075 -0.3424
v 0.2971 0.0725 -0.2369
v 0.2971 0.1075 -0.2369
v 0.3705 0.0725 -0.0846
v 0.3705 0.1075 -0.0846
f 29 31 32 30
f 31 33 34 32
f 33 35 36 34
f 35 37 38 36
f 37 39 40 38
f 39 41 42 40
f 41 43 44 42
f 43 45 46 44
f 45 47 48 46
f 47 49 50 48
f 49 51 52 50
f 51 53 54 52
f 53 55 56 54
f 55 29 30 56
f 55 53 51 49 47 45 43 41 39 37 35 33 31 29
f 30 32 34 36 38 40 42 44 46 48 50 52 54 56
o cover-groove-1
usemtl plum
v 0.0000 0.1075 -0.0300
v 0.3600 0.1075 -0.0300
v 0.3600 0.1325 -0.0300
v 0.0000 0.1325 -0.0300
v 0.0000 0.1075 0.0300
v 0.3600 0.1075 0.0300
v 0.3600 0.1325 0.0300
v 0.0000 0.1325 0.0300
f 57 58 59 60
f 61 64 63 62
f 57 61 62 58
f 58 62 63 59
f 59 63 64 60
f 60 64 61 57
o cover-groove-2
usemtl plum
v 0.0600 0.1075 -0.0241
v 0.1200 0.1075 -0.0241
v 0.1200 0.1325 -0.0241
v 0.0600 0.1325 -0.0241
v 0.0600 0.1075 0.3359
v 0.1200 0.1075 0.3359
v 0.1200 0.1325 0.3359
v 0.0600 0.1325 0.3359
f 65 66 67 68
f 69 72 71 70
f 65 69 70 66
f 66 70 71 67
f 67 71 72 68
f 68 72 69 65
o cover-groove-3
usemtl plum
v -0.1200 0.1075 -0.0241
v -0.0600 0.1075 -0.0241
v -0.0600 0.1325 -0.0241
v -0.1200 0.1325 -0.0241
v -0.1200 0.1075 0.3359
v -0.0600 0.1075 0.3359
v -0.0600 0.1325 0.3359
v -0.1200 0.1325 0.3359
f 73 74 75 76
f 77 80 79 78
f 73 77 78 74
f 74 78 79 75
f 75 79 80 76
f 76 80 77 73
o cover-groove-4
usemtl plum
v -0.3600 0.1075 -0.0300
v 0.0000 0.1075 -0.0300
v 0.0000 0.1325 -0.0300
v -0.3600 0.1325 -0.0300
v -0.3600 0.1075 0.0300
v 0.0000 0.1075 0.0300
v 0.0000 0.1325 0.0300
v -0.3600 0.1325 0.0300
f 81 82 83 84
f 85 88 87 86
f 81 85 86 82
f 82 86 87 83
f 83 87 88 84
f 84 88 85 81
o cover-groove-5
usemtl plum
v -0.1200 0.1075 -0.3359
v -0.0600 0.1075 -0.3359
v -0.0600 0.1325 -0.3359
v -0.1200 0.1325 -0.3359
v -0.1200 0.1075 0.0241
v -0.0600 0.1075 0.0241
v -0.0600 0.1325 0.0241
v -0.1200 0.1325 0.0241
f 89 90 91 92
f 93 96 95 94
f 89 93 94 90
f 90 94 95 91
f 91 95 96 92
f 92 96 93 89
o cover-groove-6
usemtl plum
v 0.0600 0.1075 -0.3359
v 0.1200 0.1075 -0.3359
v 0.1200 0.1325 -0.3359
v 0.0600 0.1325 -0.3359
v 0.0600 0.1075 0.0241
v 0.1200 0.1075 0.0241
v 0.1200 0.1325 0.0241
v 0.0600 0.1325 0.0241
f 97 98 99 100
f 101 104 103 102
f 97 101 102 98
f 98 102 103 99
f 99 103 104 100
f 100 104 101 97
