# Cozy low-poly interpretation of Office Pack object: Medium Book Shelf
# Generated by scripts/generate-cozy-office-pack-assets.mjs
mtllib cozy-palette.mtl
o storage-body
usemtl plum
v -0.7500 0.0000 -0.2400
v 0.7500 0.0000 -0.2400
v 0.7500 1.7000 -0.2400
v -0.7500 1.7000 -0.2400
v -0.7500 0.0000 0.2400
v 0.7500 0.0000 0.2400
v 0.7500 1.7000 0.2400
v -0.7500 1.7000 0.2400
f 1 2 3 4
f 5 8 7 6
f 1 5 6 2
f 2 6 7 3
f 3 7 8 4
f 4 8 5 1
o open-shelf-0-45
usemtl terracotta
v -0.7100 0.4100 0.2000
v 0.7100 0.4100 0.2000
v 0.7100 0.4900 0.2000
v -0.7100 0.4900 0.2000
v -0.7100 0.4100 0.3600
v 0.7100 0.4100 0.3600
v 0.7100 0.4900 0.3600
v -0.7100 0.4900 0.3600
f 9 10 11 12
f 13 16 15 14
f 9 13 14 10
f 10 14 15 11
f 11 15 16 12
f 12 16 13 9
o open-shelf-0-85
usemtl terracotta
v -0.7100 0.8100 0.2000
v 0.7100 0.8100 0.2000
v 0.7100 0.8900 0.2000
v -0.7100 0.8900 0.2000
v -0.7100 0.8100 0.3600
v 0.7100 0.8100 0.3600
v 0.7100 0.8900 0.3600
v -0.7100 0.8900 0.3600
f 17 18 19 20
f 21 24 23 22
f 17 21 22 18
f 18 22 23 19
f 19 23 24 20
f 20 24 21 17
o open-shelf-1-25
usemtl terracotta
v -0.7100 1.2100 0.2000
v 0.7100 1.2100 0.2000
v 0.7100 1.2900 0.2000
v -0.7100 1.2900 0.2000
v -0.7100 1.2100 0.3600
v 0.7100 1.2100 0.3600
v 0.7100 1.2900 0.3600
v -0.7100 1.2900 0.3600
f 25 26 27 28
f 29 32 31 30
f 25 29 30 26
f 26 30 31 27
f 27 31 32 28
f 28 32 29 25
o cozy-book-1
usemtl terracotta
v -0.6400 0.4900 0.1400
v -0.1200 0.4900 0.1400
v -0.1200 0.5500 0.1400
v -0.6400 0.5500 0.1400
v -0.6400 0.4900 0.4800
v -0.1200 0.4900 0.4800
v -0.1200 0.5500 0.4800
v -0.6400 0.5500 0.4800
f 33 34 35 36
f 37 40 39 38
f 33 37 38 34
f 34 38 39 35
f 35 39 40 36
f 36 40 37 33
o cozy-book-2
usemtl terracotta
v -0.6225 0.5650 0.1490
v -0.1375 0.5650 0.1490
v -0.1375 0.6250 0.1490
v -0.6225 0.6250 0.1490
v -0.6225 0.5650 0.4710
v -0.1375 0.5650 0.4710
v -0.1375 0.6250 0.4710
v -0.6225 0.6250 0.4710
f 41 42 43 44
f 45 48 47 46
f 41 45 46 42
f 42 46 47 43
f 43 47 48 44
f 44 48 45 41
o cozy-book-3
usemtl terracotta
v -0.6050 0.6400 0.1580
v -0.1550 0.6400 0.1580
v -0.1550 0.7000 0.1580
v -0.6050 0.7000 0.1580
v -0.6050 0.6400 0.4620
v -0.1550 0.6400 0.4620
v -0.1550 0.7000 0.4620
v -0.6050 0.7000 0.4620
f 49 50 51 52
f 53 56 55 54
f 49 53 54 50
f 50 54 55 51
f 51 55 56 52
f 52 56 53 49
o cozy-book-4
usemtl terracotta
v -0.5875 0.7150 0.1670
v -0.1725 0.7150 0.1670
v -0.1725 0.7750 0.1670
v -0.5875 0.7750 0.1670
v -0.5875 0.7150 0.4530
v -0.1725 0.7150 0.4530
v -0.1725 0.7750 0.4530
v -0.5875 0.7750 0.4530
f 57 58 59 60
f 61 64 63 62
f 57 61 62 58
f 58 62 63 59
f 59 63 64 60
f 60 64 61 57
o cozy-book-1
usemtl terracotta
v 0.0200 0.8900 0.1400
v 0.5400 0.8900 0.1400
v 0.5400 0.9500 0.1400
v 0.0200 0.9500 0.1400
v 0.0200 0.8900 0.4800
v 0.5400 0.8900 0.4800
v 0.5400 0.9500 0.4800
v 0.0200 0.9500 0.4800
f 65 66 67 68
f 69 72 71 70
f 65 69 70 66
f 66 70 71 67
f 67 71 72 68
f 68 72 69 65
o cozy-book-2
usemtl terracotta
v 0.0375 0.9650 0.1490
v 0.5225 0.9650 0.1490
v 0.5225 1.0250 0.1490
v 0.0375 1.0250 0.1490
v 0.0375 0.9650 0.4710
v 0.5225 0.9650 0.4710
v 0.5225 1.0250 0.4710
v 0.0375 1.0250 0.4710
f 73 74 75 76
f 77 80 79 78
f 73 77 78 74
f 74 78 79 75
f 75 79 80 76
f 76 80 77 73
o cozy-book-3
usemtl terracotta
v 0.0550 1.0400 0.1580
v 0.5050 1.0400 0.1580
v 0.5050 1.1000 0.1580
v 0.0550 1.1000 0.1580
v 0.0550 1.0400 0.4620
v 0.5050 1.0400 0.4620
v 0.5050 1.1000 0.4620
v 0.0550 1.1000 0.4620
f 81 82 83 84
f 85 88 87 86
f 81 85 86 82
f 82 86 87 83
f 83 87 88 84
f 84 88 85 81
