# Cozy low-poly interpretation of Office Pack object: Monitor
# Generated by scripts/generate-cozy-office-pack-assets.mjs
mtllib cozy-palette.mtl
o monitor-screen
usemtl midnight
v -0.5600 0.4200 -0.0400
v 0.5600 0.4200 -0.0400
v 0.5600 1.1400 -0.0400
v -0.5600 1.1400 -0.0400
v -0.5600 0.4200 0.0400
v 0.5600 0.4200 0.0400
v 0.5600 1.1400 0.0400
v -0.5600 1.1400 0.0400
f 1 2 3 4
f 5 8 7 6
f 1 5 6 2
f 2 6 7 3
f 3 7 8 4
f 4 8 5 1
o monitor-neck
usemtl charcoal
v 0.0508 0.0900 0.0210
v 0.0508 0.5900 0.0210
v 0.0210 0.0900 0.0508
v 0.0210 0.5900 0.0508
v -0.0210 0.0900 0.0508
v -0.0210 0.5900 0.0508
v -0.0508 0.0900 0.0210
v -0.0508 0.5900 0.0210
v -0.0508 0.0900 -0.0210
v -0.0508 0.5900 -0.0210
v -0.0210 0.0900 -0.0508
v -0.0210 0.5900 -0.0508
v 0.0210 0.0900 -0.0508
v 0.0210 0.5900 -0.0508
v 0.0508 0.0900 -0.0210
v 0.0508 0.5900 -0.0210
f 9 11 12 10
f 11 13 14 12
f 13 15 16 14
f 15 17 18 16
f 17 19 20 18
f 19 21 22 20
f 21 23 24 22
f 23 9 10 24
f 23 21 19 17 15 13 11 9
f 10 12 14 16 18 20 22 24
o monitor-foot
usemtl charcoal
v -0.2900 0.0200 -0.1800
v 0.2900 0.0200 -0.1800
v 0.2900 0.1400 -0.1800
v -0.2900 0.1400 -0.1800
v -0.2900 0.0200 0.1800
v 0.2900 0.0200 0.1800
v 0.2900 0.1400 0.1800
v -0.2900 0.1400 0.1800
f 25 26 27 28
f 29 32 31 30
f 25 29 30 26
f 26 30 31 27
f 27 31 32 28
f 28 32 29 25
