# Cozy low-poly interpretation of Office Pack object: Mousepad
# Generated by scripts/generate-cozy-office-pack-assets.mjs
mtllib cozy-palette.mtl
o soft-mousepad
usemtl charcoal
v -0.4400 0.0000 -0.3100
v 0.4400 0.0000 -0.3100
v 0.4400 0.0500 -0.3100
v -0.4400 0.0500 -0.3100
v -0.4400 0.0000 0.3100
v 0.4400 0.0000 0.3100
v 0.4400 0.0500 0.3100
v -0.4400 0.0500 0.3100
f 1 2 3 4
f 5 8 7 6
f 1 5 6 2
f 2 6 7 3
f 3 7 8 4
f 4 8 5 1
o stitched-edge
usemtl plum
v -0.4900 0.0425 -0.3600
v 0.4900 0.0425 -0.3600
v 0.4900 0.0775 -0.3600
v -0.4900 0.0775 -0.3600
v -0.4900 0.0425 0.3600
v 0.4900 0.0425 0.3600
v 0.4900 0.0775 0.3600
v -0.4900 0.0775 0.3600
f 9 10 11 12
f 13 16 15 14
f 9 13 14 10
f 10 14 15 11
f 11 15 16 12
f 12 16 13 9
