# Cozy low-poly interpretation of Office Pack object: Office Printer 
# Generated by scripts/generate-cozy-office-pack-assets.mjs
mtllib cozy-palette.mtl
o printer-body
usemtl charcoal
v -0.5750 0.1200 -0.4100
v 0.5750 0.1200 -0.4100
v 0.5750 0.7200 -0.4100
v -0.5750 0.7200 -0.4100
v -0.5750 0.1200 0.4100
v 0.5750 0.1200 0.4100
v 0.5750 0.7200 0.4100
v -0.5750 0.7200 0.4100
f 1 2 3 4
f 5 8 7 6
f 1 5 6 2
f 2 6 7 3
f 3 7 8 4
f 4 8 5 1
o scanner-lid
usemtl poppy
v -0.6200 0.7200 -0.4000
v 0.6200 0.7200 -0.4000
v 0.6200 0.8400 -0.4000
v -0.6200 0.8400 -0.4000
v -0.6200 0.7200 0.3200
v 0.6200 0.7200 0.3200
v 0.6200 0.8400 0.3200
v -0.6200 0.8400 0.3200
f 9 10 11 12
f 13 16 15 14
f 9 13 14 10
f 10 14 15 11
f 11 15 16 12
f 12 16 13 9
o paper-tray
usemtl softGray
v -0.4300 0.1000 0.3600
v 0.4300 0.1000 0.3600
v 0.4300 0.2600 0.3600
v -0.4300 0.2600 0.3600
v -0.4300 0.1000 0.6000
v 0.4300 0.1000 0.6000
v 0.4300 0.2600 0.6000
v -0.4300 0.2600 0.6000
f 17 18 19 20
f 21 24 23 22
f 17 21 22 18
f 18 22 23 19
f 19 23 24 20
f 20 24 21 17
o printed-page
usemtl softGray
v -0.3300 0.0825 0.5000
v 0.3300 0.0825 0.5000
v 0.3300 0.1175 0.5000
v -0.3300 0.1175 0.5000
v -0.3300 0.0825 0.8600
v 0.3300 0.0825 0.8600
v 0.3300 0.1175 0.8600
v -0.3300 0.1175 0.8600
f 25 26 27 28
f 29 32 31 30
f 25 29 30 26
f 26 30 31 27
f 27 31 32 28
f 28 32 29 25
