# Cozy low-poly interpretation of Office Pack object: Pens
# Generated by scripts/generate-cozy-office-pack-assets.mjs
mtllib cozy-palette.mtl
o pen-cup
usemtl blush
v 0.1663 0.0500 0.0689
v 0.1863 0.3900 0.0771
v 0.0689 0.0500 0.1663
v 0.0771 0.3900 0.1863
v -0.0689 0.0500 0.1663
v -0.0771 0.3900 0.1863
v -0.1663 0.0500 0.0689
v -0.1863 0.3900 0.0771
v -0.1663 0.0500 -0.0689
v -0.1863 0.3900 -0.0771
v -0.0689 0.0500 -0.1663
v -0.0771 0.3900 -0.1863
v 0.0689 0.0500 -0.1663
v 0.0771 0.3900 -0.1863
v 0.1663 0.0500 -0.0689
v 0.1863 0.3900 -0.0771
f 1 3 4 2
f 3 5 6 4
f 5 7 8 6
f 7 9 10 8
f 9 11 12 10
f 11 13 14 12
f 13 15 16 14
f 15 1 2 16
f 15 13 11 9 7 5 3 1
f 2 4 6 8 10 12 14 16
o friendly-pen-1
usemtl plum
v -0.1044 0.2100 0.0290
v -0.1044 0.8300 0.0290
v -0.1200 0.2100 0.0380
v -0.1200 0.8300 0.0380
v -0.1356 0.2100 0.0290
v -0.1356 0.8300 0.0290
v -0.1356 0.2100 0.0110
v -0.1356 0.8300 0.0110
v -0.1200 0.2100 0.0020
v -0.1200 0.8300 0.0020
v -0.1044 0.2100 0.0110
v -0.1044 0.8300 0.0110
f 17 19 20 18
f 19 21 22 20
f 21 23 24 22
f 23 25 26 24
f 25 27 28 26
f 27 17 18 28
f 27 25 23 21 19 17
f 18 20 22 24 26 28
o friendly-pen-2
usemtl plum
v -0.0444 0.2100 0.0140
v -0.0444 0.8300 0.0140
v -0.0600 0.2100 0.0230
v -0.0600 0.8300 0.0230
v -0.0756 0.2100 0.0140
v -0.0756 0.8300 0.0140
v -0.0756 0.2100 -0.0040
v -0.0756 0.8300 -0.0040
v -0.0600 0.2100 -0.0130
v -0.0600 0.8300 -0.0130
v -0.0444 0.2100 -0.0040
v -0.0444 0.8300 -0.0040
f 29 31 32 30
f 31 33 34 32
f 33 35 36 34
f 35 37 38 36
f 37 39 40 38
f 39 29 30 40
f 39 37 35 33 31 29
f 30 32 34 36 38 40
o friendly-pen-3
usemtl plum
v 0.0156 0.2100 -0.0010
v 0.0156 0.8300 -0.0010
v 0.0000 0.2100 0.0080
v 0.0000 0.8300 0.0080
v -0.0156 0.2100 -0.0010
v -0.0156 0.8300 -0.0010
v -0.0156 0.2100 -0.0190
v -0.0156 0.8300 -0.0190
v -0.0000 0.2100 -0.0280
v -0.0000 0.8300 -0.0280
v 0.0156 0.2100 -0.0190
v 0.0156 0.8300 -0.0190
f 41 43 44 42
f 43 45 46 44
f 45 47 48 46
f 47 49 50 48
f 49 51 52 50
f 51 41 42 52
f 51 49 47 45 43 41
f 42 44 46 48 50 52
o friendly-pen-4
usemtl plum
v 0.0756 0.2100 -0.0160
v 0.0756 0.8300 -0.0160
v 0.0600 0.2100 -0.0070
v 0.0600 0.8300 -0.0070
v 0.0444 0.2100 -0.0160
v 0.0444 0.8300 -0.0160
v 0.0444 0.2100 -0.0340
v 0.0444 0.8300 -0.0340
v 0.0600 0.2100 -0.0430
v 0.0600 0.8300 -0.0430
v 0.0756 0.2100 -0.0340
v 0.0756 0.8300 -0.0340
f 53 55 56 54
f 55 57 58 56
f 57 59 60 58
f 59 61 62 60
f 61 63 64 62
f 63 53 54 64
f 63 61 59 57 55 53
f 54 56 58 60 62 64
o friendly-pen-5
usemtl plum
v 0.1356 0.2100 -0.0310
v 0.1356 0.8300 -0.0310
v 0.1200 0.2100 -0.0220
v 0.1200 0.8300 -0.0220
v 0.1044 0.2100 -0.0310
v 0.1044 0.8300 -0.0310
v 0.1044 0.2100 -0.0490
v 0.1044 0.8300 -0.0490
v 0.1200 0.2100 -0.0580
v 0.1200 0.8300 -0.0580
v 0.1356 0.2100 -0.0490
v 0.1356 0.8300 -0.0490
f 65 67 68 66
f 67 69 70 68
f 69 71 72 70
f 71 73 74 72
f 73 75 76 74
f 75 65 66 76
f 75 73 71 69 67 65
f 66 68 70 72 74 76
