# Cozy low-poly interpretation of Office Pack object: Phone
# Generated by scripts/generate-cozy-office-pack-assets.mjs
mtllib cozy-palette.mtl
o phone-base
usemtl charcoal
v -0.3900 0.0300 -0.2700
v 0.3900 0.0300 -0.2700
v 0.3900 0.2100 -0.2700
v -0.3900 0.2100 -0.2700
v -0.3900 0.0300 0.2700
v 0.3900 0.0300 0.2700
v 0.3900 0.2100 0.2700
v -0.3900 0.2100 0.2700
f 1 2 3 4
f 5 8 7 6
f 1 5 6 2
f 2 6 7 3
f 3 7 8 4
f 4 8 5 1
o curvy-handset
usemtl plum
v -0.4300 0.2600 -0.1400
v 0.4300 0.2600 -0.1400
v 0.4300 0.4200 -0.1400
v -0.4300 0.4200 -0.1400
v -0.4300 0.2600 0.0600
v 0.4300 0.2600 0.0600
v 0.4300 0.4200 0.0600
v -0.4300 0.4200 0.0600
f 9 10 11 12
f 13 16 15 14
f 9 13 14 10
f 10 14 15 11
f 11 15 16 12
f 12 16 13 9
o dial-button
usemtl poppy
v -0.1338 0.2325 0.1991
v -0.1338 0.2675 0.1991
v -0.1609 0.2325 0.2262
v -0.1609 0.2675 0.2262
v -0.1991 0.2325 0.2262
v -0.1991 0.2675 0.2262
v -0.2262 0.2325 0.1991
v -0.2262 0.2675 0.1991
v -0.2262 0.2325 0.1609
v -0.2262 0.2675 0.1609
v -0.1991 0.2325 0.1338
v -0.1991 0.2675 0.1338
v -0.1609 0.2325 0.1338
v -0.1609 0.2675 0.1338
v -0.1338 0.2325 0.1609
v -0.1338 0.2675 0.1609
f 17 19 20 18
f 19 21 22 20
f 21 23 24 22
f 23 25 26 24
f 25 27 28 26
f 27 29 30 28
f 29 31 32 30
f 31 17 18 32
f 31 29 27 25 23 21 19 17
f 18 20 22 24 26 28 30 32
o dial-button-2
usemtl poppy
v 0.0462 0.2325 0.1991
v 0.0462 0.2675 0.1991
v 0.0191 0.2325 0.2262
v 0.0191 0.2675 0.2262
v -0.0191 0.2325 0.2262
v -0.0191 0.2675 0.2262
v -0.0462 0.2325 0.1991
v -0.0462 0.2675 0.1991
v -0.0462 0.2325 0.1609
v -0.0462 0.2675 0.1609
v -0.0191 0.2325 0.1338
v -0.0191 0.2675 0.1338
v 0.0191 0.2325 0.1338
v 0.0191 0.2675 0.1338
v 0.0462 0.2325 0.1609
v 0.0462 0.2675 0.1609
f 33 35 36 34
f 35 37 38 36
f 37 39 40 38
f 39 41 42 40
f 41 43 44 42
f 43 45 46 44
f 45 47 48 46
f 47 33 34 48
f 47 45 43 41 39 37 35 33
f 34 36 38 40 42 44 46 48
o dial-button-3
usemtl poppy
v 0.2262 0.2325 0.1991
v 0.2262 0.2675 0.1991
v 0.1991 0.2325 0.2262
v 0.1991 0.2675 0.2262
v 0.1609 0.2325 0.2262
v 0.1609 0.2675 0.2262
v 0.1338 0.2325 0.1991
v 0.1338 0.2675 0.1991
v 0.1338 0.2325 0.1609
v 0.1338 0.2675 0.1609
v 0.1609 0.2325 0.1338
v 0.1609 0.2675 0.1338
v 0.1991 0.2325 0.1338
v 0.1991 0.2675 0.1338
v 0.2262 0.2325 0.1609
v 0.2262 0.2675 0.1609
f 49 51 52 50
f 51 53 54 52
f 53 55 56 54
f 55 57 58 56
f 57 59 60 58
f 59 61 62 60
f 61 63 64 62
f 63 49 50 64
f 63 61 59 57 55 53 51 49
f 50 52 54 56 58 60 62 64
