# Cozy low-poly interpretation of Office Pack object: Rug Round
# Generated by scripts/generate-cozy-office-pack-assets.mjs
mtllib cozy-palette.mtl
o round-woven-rug
usemtl teal
v 0.8774 0.0000 0.2003
v 0.8774 0.0500 0.2003
v 0.7036 0.0000 0.5611
v 0.7036 0.0500 0.5611
v 0.3905 0.0000 0.8109
v 0.3905 0.0500 0.8109
v 0.0000 0.0000 0.9000
v 0.0000 0.0500 0.9000
v -0.3905 0.0000 0.8109
v -0.3905 0.0500 0.8109
v -0.7036 0.0000 0.5611
v -0.7036 0.0500 0.5611
v -0.8774 0.0000 0.2003
v -0.8774 0.0500 0.2003
v -0.8774 0.0000 -0.2003
v -0.8774 0.0500 -0.2003
v -0.7036 0.0000 -0.5611
v -0.7036 0.0500 -0.5611
v -0.3905 0.0000 -0.8109
v -0.3905 0.0500 -0.8109
v -0.0000 0.0000 -0.9000
v -0.0000 0.0500 -0.9000
v 0.3905 0.0000 -0.8109
v 0.3905 0.0500 -0.8109
v 0.7036 0.0000 -0.5611
v 0.7036 0.0500 -0.5611
v 0.8774 0.0000 -0.2003
v 0.8774 0.0500 -0.2003
f 1 3 4 2
f 3 5 6 4
f 5 7 8 6
f 7 9 10 8
f 9 11 12 10
f 11 13 14 12
f 13 15 16 14
f 15 17 18 16
f 17 19 20 18
f 19 21 22 20
f 21 23 24 22
f 23 25 26 24
f 25 27 28 26
f 27 1 2 28
f 27 25 23 21 19 17 15 13 11 9 7 5 3 1
f 2 4 6 8 10 12 14 16 18 20 22 24 26 28
o inner-cozy-ring
usemtl plum
v 0.5362 0.0450 0.1224
v 0.5362 0.0750 0.1224
v 0.4300 0.0450 0.3429
v 0.4300 0.0750 0.3429
v 0.2386 0.0450 0.4955
v 0.2386 0.0750 0.4955
v 0.0000 0.0450 0.5500
v 0.0000 0.0750 0.5500
v -0.2386 0.0450 0.4955
v -0.2386 0.0750 0.4955
v -0.4300 0.0450 0.3429
v -0.4300 0.0750 0.3429
v -0.5362 0.0450 0.1224
v -0.5362 0.0750 0.1224
v -0.5362 0.0450 -0.1224
v -0.5362 0.0750 -0.1224
v -0.4300 0.0450 -0.3429
v -0.4300 0.0750 -0.3429
v -0.2386 0.0450 -0.4955
v -0.2386 0.0750 -0.4955
v -0.0000 0.0450 -0.5500
v -0.0000 0.0750 -0.5500
v 0.2386 0.0450 -0.4955
v 0.2386 0.0750 -0.4955
v 0.4300 0.0450 -0.3429
v 0.4300 0.0750 -0.3429
v 0.5362 0.0450 -0.1224
v 0.5362 0.0750 -0.1224
f 29 31 32 30
f 31 33 34 32
f 33 35 36 34
f 35 37 38 36
f 37 39 40 38
f 39 41 42 40
f 41 43 44 42
f 43 45 46 44
f 45 47 48 46
f 47 49 50 48
f 49 51 52 50
f 51 53 54 52
f 53 55 56 54
f 55 29 30 56
f 55 53 51 49 47 45 43 41 39 37 35 33 31 29
f 30 32 34 36 38 40 42 44 46 48 50 52 54 56
