# Cozy low-poly interpretation of Office Pack object: Skateboard
# Generated by scripts/generate-cozy-office-pack-assets.mjs
mtllib cozy-palette.mtl
o chunky-skate-deck
usemtl berry
v -0.6400 0.1200 -0.2100
v 0.6400 0.1200 -0.2100
v 0.6400 0.2400 -0.2100
v -0.6400 0.2400 -0.2100
v -0.6400 0.1200 0.2100
v 0.6400 0.1200 0.2100
v 0.6400 0.2400 0.2100
v -0.6400 0.2400 0.2100
f 1 2 3 4
f 5 8 7 6
f 1 5 6 2
f 2 6 7 3
f 3 7 8 4
f 4 8 5 1
o wheel-0-42-0-18
usemtl sky
v -0.4600 0.1539 -0.1494
v -0.3800 0.1539 -0.1494
v -0.4600 0.1106 -0.1061
v -0.3800 0.1106 -0.1061
v -0.4600 0.0494 -0.1061
v -0.3800 0.0494 -0.1061
v -0.4600 0.0061 -0.1494
v -0.3800 0.0061 -0.1494
v -0.4600 0.0061 -0.2106
v -0.3800 0.0061 -0.2106
v -0.4600 0.0494 -0.2539
v -0.3800 0.0494 -0.2539
v -0.4600 0.1106 -0.2539
v -0.3800 0.1106 -0.2539
v -0.4600 0.1539 -0.2106
v -0.3800 0.1539 -0.2106
f 9 11 12 10
f 11 13 14 12
f 13 15 16 14
f 15 17 18 16
f 17 19 20 18
f 19 21 22 20
f 21 23 24 22
f 23 9 10 24
f 23 21 19 17 15 13 11 9
f 10 12 14 16 18 20 22 24
o wheel-0-42-0-18
usemtl sky
v -0.4600 0.1539 0.2106
v -0.3800 0.1539 0.2106
v -0.4600 0.1106 0.2539
v -0.3800 0.1106 0.2539
v -0.4600 0.0494 0.2539
v -0.3800 0.0494 0.2539
v -0.4600 0.0061 0.2106
v -0.3800 0.0061 0.2106
v -0.4600 0.0061 0.1494
v -0.3800 0.0061 0.1494
v -0.4600 0.0494 0.1061
v -0.3800 0.0494 0.1061
v -0.4600 0.1106 0.1061
v -0.3800 0.1106 0.1061
v -0.4600 0.1539 0.1494
v -0.3800 0.1539 0.1494
f 25 27 28 26
f 27 29 30 28
f 29 31 32 30
f 31 33 34 32
f 33 35 36 34
f 35 37 38 36
f 37 39 40 38
f 39 25 26 40
f 39 37 35 33 31 29 27 25
f 26 28 30 32 34 36 38 40
o wheel-0-42-0-18
usemtl sky
v 0.3800 0.1539 -0.1494
v 0.4600 0.1539 -0.1494
v 0.3800 0.1106 -0.1061
v 0.4600 0.1106 -0.1061
v 0.3800 0.0494 -0.1061
v 0.4600 0.0494 -0.1061
v 0.3800 0.0061 -0.1494
v 0.4600 0.0061 -0.1494
v 0.3800 0.0061 -0.2106
v 0.4600 0.0061 -0.2106
v 0.3800 0.0494 -0.2539
v 0.4600 0.0494 -0.2539
v 0.3800 0.1106 -0.2539
v 0.4600 0.1106 -0.2539
v 0.3800 0.1539 -0.2106
v 0.4600 0.1539 -0.2106
f 41 43 44 42
f 43 45 46 44
f 45 47 48 46
f 47 49 50 48
f 49 51 52 50
f 51 53 54 52
f 53 55 56 54
f 55 41 42 56
f 55 53 51 49 47 45 43 41
f 42 44 46 48 50 52 54 56
o wheel-0-42-0-18
usemtl sky
v 0.3800 0.1539 0.2106
v 0.4600 0.1539 0.2106
v 0.3800 0.1106 0.2539
v 0.4600 0.1106 0.2539
v 0.3800 0.0494 0.2539
v 0.4600 0.0494 0.2539
v 0.3800 0.0061 0.2106
v 0.4600 0.0061 0.2106
v 0.3800 0.0061 0.1494
v 0.4600 0.0061 0.1494
v 0.3800 0.0494 0.1061
v 0.4600 0.0494 0.1061
v 0.3800 0.1106 0.1061
v 0.4600 0.1106 0.1061
v 0.3800 0.1539 0.1494
v 0.4600 0.1539 0.1494
f 57 59 60 58
f 59 61 62 60
f 61 63 64 62
f 63 65 66 64
f 65 67 68 66
f 67 69 70 68
f 69 71 72 70
f 71 57 58 72
f 71 69 67 65 63 61 59 57
f 58 60 62 64 66 68 70 72
