# Cozy low-poly interpretation of Office Pack object: Soda Can
# Generated by scripts/generate-cozy-office-pack-assets.mjs
mtllib cozy-palette.mtl
o soft-soda-can
usemtl poppy
v 0.1522 0.0000 0.0494
v 0.1522 0.3800 0.0494
v 0.0940 0.0000 0.1294
v 0.0940 0.3800 0.1294
v 0.0000 0.0000 0.1600
v 0.0000 0.3800 0.1600
v -0.0940 0.0000 0.1294
v -0.0940 0.3800 0.1294
v -0.1522 0.0000 0.0494
v -0.1522 0.3800 0.0494
v -0.1522 0.0000 -0.0494
v -0.1522 0.3800 -0.0494
v -0.0940 0.0000 -0.1294
v -0.0940 0.3800 -0.1294
v -0.0000 0.0000 -0.1600
v -0.0000 0.3800 -0.1600
v 0.0940 0.0000 -0.1294
v 0.0940 0.3800 -0.1294
v 0.1522 0.0000 -0.0494
v 0.1522 0.3800 -0.0494
f 1 3 4 2
f 3 5 6 4
f 5 7 8 6
f 7 9 10 8
f 9 11 12 10
f 11 13 14 12
f 13 15 16 14
f 15 17 18 16
f 17 19 20 18
f 19 1 2 20
f 19 17 15 13 11 9 7 5 3 1
f 2 4 6 8 10 12 14 16 18 20
o tiny-pull-tab
usemtl plum
v -0.0600 0.3875 0.0150
v 0.0600 0.3875 0.0150
v 0.0600 0.4125 0.0150
v -0.0600 0.4125 0.0150
v -0.0600 0.3875 0.0650
v 0.0600 0.3875 0.0650
v 0.0600 0.4125 0.0650
v -0.0600 0.4125 0.0650
f 21 22 23 24
f 25 28 27 26
f 21 25 26 22
f 22 26 27 23
f 23 27 28 24
f 24 28 25 21
