# Cozy low-poly interpretation of Office Pack object: Standing Desk
# Generated by scripts/generate-cozy-office-pack-assets.mjs
mtllib cozy-palette.mtl
o soft-chunky-desktop
usemtl terracotta
v -1.3500 0.9400 -0.5900
v 1.3500 0.9400 -0.5900
v 1.3500 1.1200 -0.5900
v -1.3500 1.1200 -0.5900
v -1.3500 0.9400 0.5900
v 1.3500 0.9400 0.5900
v 1.3500 1.1200 0.5900
v -1.3500 1.1200 0.5900
f 1 2 3 4
f 5 8 7 6
f 1 5 6 2
f 2 6 7 3
f 3 7 8 4
f 4 8 5 1
o warm-front-apron
usemtl plum
v -1.2750 0.7900 0.4800
v 1.2750 0.7900 0.4800
v 1.2750 0.9900 0.4800
v -1.2750 0.9900 0.4800
v -1.2750 0.7900 0.6000
v 1.2750 0.7900 0.6000
v 1.2750 0.9900 0.6000
v -1.2750 0.9900 0.6000
f 9 10 11 12
f 13 16 15 14
f 9 13 14 10
f 10 14 15 11
f 11 15 16 12
f 12 16 13 9
o left-storage-block
usemtl plum
v -1.2300 0.0800 -0.1100
v -0.6100 0.0800 -0.1100
v -0.6100 0.8600 -0.1100
v -1.2300 0.8600 -0.1100
v -1.2300 0.0800 0.6100
v -0.6100 0.0800 0.6100
v -0.6100 0.8600 0.6100
v -1.2300 0.8600 0.6100
f 17 18 19 20
f 21 24 23 22
f 17 21 22 18
f 18 22 23 19
f 19 23 24 20
f 20 24 21 17
o right-trestle-panel
usemtl plum
v 0.9300 0.0600 -0.3300
v 1.1100 0.0600 -0.3300
v 1.1100 0.9800 -0.3300
v 0.9300 0.9800 -0.3300
v 0.9300 0.0600 0.4900
v 1.1100 0.0600 0.4900
v 1.1100 0.9800 0.4900
v 0.9300 0.9800 0.4900
f 25 26 27 28
f 29 32 31 30
f 25 29 30 26
f 26 30 31 27
f 27 31 32 28
f 28 32 29 25
o adjustable-left-lift
usemtl terracotta
v -0.4992 0.0400 -0.3590
v -0.4992 0.9600 -0.3590
v -0.5290 0.0400 -0.3292
v -0.5290 0.9600 -0.3292
v -0.5710 0.0400 -0.3292
v -0.5710 0.9600 -0.3292
v -0.6008 0.0400 -0.3590
v -0.6008 0.9600 -0.3590
v -0.6008 0.0400 -0.4010
v -0.6008 0.9600 -0.4010
v -0.5710 0.0400 -0.4308
v -0.5710 0.9600 -0.4308
v -0.5290 0.0400 -0.4308
v -0.5290 0.9600 -0.4308
v -0.4992 0.0400 -0.4010
v -0.4992 0.9600 -0.4010
f 33 35 36 34
f 35 37 38 36
f 37 39 40 38
f 39 41 42 40
f 41 43 44 42
f 43 45 46 44
f 45 47 48 46
f 47 33 34 48
f 47 45 43 41 39 37 35 33
f 34 36 38 40 42 44 46 48
o adjustable-right-lift
usemtl terracotta
v 0.6008 0.0400 -0.3590
v 0.6008 0.9600 -0.3590
v 0.5710 0.0400 -0.3292
v 0.5710 0.9600 -0.3292
v 0.5290 0.0400 -0.3292
v 0.5290 0.9600 -0.3292
v 0.4992 0.0400 -0.3590
v 0.4992 0.9600 -0.3590
v 0.4992 0.0400 -0.4010
v 0.4992 0.9600 -0.4010
v 0.5290 0.0400 -0.4308
v 0.5290 0.9600 -0.4308
v 0.5710 0.0400 -0.4308
v 0.5710 0.9600 -0.4308
v 0.6008 0.0400 -0.4010
v 0.6008 0.9600 -0.4010
f 49 51 52 50
f 51 53 54 52
f 53 55 56 54
f 55 57 58 56
f 57 59 60 58
f 59 61 62 60
f 61 63 64 62
f 63 49 50 64
f 63 61 59 57 55 53 51 49
f 50 52 54 56 58 60 62 64
o cozy-book-1
usemtl terracotta
v -0.6800 1.1400 -0.3500
v -0.1600 1.1400 -0.3500
v -0.1600 1.2000 -0.3500
v -0.6800 1.2000 -0.3500
v -0.6800 1.1400 -0.0100
v -0.1600 1.1400 -0.0100
v -0.1600 1.2000 -0.0100
v -0.6800 1.2000 -0.0100
f 65 66 67 68
f 69 72 71 70
f 65 69 70 66
f 66 70 71 67
f 67 71 72 68
f 68 72 69 65
o cozy-book-2
usemtl terracotta
v -0.6625 1.2150 -0.3410
v -0.1775 1.2150 -0.3410
v -0.1775 1.2750 -0.3410
v -0.6625 1.2750 -0.3410
v -0.6625 1.2150 -0.0190
v -0.1775 1.2150 -0.0190
v -0.1775 1.2750 -0.0190
v -0.6625 1.2750 -0.0190
f 73 74 75 76
f 77 80 79 78
f 73 77 78 74
f 74 78 79 75
f 75 79 80 76
f 76 80 77 73
o cozy-book-3
usemtl terracotta
v -0.6450 1.2900 -0.3320
v -0.1950 1.2900 -0.3320
v -0.1950 1.3500 -0.3320
v -0.6450 1.3500 -0.3320
v -0.6450 1.2900 -0.0280
v -0.1950 1.2900 -0.0280
v -0.1950 1.3500 -0.0280
v -0.6450 1.3500 -0.0280
f 81 82 83 84
f 85 88 87 86
f 81 85 86 82
f 82 86 87 83
f 83 87 88 84
f 84 88 85 81
o round-mug-body
usemtl coral
v 0.4801 1.1000 0.3097
v 0.4681 1.3000 0.3048
v 0.4097 1.1000 0.3801
v 0.4048 1.3000 0.3681
v 0.3103 1.1000 0.3801
v 0.3152 1.3000 0.3681
v 0.2399 1.1000 0.3097
v 0.2519 1.3000 0.3048
v 0.2399 1.1000 0.2103
v 0.2519 1.3000 0.2152
v 0.3103 1.1000 0.1399
v 0.3152 1.3000 0.1519
v 0.4097 1.1000 0.1399
v 0.4048 1.3000 0.1519
v 0.4801 1.1000 0.2103
v 0.4681 1.3000 0.2152
f 89 91 92 90
f 91 93 94 92
f 93 95 96 94
f 95 97 98 96
f 97 99 100 98
f 99 101 102 100
f 101 103 104 102
f 103 89 90 104
f 103 101 99 97 95 93 91 89
f 90 92 94 96 98 100 102 104
o chunky-mug-handle
usemtl coral
v 0.4800 1.1350 0.1800
v 0.5400 1.1350 0.1800
v 0.5400 1.2850 0.1800
v 0.4800 1.2850 0.1800
v 0.4800 1.1350 0.3400
v 0.5400 1.1350 0.3400
v 0.5400 1.2850 0.3400
v 0.4800 1.2850 0.3400
f 105 106 107 108
f 109 112 111 110
f 105 109 110 106
f 106 110 111 107
f 107 111 112 108
f 108 112 109 105
o soft-lamp-base
usemtl charcoal
v 1.0078 1.1150 -0.1788
v 1.0078 1.1850 -0.1788
v 0.9212 1.1150 -0.0922
v 0.9212 1.1850 -0.0922
v 0.7988 1.1150 -0.0922
v 0.7988 1.1850 -0.0922
v 0.7122 1.1150 -0.1788
v 0.7122 1.1850 -0.1788
v 0.7122 1.1150 -0.3012
v 0.7122 1.1850 -0.3012
v 0.7988 1.1150 -0.3878
v 0.7988 1.1850 -0.3878
v 0.9212 1.1150 -0.3878
v 0.9212 1.1850 -0.3878
v 1.0078 1.1150 -0.3012
v 1.0078 1.1850 -0.3012
f 113 115 116 114
f 115 117 118 116
f 117 119 120 118
f 119 121 122 120
f 121 123 124 122
f 123 125 126 124
f 125 127 128 126
f 127 113 114 128
f 127 125 123 121 119 117 115 113
f 114 116 118 120 122 124 126 128
o warm-lamp-neck
usemtl blush
v 0.8903 1.1800 -0.2225
v 0.8903 1.6800 -0.2225
v 0.8600 1.1800 -0.2050
v 0.8600 1.6800 -0.2050
v 0.8297 1.1800 -0.2225
v 0.8297 1.6800 -0.2225
v 0.8297 1.1800 -0.2575
v 0.8297 1.6800 -0.2575
v 0.8600 1.1800 -0.2750
v 0.8600 1.6800 -0.2750
v 0.8903 1.1800 -0.2575
v 0.8903 1.6800 -0.2575
f 129 131 132 130
f 131 133 134 132
f 133 135 136 134
f 135 137 138 136
f 137 139 140 138
f 139 129 130 140
f 139 137 135 133 131 129
f 130 132 134 136 138 140
o faceted-lamp-shade
usemtl blush
v 1.0633 1.6100 -0.1558
v 0.9860 1.8500 -0.1878
v 0.9442 1.6100 -0.0367
v 0.9122 1.8500 -0.1140
v 0.7758 1.6100 -0.0367
v 0.8078 1.8500 -0.1140
v 0.6567 1.6100 -0.1558
v 0.7340 1.8500 -0.1878
v 0.6567 1.6100 -0.3242
v 0.7340 1.8500 -0.2922
v 0.7758 1.6100 -0.4433
v 0.8078 1.8500 -0.3660
v 0.9442 1.6100 -0.4433
v 0.9122 1.8500 -0.3660
v 1.0633 1.6100 -0.3242
v 0.9860 1.8500 -0.2922
f 141 143 144 142
f 143 145 146 144
f 145 147 148 146
f 147 149 150 148
f 149 151 152 150
f 151 153 154 152
f 153 155 156 154
f 155 141 142 156
f 155 153 151 149 147 145 143 141
f 142 144 146 148 150 152 154 156
