# Cozy low-poly interpretation of Office Pack object: Stapler
# Generated by scripts/generate-cozy-office-pack-assets.mjs
mtllib cozy-palette.mtl
o stapler-base
usemtl sky
v -0.3600 0.0200 -0.1100
v 0.3600 0.0200 -0.1100
v 0.3600 0.1400 -0.1100
v -0.3600 0.1400 -0.1100
v -0.3600 0.0200 0.1100
v 0.3600 0.0200 0.1100
v 0.3600 0.1400 0.1100
v -0.3600 0.1400 0.1100
f 1 2 3 4
f 5 8 7 6
f 1 5 6 2
f 2 6 7 3
f 3 7 8 4
f 4 8 5 1
o stapler-top
usemtl sky
v -0.2900 0.1300 -0.1000
v 0.3700 0.1300 -0.1000
v 0.3700 0.2700 -0.1000
v -0.2900 0.2700 -0.1000
v -0.2900 0.1300 0.1000
v 0.3700 0.1300 0.1000
v 0.3700 0.2700 0.1000
v -0.2900 0.2700 0.1000
f 9 10 11 12
f 13 16 15 14
f 9 13 14 10
f 10 14 15 11
f 11 15 16 12
f 12 16 13 9
o tiny-staples
usemtl sky
v -0.3100 0.1525 -0.0800
v -0.1300 0.1525 -0.0800
v -0.1300 0.1875 -0.0800
v -0.3100 0.1875 -0.0800
v -0.3100 0.1525 0.0800
v -0.1300 0.1525 0.0800
v -0.1300 0.1875 0.0800
v -0.3100 0.1875 0.0800
f 17 18 19 20
f 21 24 23 22
f 17 21 22 18
f 18 22 23 19
f 19 23 24 20
f 20 24 21 17
