# Cozy low-poly interpretation of Office Pack object: Table Large Circular
# Generated by scripts/generate-cozy-office-pack-assets.mjs
mtllib cozy-palette.mtl
o faceted-round-top
usemtl plum
v 0.8887 0.6900 0.2381
v 0.8887 0.8300 0.2381
v 0.6505 0.6900 0.6505
v 0.6505 0.8300 0.6505
v 0.2381 0.6900 0.8887
v 0.2381 0.8300 0.8887
v -0.2381 0.6900 0.8887
v -0.2381 0.8300 0.8887
v -0.6505 0.6900 0.6505
v -0.6505 0.8300 0.6505
v -0.8887 0.6900 0.2381
v -0.8887 0.8300 0.2381
v -0.8887 0.6900 -0.2381
v -0.8887 0.8300 -0.2381
v -0.6505 0.6900 -0.6505
v -0.6505 0.8300 -0.6505
v -0.2381 0.6900 -0.8887
v -0.2381 0.8300 -0.8887
v 0.2381 0.6900 -0.8887
v 0.2381 0.8300 -0.8887
v 0.6505 0.6900 -0.6505
v 0.6505 0.8300 -0.6505
v 0.8887 0.6900 -0.2381
v 0.8887 0.8300 -0.2381
f 1 3 4 2
f 3 5 6 4
f 5 7 8 6
f 7 9 10 8
f 9 11 12 10
f 11 13 14 12
f 13 15 16 14
f 15 17 18 16
f 17 19 20 18
f 19 21 22 20
f 21 23 24 22
f 23 1 2 24
f 23 21 19 17 15 13 11 9 7 5 3 1
f 2 4 6 8 10 12 14 16 18 20 22 24
o chunky-pedestal
usemtl plum
v 0.1663 0.0300 0.0689
v 0.1663 0.7500 0.0689
v 0.0689 0.0300 0.1663
v 0.0689 0.7500 0.1663
v -0.0689 0.0300 0.1663
v -0.0689 0.7500 0.1663
v -0.1663 0.0300 0.0689
v -0.1663 0.7500 0.0689
v -0.1663 0.0300 -0.0689
v -0.1663 0.7500 -0.0689
v -0.0689 0.0300 -0.1663
v -0.0689 0.7500 -0.1663
v 0.0689 0.0300 -0.1663
v 0.0689 0.7500 -0.1663
v 0.1663 0.0300 -0.0689
v 0.1663 0.7500 -0.0689
f 25 27 28 26
f 27 29 30 28
f 29 31 32 30
f 31 33 34 32
f 33 35 36 34
f 35 37 38 36
f 37 39 40 38
f 39 25 26 40
f 39 37 35 33 31 29 27 25
f 26 28 30 32 34 36 38 40
o warm-round-base
usemtl plum
v 0.5136 0.0000 0.1669
v 0.5136 0.1200 0.1669
v 0.3174 0.0000 0.4369
v 0.3174 0.1200 0.4369
v 0.0000 0.0000 0.5400
v 0.0000 0.1200 0.5400
v -0.3174 0.0000 0.4369
v -0.3174 0.1200 0.4369
v -0.5136 0.0000 0.1669
v -0.5136 0.1200 0.1669
v -0.5136 0.0000 -0.1669
v -0.5136 0.1200 -0.1669
v -0.3174 0.0000 -0.4369
v -0.3174 0.1200 -0.4369
v -0.0000 0.0000 -0.5400
v -0.0000 0.1200 -0.5400
v 0.3174 0.0000 -0.4369
v 0.3174 0.1200 -0.4369
v 0.5136 0.0000 -0.1669
v 0.5136 0.1200 -0.1669
f 41 43 44 42
f 43 45 46 44
f 45 47 48 46
f 47 49 50 48
f 49 51 52 50
f 51 53 54 52
f 53 55 56 54
f 55 57 58 56
f 57 59 60 58
f 59 41 42 60
f 59 57 55 53 51 49 47 45 43 41
f 42 44 46 48 50 52 54 56 58 60
