# Cozy low-poly interpretation of Office Pack object: Toilet
# Generated by scripts/generate-cozy-office-pack-assets.mjs
mtllib cozy-palette.mtl
o cozy-toilet-bowl
usemtl plum
v 0.3424 0.4512 -0.1300
v 0.2568 0.4234 0.2900
v 0.2116 0.6312 -0.1300
v 0.1587 0.5584 0.2900
v 0.0000 0.7000 -0.1300
v 0.0000 0.6100 0.2900
v -0.2116 0.6312 -0.1300
v -0.1587 0.5584 0.2900
v -0.3424 0.4512 -0.1300
v -0.2568 0.4234 0.2900
v -0.3424 0.2288 -0.1300
v -0.2568 0.2566 0.2900
v -0.2116 0.0488 -0.1300
v -0.1587 0.1216 0.2900
v -0.0000 -0.0200 -0.1300
v -0.0000 0.0700 0.2900
v 0.2116 0.0488 -0.1300
v 0.1587 0.1216 0.2900
v 0.3424 0.2288 -0.1300
v 0.2568 0.2566 0.2900
f 1 3 4 2
f 3 5 6 4
f 5 7 8 6
f 7 9 10 8
f 9 11 12 10
f 11 13 14 12
f 13 15 16 14
f 15 17 18 16
f 17 19 20 18
f 19 1 2 20
f 19 17 15 13 11 9 7 5 3 1
f 2 4 6 8 10 12 14 16 18 20
o toilet-tank
usemtl plum
v -0.3600 0.4900 -0.4500
v 0.3600 0.4900 -0.4500
v 0.3600 1.0700 -0.4500
v -0.3600 1.0700 -0.4500
v -0.3600 0.4900 -0.2300
v 0.3600 0.4900 -0.2300
v 0.3600 1.0700 -0.2300
v -0.3600 1.0700 -0.2300
f 21 22 23 24
f 25 28 27 26
f 21 25 26 22
f 22 26 27 23
f 23 27 28 24
f 24 28 25 21
o toilet-base
usemtl plum
v 0.2283 0.0200 0.0142
v 0.2283 0.3000 0.0142
v 0.1411 0.0200 0.1342
v 0.1411 0.3000 0.1342
v 0.0000 0.0200 0.1800
v 0.0000 0.3000 0.1800
v -0.1411 0.0200 0.1342
v -0.1411 0.3000 0.1342
v -0.2283 0.0200 0.0142
v -0.2283 0.3000 0.0142
v -0.2283 0.0200 -0.1342
v -0.2283 0.3000 -0.1342
v -0.1411 0.0200 -0.2542
v -0.1411 0.3000 -0.2542
v -0.0000 0.0200 -0.3000
v -0.0000 0.3000 -0.3000
v 0.1411 0.0200 -0.2542
v 0.1411 0.3000 -0.2542
v 0.2283 0.0200 -0.1342
v 0.2283 0.3000 -0.1342
f 29 31 32 30
f 31 33 34 32
f 33 35 36 34
f 35 37 38 36
f 37 39 40 38
f 39 41 42 40
f 41 43 44 42
f 43 45 46 44
f 45 47 48 46
f 47 29 30 48
f 47 45 43 41 39 37 35 33 31 29
f 30 32 34 36 38 40 42 44 46 48
