# Cozy low-poly interpretation of Office Pack object: Towel Rack
# Generated by scripts/generate-cozy-office-pack-assets.mjs
mtllib cozy-palette.mtl
o towel-bar
usemtl blush
v -0.5250 0.9170 0.0153
v 0.5250 0.9170 0.0153
v -0.5250 0.8953 0.0370
v 0.5250 0.8953 0.0370
v -0.5250 0.8647 0.0370
v 0.5250 0.8647 0.0370
v -0.5250 0.8430 0.0153
v 0.5250 0.8430 0.0153
v -0.5250 0.8430 -0.0153
v 0.5250 0.8430 -0.0153
v -0.5250 0.8647 -0.0370
v 0.5250 0.8647 -0.0370
v -0.5250 0.8953 -0.0370
v 0.5250 0.8953 -0.0370
v -0.5250 0.9170 -0.0153
v 0.5250 0.9170 -0.0153
f 1 3 4 2
f 3 5 6 4
f 5 7 8 6
f 7 9 10 8
f 9 11 12 10
f 11 13 14 12
f 13 15 16 14
f 15 1 2 16
f 15 13 11 9 7 5 3 1
f 2 4 6 8 10 12 14 16
o folded-towel
usemtl blush
v -0.4100 0.3700 0.0000
v 0.4100 0.3700 0.0000
v 0.4100 0.8700 0.0000
v -0.4100 0.8700 0.0000
v -0.4100 0.3700 0.0800
v 0.4100 0.3700 0.0800
v 0.4100 0.8700 0.0800
v -0.4100 0.8700 0.0800
f 17 18 19 20
f 21 24 23 22
f 17 21 22 18
f 18 22 23 19
f 19 23 24 20
f 20 24 21 17
