# Cozy low-poly interpretation of Office Pack object: Trophy
# Generated by scripts/generate-cozy-office-pack-assets.mjs
mtllib cozy-palette.mtl
o trophy-base
usemtl charcoal
v 0.2663 0.0000 0.0865
v 0.2663 0.1800 0.0865
v 0.1646 0.0000 0.2265
v 0.1646 0.1800 0.2265
v 0.0000 0.0000 0.2800
v 0.0000 0.1800 0.2800
v -0.1646 0.0000 0.2265
v -0.1646 0.1800 0.2265
v -0.2663 0.0000 0.0865
v -0.2663 0.1800 0.0865
v -0.2663 0.0000 -0.0865
v -0.2663 0.1800 -0.0865
v -0.1646 0.0000 -0.2265
v -0.1646 0.1800 -0.2265
v -0.0000 0.0000 -0.2800
v -0.0000 0.1800 -0.2800
v 0.1646 0.0000 -0.2265
v 0.1646 0.1800 -0.2265
v 0.2663 0.0000 -0.0865
v 0.2663 0.1800 -0.0865
f 1 3 4 2
f 3 5 6 4
f 5 7 8 6
f 7 9 10 8
f 9 11 12 10
f 11 13 14 12
f 13 15 16 14
f 15 17 18 16
f 17 19 20 18
f 19 1 2 20
f 19 17 15 13 11 9 7 5 3 1
f 2 4 6 8 10 12 14 16 18 20
o trophy-stem
usemtl pear
v 0.0739 0.1500 0.0306
v 0.0739 0.5700 0.0306
v 0.0306 0.1500 0.0739
v 0.0306 0.5700 0.0739
v -0.0306 0.1500 0.0739
v -0.0306 0.5700 0.0739
v -0.0739 0.1500 0.0306
v -0.0739 0.5700 0.0306
v -0.0739 0.1500 -0.0306
v -0.0739 0.5700 -0.0306
v -0.0306 0.1500 -0.0739
v -0.0306 0.5700 -0.0739
v 0.0306 0.1500 -0.0739
v 0.0306 0.5700 -0.0739
v 0.0739 0.1500 -0.0306
v 0.0739 0.5700 -0.0306
f 21 23 24 22
f 23 25 26 24
f 25 27 28 26
f 27 29 30 28
f 29 31 32 30
f 31 33 34 32
f 33 35 36 34
f 35 21 22 36
f 35 33 31 29 27 25 23 21
f 22 24 26 28 30 32 34 36
o faceted-cup
usemtl blush
v 0.2473 0.5100 0.0803
v 0.3165 0.9300 0.1028
v 0.1528 0.5100 0.2103
v 0.1956 0.9300 0.2692
v 0.0000 0.5100 0.2600
v 0.0000 0.9300 0.3328
v -0.1528 0.5100 0.2103
v -0.1956 0.9300 0.2692
v -0.2473 0.5100 0.0803
v -0.3165 0.9300 0.1028
v -0.2473 0.5100 -0.0803
v -0.3165 0.9300 -0.1028
v -0.1528 0.5100 -0.2103
v -0.1956 0.9300 -0.2692
v -0.0000 0.5100 -0.2600
v -0.0000 0.9300 -0.3328
v 0.1528 0.5100 -0.2103
v 0.1956 0.9300 -0.2692
v 0.2473 0.5100 -0.0803
v 0.3165 0.9300 -0.1028
f 37 39 40 38
f 39 41 42 40
f 41 43 44 42
f 43 45 46 44
f 45 47 48 46
f 47 49 50 48
f 49 51 52 50
f 51 53 54 52
f 53 55 56 54
f 55 37 38 56
f 55 53 51 49 47 45 43 41 39 37
f 38 40 42 44 46 48 50 52 54 56
o left-handle
usemtl sky
v -0.3600 0.5800 -0.0400
v -0.2400 0.5800 -0.0400
v -0.2400 0.9200 -0.0400
v -0.3600 0.9200 -0.0400
v -0.3600 0.5800 0.0400
v -0.2400 0.5800 0.0400
v -0.2400 0.9200 0.0400
v -0.3600 0.9200 0.0400
f 57 58 59 60
f 61 64 63 62
f 57 61 62 58
f 58 62 63 59
f 59 63 64 60
f 60 64 61 57
o right-handle
usemtl sky
v 0.2400 0.5800 -0.0400
v 0.3600 0.5800 -0.0400
v 0.3600 0.9200 -0.0400
v 0.2400 0.9200 -0.0400
v 0.2400 0.5800 0.0400
v 0.3600 0.5800 0.0400
v 0.3600 0.9200 0.0400
v 0.2400 0.9200 0.0400
f 65 66 67 68
f 69 72 71 70
f 65 69 70 66
f 66 70 71 67
f 67 71 72 68
f 68 72 69 65
