# Cozy low-poly interpretation of Office Pack object: Various Stacks of Paper
# Generated by scripts/generate-cozy-office-pack-assets.mjs
mtllib cozy-palette.mtl
o paper-stack-sheet-1
usemtl softGray
v -0.3800 0.0125 -0.2700
v 0.3800 0.0125 -0.2700
v 0.3800 0.0375 -0.2700
v -0.3800 0.0375 -0.2700
v -0.3800 0.0125 0.2700
v 0.3800 0.0125 0.2700
v 0.3800 0.0375 0.2700
v -0.3800 0.0375 0.2700
f 1 2 3 4
f 5 8 7 6
f 1 5 6 2
f 2 6 7 3
f 3 7 8 4
f 4 8 5 1
o paper-stack-sheet-2
usemtl softGray
v -0.3600 0.0475 -0.2850
v 0.4000 0.0475 -0.2850
v 0.4000 0.0725 -0.2850
v -0.3600 0.0725 -0.2850
v -0.3600 0.0475 0.2550
v 0.4000 0.0475 0.2550
v 0.4000 0.0725 0.2550
v -0.3600 0.0725 0.2550
f 9 10 11 12
f 13 16 15 14
f 9 13 14 10
f 10 14 15 11
f 11 15 16 12
f 12 16 13 9
o paper-stack-sheet-3
usemtl softGray
v -0.3400 0.0825 -0.3000
v 0.4200 0.0825 -0.3000
v 0.4200 0.1075 -0.3000
v -0.3400 0.1075 -0.3000
v -0.3400 0.0825 0.2400
v 0.4200 0.0825 0.2400
v 0.4200 0.1075 0.2400
v -0.3400 0.1075 0.2400
f 17 18 19 20
f 21 24 23 22
f 17 21 22 18
f 18 22 23 19
f 19 23 24 20
f 20 24 21 17
o paper-stack-sheet-4
usemtl softGray
v -0.3200 0.1175 -0.3150
v 0.4400 0.1175 -0.3150
v 0.4400 0.1425 -0.3150
v -0.3200 0.1425 -0.3150
v -0.3200 0.1175 0.2250
v 0.4400 0.1175 0.2250
v 0.4400 0.1425 0.2250
v -0.3200 0.1425 0.2250
f 25 26 27 28
f 29 32 31 30
f 25 29 30 26
f 26 30 31 27
f 27 31 32 28
f 28 32 29 25
o paper-stack-sheet-5
usemtl softGray
v -0.3000 0.1525 -0.3300
v 0.4600 0.1525 -0.3300
v 0.4600 0.1775 -0.3300
v -0.3000 0.1775 -0.3300
v -0.3000 0.1525 0.2100
v 0.4600 0.1525 0.2100
v 0.4600 0.1775 0.2100
v -0.3000 0.1775 0.2100
f 33 34 35 36
f 37 40 39 38
f 33 37 38 34
f 34 38 39 35
f 35 39 40 36
f 36 40 37 33
