# Cozy low-poly interpretation of Office Pack object: Vending Machine
# Generated by scripts/generate-cozy-office-pack-assets.mjs
mtllib cozy-palette.mtl
o cozy-vending-body
usemtl plum
v -0.4500 0.0000 -0.2900
v 0.4500 0.0000 -0.2900
v 0.4500 1.9000 -0.2900
v -0.4500 1.9000 -0.2900
v -0.4500 0.0000 0.2900
v 0.4500 0.0000 0.2900
v 0.4500 1.9000 0.2900
v -0.4500 1.9000 0.2900
f 1 2 3 4
f 5 8 7 6
f 1 5 6 2
f 2 6 7 3
f 3 7 8 4
f 4 8 5 1
o glowing-drink-window
usemtl blush
v -0.3500 0.7200 0.2800
v 0.1100 0.7200 0.2800
v 0.1100 1.6400 0.2800
v -0.3500 1.6400 0.2800
v -0.3500 0.7200 0.3400
v 0.1100 0.7200 0.3400
v 0.1100 1.6400 0.3400
v -0.3500 1.6400 0.3400
f 9 10 11 12
f 13 16 15 14
f 9 13 14 10
f 10 14 15 11
f 11 15 16 12
f 12 16 13 9
o button-column
usemtl poppy
v 0.2100 0.7100 0.2900
v 0.3900 0.7100 0.2900
v 0.3900 1.4900 0.2900
v 0.2100 1.4900 0.2900
v 0.2100 0.7100 0.3500
v 0.3900 0.7100 0.3500
v 0.3900 1.4900 0.3500
v 0.2100 1.4900 0.3500
f 17 18 19 20
f 21 24 23 22
f 17 21 22 18
f 18 22 23 19
f 19 23 24 20
f 20 24 21 17
o pickup-slot
usemtl plum
v -0.2900 0.2300 0.2850
v 0.2900 0.2300 0.2850
v 0.2900 0.4100 0.2850
v -0.2900 0.4100 0.2850
v -0.2900 0.2300 0.3550
v 0.2900 0.2300 0.3550
v 0.2900 0.4100 0.3550
v -0.2900 0.4100 0.3550
f 25 26 27 28
f 29 32 31 30
f 25 29 30 26
f 26 30 31 27
f 27 31 32 28
f 28 32 29 25
