# Cozy low-poly interpretation of Office Pack object: Water Cooler
# Generated by scripts/generate-cozy-office-pack-assets.mjs
mtllib cozy-palette.mtl
o water-jug
usemtl plum
v 0.3234 1.0300 0.1051
v 0.2652 1.6500 0.0862
v 0.1998 1.0300 0.2751
v 0.1639 1.6500 0.2256
v 0.0000 1.0300 0.3400
v 0.0000 1.6500 0.2788
v -0.1998 1.0300 0.2751
v -0.1639 1.6500 0.2256
v -0.3234 1.0300 0.1051
v -0.2652 1.6500 0.0862
v -0.3234 1.0300 -0.1051
v -0.2652 1.6500 -0.0862
v -0.1998 1.0300 -0.2751
v -0.1639 1.6500 -0.2256
v -0.0000 1.0300 -0.3400
v -0.0000 1.6500 -0.2788
v 0.1998 1.0300 -0.2751
v 0.1639 1.6500 -0.2256
v 0.3234 1.0300 -0.1051
v 0.2652 1.6500 -0.0862
f 1 3 4 2
f 3 5 6 4
f 5 7 8 6
f 7 9 10 8
f 9 11 12 10
f 11 13 14 12
f 13 15 16 14
f 15 17 18 16
f 17 19 20 18
f 19 1 2 20
f 19 17 15 13 11 9 7 5 3 1
f 2 4 6 8 10 12 14 16 18 20
o cooler-body
usemtl plum
v -0.3300 0.1300 -0.2900
v 0.3300 0.1300 -0.2900
v 0.3300 1.1100 -0.2900
v -0.3300 1.1100 -0.2900
v -0.3300 0.1300 0.2900
v 0.3300 0.1300 0.2900
v 0.3300 1.1100 0.2900
v -0.3300 1.1100 0.2900
f 21 22 23 24
f 25 28 27 26
f 21 25 26 22
f 22 26 27 23
f 23 27 28 24
f 24 28 25 21
o little-tap
usemtl plum
v -0.1200 0.6800 0.2800
v 0.1200 0.6800 0.2800
v 0.1200 0.7600 0.2800
v -0.1200 0.7600 0.2800
v -0.1200 0.6800 0.4000
v 0.1200 0.6800 0.4000
v 0.1200 0.7600 0.4000
v -0.1200 0.7600 0.4000
f 29 30 31 32
f 33 36 35 34
f 29 33 34 30
f 30 34 35 31
f 31 35 36 32
f 32 36 33 29
