# Cozy low-poly interpretation of Office Pack object: Webcam
# Generated by scripts/generate-cozy-office-pack-assets.mjs
mtllib cozy-palette.mtl
o camera-body
usemtl charcoal
v -0.2400 0.5800 -0.1300
v 0.2400 0.5800 -0.1300
v 0.2400 0.8600 -0.1300
v -0.2400 0.8600 -0.1300
v -0.2400 0.5800 0.1300
v 0.2400 0.5800 0.1300
v 0.2400 0.8600 0.1300
v -0.2400 0.8600 0.1300
f 1 2 3 4
f 5 8 7 6
f 1 5 6 2
f 2 6 7 3
f 3 7 8 4
f 4 8 5 1
o round-lens
usemtl midnight
v 0.0951 0.7509 0.1450
v 0.0951 0.7509 0.1950
v 0.0588 0.8009 0.1450
v 0.0588 0.8009 0.1950
v 0.0000 0.8200 0.1450
v 0.0000 0.8200 0.1950
v -0.0588 0.8009 0.1450
v -0.0588 0.8009 0.1950
v -0.0951 0.7509 0.1450
v -0.0951 0.7509 0.1950
v -0.0951 0.6891 0.1450
v -0.0951 0.6891 0.1950
v -0.0588 0.6391 0.1450
v -0.0588 0.6391 0.1950
v -0.0000 0.6200 0.1450
v -0.0000 0.6200 0.1950
v 0.0588 0.6391 0.1450
v 0.0588 0.6391 0.1950
v 0.0951 0.6891 0.1450
v 0.0951 0.6891 0.1950
f 9 11 12 10
f 11 13 14 12
f 13 15 16 14
f 15 17 18 16
f 17 19 20 18
f 19 21 22 20
f 21 23 24 22
f 23 25 26 24
f 25 27 28 26
f 27 9 10 28
f 27 25 23 21 19 17 15 13 11 9
f 10 12 14 16 18 20 22 24 26 28
o short-mount
usemtl plum
v 0.0462 0.3000 0.0191
v 0.0462 0.6600 0.0191
v 0.0191 0.3000 0.0462
v 0.0191 0.6600 0.0462
v -0.0191 0.3000 0.0462
v -0.0191 0.6600 0.0462
v -0.0462 0.3000 0.0191
v -0.0462 0.6600 0.0191
v -0.0462 0.3000 -0.0191
v -0.0462 0.6600 -0.0191
v -0.0191 0.3000 -0.0462
v -0.0191 0.6600 -0.0462
v 0.0191 0.3000 -0.0462
v 0.0191 0.6600 -0.0462
v 0.0462 0.3000 -0.0191
v 0.0462 0.6600 -0.0191
f 29 31 32 30
f 31 33 34 32
f 33 35 36 34
f 35 37 38 36
f 37 39 40 38
f 39 41 42 40
f 41 43 44 42
f 43 29 30 44
f 43 41 39 37 35 33 31 29
f 30 32 34 36 38 40 42 44
o clamp-base
usemtl charcoal
v -0.2600 0.2200 -0.1500
v 0.2600 0.2200 -0.1500
v 0.2600 0.3400 -0.1500
v -0.2600 0.3400 -0.1500
v -0.2600 0.2200 0.1500
v 0.2600 0.2200 0.1500
v 0.2600 0.3400 0.1500
v -0.2600 0.3400 0.1500
f 45 46 47 48
f 49 52 51 50
f 45 49 50 46
f 46 50 51 47
f 47 51 52 48
f 48 52 49 45
